<svg width="20" height="20" viewBox="0 0 20 20" fill="none" xmlns="http://www.w3.org/2000/svg">
<path d="M18 0H2C0.9 0 0 0.900667 0 2V18C0 19.0987 0.9 20 2 20H18C19.1 20 20 19.0987 20 18V2C20 0.900667 19.1 0 18 0ZM5.39733 17.6013H2.33333V14.876H5.39733V17.6013ZM5.39733 13.962H2.33333V11.238H5.39733V13.962ZM5.16667 3.03133C4.698 3.03133 4.318 2.652 4.318 2.18267C4.318 1.71333 4.698 1.33333 5.16667 1.33333C5.63533 1.33333 6.01533 1.71267 6.01533 2.182C6.01533 2.65133 5.63533 3.03133 5.16667 3.03133ZM9.486 17.6013H6.42267V14.876H9.486V17.6013ZM9.486 13.962H6.42267V11.238H9.486V13.962ZM9.486 10.3253H6.42267V7.60133H9.486V10.3253ZM9.15133 2.182C9.15133 1.71267 9.53133 1.33333 10 1.33333C10.4687 1.33333 10.8487 1.71267 10.8487 2.182C10.8487 2.65133 10.4687 3.03067 10 3.03067C9.53133 3.03067 9.15133 2.652 9.15133 2.182ZM13.5773 13.962H10.5133V11.238H13.578V13.962H13.5773ZM13.5773 10.3253H10.5133V7.60133H13.578V10.3253H13.5773ZM13.9847 2.182C13.9847 1.71267 14.3647 1.33333 14.8333 1.33333C15.302 1.33333 15.682 1.71267 15.682 2.182C15.682 2.65133 15.302 3.03067 14.8333 3.03067C14.3647 3.03067 13.9847 2.652 13.9847 2.182ZM17.6667 13.962H14.6027V11.238H17.6667V13.962ZM17.6667 10.3253H14.6027V7.60133H17.6667V10.3253Z" fill="#B2B2B2"/>
</svg>
