<svg width="20" height="20" viewBox="0 0 20 20" fill="none" xmlns="http://www.w3.org/2000/svg">
<path d="M19.8283 9.5857L18.5731 8.33051L10.4143 0.171641C10.3044 0.0617188 10.1554 0 9.99998 0C9.84455 0 9.69553 0.0617188 9.58564 0.171641L0.171621 9.5857C-0.057207 9.81449 -0.057207 10.1855 0.171621 10.4143C0.400449 10.6431 0.771387 10.6431 1.00025 10.4143L1.25518 10.1594V19.4141C1.25518 19.7377 1.51752 20 1.84111 20H7.53127V13.138C7.53127 12.8144 7.79357 12.552 8.11721 12.552H11.8828C12.2063 12.552 12.4687 12.8144 12.4687 13.138V20H18.1589C18.4824 20 18.7448 19.7377 18.7448 19.4141V10.1594L18.9997 10.4143C19.1142 10.5287 19.2641 10.5859 19.414 10.5859C19.564 10.5859 19.714 10.5287 19.8283 10.4143C20.0572 10.1855 20.0572 9.81449 19.8283 9.5857Z" fill="#B2B2B2"/>
</svg>
