<svg width="15" height="20" viewBox="0 0 15 20" fill="none" xmlns="http://www.w3.org/2000/svg">
<path d="M7.22831 0C3.22926 0 0 3.22926 0 7.22831C0 8.62265 0.445415 9.95405 1.06512 11.0482L5.77587 19.2012C6.0712 19.7337 6.6667 20 7.22831 20C7.78997 20 8.35637 19.7337 8.68075 19.2012L13.3915 11.053C14.016 9.9588 14.4566 8.6516 14.4566 7.23305C14.4566 3.2341 11.2274 0 7.22831 0ZM7.22831 9.3634C5.77587 9.3634 4.58971 8.17724 4.58971 6.7248C4.58971 5.27236 5.77587 4.0862 7.22831 4.0862C8.68075 4.0862 9.86691 5.27236 9.86691 6.7248C9.86691 8.18208 8.68075 9.3634 7.22831 9.3634Z" fill="#B2B2B2"/>
</svg>
