<svg width="388" height="427" viewBox="0 0 388 427" fill="none" xmlns="http://www.w3.org/2000/svg">
<g filter="url(#filter0_d)">
<path d="M265.195 106.855C265.195 106.855 270.198 162.705 173.034 169.268C120.239 172.829 69.6847 208.056 90.9244 293.056C104.374 262.126 141.499 196.231 212.587 200.474C212.587 200.474 143.956 204.538 106.444 307.037C136.702 321.215 209.953 347.035 251.791 289.45C307.053 213.364 265.195 106.855 265.195 106.855Z" fill="#CCF7E5" fill-opacity="0.77"/>
<path d="M106.606 306.613C181.993 300.49 250.17 252.763 279.983 179.908C277.657 138.659 265.195 106.855 265.195 106.855C265.195 106.855 270.198 162.705 173.034 169.268C120.239 172.829 69.6847 208.056 90.9244 293.056C104.374 262.126 141.499 196.231 212.587 200.474C212.584 200.473 144.152 204.536 106.606 306.613Z" fill="#FAFAFA"/>
<path d="M125.64 156.486C129.106 157.554 132.781 155.609 133.848 152.142C134.916 148.676 132.971 145.001 129.505 143.934C126.038 142.866 122.363 144.811 121.296 148.277C120.228 151.744 122.173 155.419 125.64 156.486Z" fill="#CCF7E5" fill-opacity="0.77"/>
<path d="M147.849 154.49C150.325 155.252 152.95 153.863 153.713 151.387C154.475 148.912 153.086 146.287 150.61 145.524C148.134 144.762 145.509 146.151 144.747 148.627C143.984 151.103 145.374 153.728 147.849 154.49Z" fill="#FAFAFA"/>
<path d="M154.857 117.384C161.047 119.29 167.609 115.817 169.515 109.627C171.421 103.438 167.948 96.8751 161.759 94.9694C155.569 93.0636 149.006 96.5363 147.101 102.726C145.195 108.916 148.668 115.478 154.857 117.384Z" fill="#FAFAFA"/>
<path d="M183.855 145.944C185.835 146.554 187.935 145.443 188.545 143.462C189.155 141.481 188.044 139.381 186.063 138.771C184.082 138.162 181.982 139.273 181.372 141.254C180.763 143.234 181.874 145.334 183.855 145.944Z" fill="#FAFAFA"/>
<path d="M218.035 141.744C223.73 143.498 229.767 140.303 231.521 134.608C233.274 128.914 230.079 122.876 224.384 121.123C218.69 119.369 212.652 122.564 210.899 128.259C209.146 133.953 212.341 139.991 218.035 141.744Z" fill="#FAFAFA"/>
</g>
<defs>
<filter id="filter0_d" x="0.328522" y="0" width="387.192" height="426.648" filterUnits="userSpaceOnUse" color-interpolation-filters="sRGB">
<feFlood flood-opacity="0" result="BackgroundImageFix"/>
<feColorMatrix in="SourceAlpha" type="matrix" values="0 0 0 0 0 0 0 0 0 0 0 0 0 0 0 0 0 0 127 0"/>
<feOffset dx="4" dy="4"/>
<feGaussianBlur stdDeviation="36"/>
<feColorMatrix type="matrix" values="0 0 0 0 0 0 0 0 0 0 0 0 0 0 0 0 0 0 0.25 0"/>
<feBlend mode="normal" in2="BackgroundImageFix" result="effect1_dropShadow"/>
<feBlend mode="normal" in="SourceGraphic" in2="effect1_dropShadow" result="shape"/>
</filter>
</defs>
</svg>
