<svg width="56" height="56" viewBox="0 0 56 56" fill="none" xmlns="http://www.w3.org/2000/svg">
<g filter="url(#filter0_d)">
<circle cx="28" cy="20" r="19" fill="white"/>
</g>
<path d="M33.9375 21C37.8035 21 40.9375 17.866 40.9375 14C40.9375 10.134 37.8035 7 33.9375 7C30.0715 7 26.9375 10.134 26.9375 14C26.9375 17.866 30.0715 21 33.9375 21Z" fill="#F8BC1E"/>
<path d="M19.0625 17.9375H37.4375V32.375H19.0625V17.9375Z" fill="#E3E4E2"/>
<path d="M19.0625 17.9375H37.4375V20.125H19.0625V17.9375Z" fill="#C9C9C8"/>
<path d="M18.625 13.5625L16.875 19.25H39.625L37.875 13.5625H18.625Z" fill="#0093B9"/>
<path d="M23.875 32.375L24.75 30.625H31.75L32.625 32.375H23.875Z" fill="#C9C9C8"/>
<path d="M26.0625 30.625V24.5C26.0625 23.9198 26.293 23.3634 26.7032 22.9532C27.1134 22.543 27.6698 22.3125 28.25 22.3125C28.8302 22.3125 29.3866 22.543 29.7968 22.9532C30.207 23.3634 30.4375 23.9198 30.4375 24.5V30.625H26.0625Z" fill="#0093B9"/>
<path d="M21.25 22.75H23.875V27.125H21.25V22.75Z" fill="#0093B9"/>
<path d="M21.25 24.9375H23.875V25.8125H21.25V24.9375Z" fill="#0884A9"/>
<path d="M22.125 20.5625H23V21.4375H22.125V20.5625Z" fill="#F8BC1E"/>
<path d="M36.125 17.0625H20.375L22.125 10.0625H34.375L36.125 17.0625Z" fill="#85BB40"/>
<path d="M33.1205 14L33.5033 17.0625H32.6217L32.2389 14H30.2472L30.4386 17.0625H29.562L29.37 14H27.13L26.938 17.0625H26.0614L26.2528 14H24.2611L23.8783 17.0625H22.9967L23.3795 14H21.1406L21.3594 13.125H23.4889L23.8717 10.0625H24.7533L24.3705 13.125H26.3075L26.4995 10.0625H27.3755L27.1847 13.125H29.3153L29.1245 10.0625H30.0005L30.1925 13.125H32.1295L31.7467 10.0625H32.6283L33.0111 13.125H35.1406L35.3594 14H33.1205Z" fill="#7B9E3E"/>
<path d="M19.9375 32.375C20.1361 32.375 20.332 32.3301 20.5106 32.2434C20.6893 32.1568 20.8459 32.0307 20.9688 31.8748C21.0916 31.7189 21.1775 31.5371 21.22 31.3432C21.2624 31.1492 21.2603 30.9482 21.2139 30.7552C21.1674 30.5622 21.0777 30.3822 20.9516 30.2289C20.8255 30.0755 20.6663 29.9528 20.4859 29.8699C20.3055 29.787 20.1087 29.7461 19.9102 29.7503C19.7117 29.7545 19.5168 29.8036 19.34 29.894C19.2089 29.6087 19.0033 29.3639 18.7449 29.1853C18.4865 29.0068 18.1849 28.901 17.8716 28.8792C17.5582 28.8574 17.2448 28.9203 16.9642 29.0613C16.6836 29.2024 16.4461 29.4163 16.2766 29.6807C16.1071 29.9452 16.012 30.2503 16.0011 30.5642C15.9901 30.8781 16.0639 31.1891 16.2146 31.4647C16.3653 31.7402 16.5874 31.9702 16.8575 32.1303C17.1277 32.2905 17.436 32.375 17.75 32.375H19.9375Z" fill="#85BB40"/>
<path d="M36.5628 32.375C36.3643 32.375 36.1683 32.3301 35.9897 32.2434C35.8111 32.1568 35.6544 32.0307 35.5316 31.8748C35.4087 31.7189 35.3228 31.5371 35.2804 31.3432C35.2379 31.1492 35.24 30.9482 35.2865 30.7552C35.333 30.5622 35.4226 30.3822 35.5487 30.2289C35.6748 30.0755 35.834 29.9528 36.0144 29.8699C36.1948 29.787 36.3917 29.7461 36.5901 29.7503C36.7886 29.7545 36.9836 29.8036 37.1603 29.894C37.2915 29.6087 37.4971 29.3639 37.7554 29.1853C38.0138 29.0068 38.3155 28.901 38.6288 28.8792C38.9421 28.8574 39.2555 28.9203 39.5361 29.0613C39.8168 29.2024 40.0543 29.4163 40.2237 29.6807C40.3932 29.9452 40.4884 30.2503 40.4993 30.5642C40.5102 30.8781 40.4364 31.1891 40.2857 31.4647C40.1351 31.7402 39.913 31.9702 39.6428 32.1303C39.3727 32.2905 39.0644 32.375 38.7503 32.375H36.5628Z" fill="#85BB40"/>
<path d="M27.375 25.8125H28.25V26.6875H27.375V25.8125Z" fill="#067B98"/>
<path d="M32.625 22.75H35.25V27.125H32.625V22.75Z" fill="#0093B9"/>
<path d="M32.625 24.9375H35.25V25.8125H32.625V24.9375Z" fill="#0884A9"/>
<path d="M33.5 20.5625H34.375V21.4375H33.5V20.5625Z" fill="#F8BC1E"/>
<defs>
<filter id="filter0_d" x="0" y="0" width="56" height="56" filterUnits="userSpaceOnUse" color-interpolation-filters="sRGB">
<feFlood flood-opacity="0" result="BackgroundImageFix"/>
<feColorMatrix in="SourceAlpha" type="matrix" values="0 0 0 0 0 0 0 0 0 0 0 0 0 0 0 0 0 0 127 0"/>
<feMorphology radius="2" operator="erode" in="SourceAlpha" result="effect1_dropShadow"/>
<feOffset dy="8"/>
<feGaussianBlur stdDeviation="5.5"/>
<feColorMatrix type="matrix" values="0 0 0 0 0 0 0 0 0 0 0 0 0 0 0 0 0 0 0.25 0"/>
<feBlend mode="normal" in2="BackgroundImageFix" result="effect1_dropShadow"/>
<feBlend mode="normal" in="SourceGraphic" in2="effect1_dropShadow" result="shape"/>
</filter>
</defs>
</svg>
