<svg width="56" height="56" viewBox="0 0 56 56" fill="none" xmlns="http://www.w3.org/2000/svg">
<g filter="url(#filter0_d)">
<circle cx="28" cy="20" r="19" fill="white"/>
</g>
<path d="M22.4668 30.8V28.4667H20.6001V30.8" fill="#FFFEFE"/>
<path d="M36.4667 33.1334L35.9197 32.5864C35.5013 32.168 35.1694 31.6712 34.943 31.1245C34.7165 30.5778 34.6 29.9918 34.6 29.4H30.8667C30.8667 29.9918 30.7502 30.5778 30.5237 31.1245C30.2973 31.6712 29.9654 32.168 29.5469 32.5864L29 33.1334" fill="#939393"/>
<path d="M39.7334 21.4667C39.7334 26.1058 36.5993 29.8667 32.7334 29.8667C28.8675 29.8667 25.7334 26.1058 25.7334 21.4667" fill="#96C18C"/>
<path d="M38.6083 21.4667H25.7334C25.7334 24.4571 27.0401 27.0755 29.0001 28.5642C29.6741 28.8054 30.3842 28.9303 31.1001 28.9333C34.7713 28.9333 37.8369 25.7385 38.6083 21.4667Z" fill="white" fill-opacity="0.3"/>
<path d="M24.7998 7.93335H40.6665V17.2667H24.7998V7.93335Z" fill="#96C18C"/>
<path d="M24.7998 7.93335V12.6H39.2665C39.3902 12.6 39.5089 12.5508 39.5965 12.4633C39.684 12.3758 39.7331 12.2571 39.7331 12.1333V7.93335H24.7998Z" fill="white" fill-opacity="0.3"/>
<path d="M25.2666 20.0667H40.1999V21.4667H25.2666V20.0667Z" fill="#474747"/>
<path d="M28.0668 14.9333C28.0668 11.5827 30.1561 8.86667 32.7335 8.86667C35.3109 8.86667 37.4002 11.5827 37.4002 14.9333C37.4309 15.8957 37.2521 16.8533 36.8759 17.7397C36.4998 18.6261 35.9353 19.4201 35.2218 20.0667H37.7147C38.7438 18.554 39.2854 16.7627 39.2668 14.9333C39.2668 10.5518 36.3418 7 32.7335 7C29.1252 7 26.2002 10.5518 26.2002 14.9333C26.1816 16.7627 26.7232 18.554 27.7523 20.0667H30.2452C29.5317 19.4201 28.9673 18.6261 28.5912 17.7397C28.215 16.8533 28.0361 15.8957 28.0668 14.9333Z" fill="#FFFEFE"/>
<path d="M30.2453 20.0667C29.5317 19.4201 28.9674 18.6261 28.5912 17.7397C28.2151 16.8533 28.0361 15.8958 28.0669 14.9334C28.0669 11.5827 30.1561 8.8667 32.7335 8.8667C35.3109 8.8667 37.4002 11.5827 37.4002 14.9334C37.431 15.8958 37.2521 16.8534 36.8759 17.7398C36.4998 18.6262 35.9354 19.4202 35.2218 20.0667" fill="#96C18C"/>
<path d="M27.6001 33.1333H37.8668V35H27.6001V33.1333Z" fill="#474747"/>
<path d="M25.7334 8.8667H26.6667V9.80003H25.7334V8.8667Z" fill="#96C18C"/>
<path d="M18.7335 33.1333H18.2668C18.0193 33.1333 17.7819 33.2316 17.6069 33.4067C17.4318 33.5817 17.3335 33.8191 17.3335 34.0666C17.3335 34.3142 17.4318 34.5516 17.6069 34.7266C17.7819 34.9016 18.0193 35 18.2668 35H24.8002C25.0477 35 25.2851 34.9016 25.4601 34.7266C25.6352 34.5516 25.7335 34.3142 25.7335 34.0666C25.7335 33.8191 25.6352 33.5817 25.4601 33.4067C25.2851 33.2316 25.0477 33.1333 24.8002 33.1333H24.3335" fill="#474747"/>
<path d="M24.3331 33.1333H18.2665C18.1104 33.1327 17.9567 33.1713 17.8196 33.2457C17.6824 33.32 17.5662 33.4277 17.4815 33.5588C17.3969 33.6899 17.3467 33.8402 17.3354 33.9958C17.3242 34.1514 17.3523 34.3074 17.4171 34.4493C17.5373 34.5042 17.6677 34.5328 17.7998 34.5333H24.3331C24.4892 34.534 24.6428 34.4953 24.78 34.421C24.9172 34.3466 25.0334 34.2389 25.118 34.1078C25.2026 33.9767 25.2529 33.8264 25.2641 33.6708C25.2754 33.5152 25.2473 33.3592 25.1825 33.2173C25.0623 33.1624 24.9319 33.1338 24.7998 33.1333H24.3331Z" fill="#FFFEFE"/>
<path d="M21.5334 30.3334C22.276 30.3334 22.9882 30.6284 23.5133 31.1535C24.0384 31.6786 24.3334 32.3908 24.3334 33.1334V33.6H18.7334V33.1334C18.7334 32.3908 19.0284 31.6786 19.5535 31.1535C20.0786 30.6284 20.7908 30.3334 21.5334 30.3334Z" fill="#F3A748"/>
<path d="M21.0669 17.2667H22.0002V28.4667H21.0669V17.2667Z" fill="#474747"/>
<path d="M21.5334 18.2C22.0489 18.2 22.4668 17.7822 22.4668 17.2667C22.4668 16.7512 22.0489 16.3334 21.5334 16.3334C21.018 16.3334 20.6001 16.7512 20.6001 17.2667C20.6001 17.7822 21.018 18.2 21.5334 18.2Z" fill="#FFFEFE"/>
<path d="M20.6 9.8C19.8574 9.8 19.1452 9.505 18.6201 8.9799C18.095 8.4548 17.8 7.74261 17.8 7C17.8 7.74261 17.505 8.4548 16.9799 8.9799C16.4548 9.505 15.7426 9.8 15 9.8C15.7426 9.8 16.4548 10.095 16.9799 10.6201C17.505 11.1452 17.8 11.8574 17.8 12.6C17.8 11.8574 18.095 11.1452 18.6201 10.6201C19.1452 10.095 19.8574 9.8 20.6 9.8Z" fill="#FC6681"/>
<path d="M22.9335 13.0666C22.4385 13.0666 21.9637 12.87 21.6136 12.5199C21.2635 12.1698 21.0669 11.695 21.0669 11.2C21.0669 11.695 20.8702 12.1698 20.5201 12.5199C20.1701 12.87 19.6953 13.0666 19.2002 13.0666C19.6953 13.0666 20.1701 13.2633 20.5201 13.6134C20.8702 13.9634 21.0669 14.4382 21.0669 14.9333C21.0669 14.4382 21.2635 13.9634 21.6136 13.6134C21.9637 13.2633 22.4385 13.0666 22.9335 13.0666Z" fill="#96C18C"/>
<path d="M42.9999 28.9333C42.5049 28.9333 42.0301 28.7367 41.68 28.3866C41.3299 28.0365 41.1333 27.5617 41.1333 27.0667C41.1333 27.5617 40.9366 28.0365 40.5865 28.3866C40.2365 28.7367 39.7617 28.9333 39.2666 28.9333C39.7617 28.9333 40.2365 29.13 40.5865 29.4801C40.9366 29.8301 41.1333 30.3049 41.1333 30.8C41.1333 30.3049 41.3299 29.8301 41.68 29.4801C42.0301 29.13 42.5049 28.9333 42.9999 28.9333Z" fill="#FC6681"/>
<path d="M27.6001 33.1333V34.0666H36.4668C36.5905 34.0666 36.7092 34.0175 36.7967 33.93C36.8843 33.8424 36.9334 33.7237 36.9334 33.6V33.1333H27.6001Z" fill="#FFFEFE"/>
<path d="M25.2666 20.0667V21H38.3333C38.457 21 38.5757 20.9508 38.6633 20.8633C38.7508 20.7758 38.7999 20.6571 38.7999 20.5333V20.0667H25.2666Z" fill="#FFFEFE"/>
<path d="M22.4667 32.6667C22.5905 32.6667 22.7092 32.6175 22.7967 32.53C22.8842 32.4425 22.9334 32.3238 22.9334 32.2V30.7109C22.5426 30.4842 22.1027 30.3555 21.6514 30.3361C21.2 30.3166 20.7507 30.4069 20.3419 30.5992C19.9331 30.7915 19.577 31.0801 19.3042 31.4402C19.0313 31.8002 18.8499 32.2211 18.7754 32.6667H22.4667Z" fill="#F9D266"/>
<path d="M27.7522 20.0667H30.2452C29.384 19.326 28.7525 18.3545 28.4252 17.2667H26.4932C26.7402 18.2685 27.1667 19.2172 27.7522 20.0667Z" fill="#474747"/>
<path d="M37.0402 17.2667C36.7129 18.3545 36.0814 19.326 35.2202 20.0667H37.7131C38.299 19.2172 38.7259 18.2686 38.9731 17.2667H37.0402Z" fill="#474747"/>
<path d="M35.9907 10.5934C35.6161 10.0755 35.1276 9.65054 34.5629 9.35119C33.9982 9.05183 33.3723 8.88608 32.7334 8.8667C30.156 8.8667 28.0667 11.5827 28.0667 14.9334C28.0545 16.2362 28.393 17.5182 29.0467 18.6452C29.7649 19.2506 30.6709 19.5881 31.6101 19.6C34.2925 19.6 36.4667 16.7795 36.4667 13.3C36.4686 12.3768 36.3074 11.4605 35.9907 10.5934Z" fill="white" fill-opacity="0.3"/>
<defs>
<filter id="filter0_d" x="0" y="0" width="56" height="56" filterUnits="userSpaceOnUse" color-interpolation-filters="sRGB">
<feFlood flood-opacity="0" result="BackgroundImageFix"/>
<feColorMatrix in="SourceAlpha" type="matrix" values="0 0 0 0 0 0 0 0 0 0 0 0 0 0 0 0 0 0 127 0"/>
<feMorphology radius="2" operator="erode" in="SourceAlpha" result="effect1_dropShadow"/>
<feOffset dy="8"/>
<feGaussianBlur stdDeviation="5.5"/>
<feColorMatrix type="matrix" values="0 0 0 0 0 0 0 0 0 0 0 0 0 0 0 0 0 0 0.25 0"/>
<feBlend mode="normal" in2="BackgroundImageFix" result="effect1_dropShadow"/>
<feBlend mode="normal" in="SourceGraphic" in2="effect1_dropShadow" result="shape"/>
</filter>
</defs>
</svg>
