<svg width="60" height="60" viewBox="0 0 60 60" fill="none" xmlns="http://www.w3.org/2000/svg">
<circle cx="30" cy="30" r="29" stroke="#F2F2F2" stroke-width="2"/>
<path d="M24.6875 30C24.6875 29.0091 24.9605 28.0809 25.4348 27.2861V23.9147H22.0634C20.7253 25.6525 20 27.7704 20 30C20 32.2296 20.7253 34.3476 22.0634 36.0854H25.4348V32.714C24.9605 31.9192 24.6875 30.9909 24.6875 30Z" fill="#FBBD00"/>
<path d="M30 35.3126L27.6562 37.6563L30 40.0001C32.2296 40.0001 34.3475 39.2747 36.0854 37.9367V34.5688H32.7175C31.9158 35.0449 30.9836 35.3126 30 35.3126Z" fill="#0F9D58"/>
<path d="M25.4349 32.7139L22.0635 36.0853C22.3284 36.4293 22.6169 36.7588 22.929 37.071C24.8178 38.9597 27.329 39.9999 30.0001 39.9999V35.3124C28.0616 35.3124 26.3627 34.2687 25.4349 32.7139Z" fill="#31AA52"/>
<path d="M40 30C40 29.3916 39.9449 28.7821 39.8363 28.1884L39.7483 27.708H30V32.3955H34.7442C34.2835 33.312 33.5752 34.0596 32.7175 34.5689L36.0853 37.9367C36.4294 37.6718 36.7589 37.3833 37.0711 37.0711C38.9598 35.1823 40 32.6711 40 30Z" fill="#3C79E6"/>
<path d="M33.7565 26.2435L34.1708 26.6578L37.4854 23.3432L37.0711 22.9289C35.1823 21.0402 32.6711 20 30 20L27.6562 22.3438L30 24.6875C31.419 24.6875 32.7531 25.2401 33.7565 26.2435Z" fill="#CF2D48"/>
<path d="M30 24.6875V20C27.3289 20 24.8177 21.0402 22.9289 22.9289C22.6168 23.2411 22.3283 23.5705 22.0634 23.9146L25.4348 27.2861C26.3626 25.7312 28.0616 24.6875 30 24.6875Z" fill="#EB4132"/>
</svg>
