<svg width="36" height="33" viewBox="0 0 36 33" fill="none" xmlns="http://www.w3.org/2000/svg">
<path d="M28.9981 4.53645C28.9981 4.53645 29.7351 11.0571 15.4229 11.8234C7.64625 12.2392 0.199722 16.3519 3.32831 26.276C5.30941 22.6648 10.7779 14.9714 21.2491 15.4667C21.2491 15.4667 11.1397 15.9412 5.61433 27.9083C10.0713 29.5636 20.8611 32.5782 27.0238 25.855C35.1638 16.9716 28.9981 4.53645 28.9981 4.53645Z" fill="#649359"/>
<path d="M5.63821 27.8588C16.7426 27.1439 26.785 21.5716 31.1764 13.0656C30.8338 8.24971 28.9981 4.53645 28.9981 4.53645C28.9981 4.53645 29.7351 11.0571 15.4229 11.8234C7.64625 12.2392 0.199722 16.3519 3.32831 26.276C5.30941 22.6648 10.7779 14.9714 21.2491 15.4667C21.2486 15.4666 11.1687 15.941 5.63821 27.8588Z" fill="#96C18C"/>
<path d="M8.44174 10.3311C8.95233 10.4557 9.49369 10.2286 9.65089 9.82392C9.8081 9.41921 9.52163 8.99012 9.01105 8.86551C8.50046 8.74091 7.95911 8.96797 7.8019 9.37268C7.64469 9.77738 7.93116 10.2065 8.44174 10.3311Z" fill="#649359"/>
<path d="M11.7133 10.0981C12.078 10.1871 12.4646 10.0249 12.5769 9.73583C12.6892 9.44677 12.4846 9.14029 12.1199 9.05129C11.7552 8.96229 11.3686 9.12447 11.2563 9.41353C11.144 9.70259 11.3486 10.0091 11.7133 10.0981Z" fill="#96C18C"/>
<path d="M12.7455 5.7657C13.6572 5.9882 14.6238 5.58275 14.9046 4.86009C15.1853 4.13744 14.6737 3.37123 13.762 3.14873C12.8503 2.92622 11.8836 3.33168 11.6029 4.05433C11.3222 4.77699 11.8337 5.54319 12.7455 5.7657Z" fill="#96C18C"/>
<path d="M17.0168 9.1001C17.3086 9.1713 17.6179 9.04156 17.7077 8.8103C17.7976 8.57905 17.6339 8.33386 17.3421 8.26265C17.0504 8.19145 16.741 8.3212 16.6512 8.55245C16.5614 8.78371 16.7251 9.0289 17.0168 9.1001Z" fill="#96C18C"/>
<path d="M22.0515 8.60982C22.8903 8.81453 23.7797 8.44151 24.0379 7.77666C24.2962 7.11181 23.8256 6.4069 22.9868 6.20219C22.148 5.99749 21.2587 6.37051 21.0004 7.03536C20.7421 7.70021 21.2127 8.40512 22.0515 8.60982Z" fill="#96C18C"/>
</svg>
