<svg width="17" height="17" viewBox="0 0 17 17" fill="none" xmlns="http://www.w3.org/2000/svg">
<path d="M15.4921 9.3204C15.4921 13.5617 12.0535 16.9999 7.81233 16.9999C6.77188 16.9999 5.78007 16.793 4.87541 16.4181C2.40282 15.3938 0.581574 13.1151 0.205055 10.3759C0.157196 10.0309 0.132812 9.6785 0.132812 9.3204C0.132812 5.07883 3.57102 1.64062 7.81233 1.64062C12.0535 1.64062 15.4921 5.07883 15.4921 9.3204Z" fill="#2E7D78"/>
<path d="M7.81228 1.64062C7.40619 1.64062 7.00762 1.6724 6.61865 1.7331C10.2932 2.3065 13.1049 5.48479 13.1049 9.3204C13.1049 13.1555 10.2934 16.3336 6.61917 16.9073C7.00801 16.968 7.40632 16.9999 7.81215 16.9999C12.0535 16.9999 15.4921 13.5617 15.4921 9.3204C15.4921 5.07883 12.0535 1.64062 7.81228 1.64062Z" fill="#E6706D"/>
<path d="M16.4509 8.75277L12.0656 11.6566C11.7531 11.8636 11.3747 11.9457 11.0048 11.8866C10.634 11.8276 10.2546 11.9085 9.94135 12.1159L9.35446 12.5049L6.06787 7.66018L6.87421 4.1767C6.93686 3.9055 6.96786 3.63067 6.96786 3.35687C6.96786 2.64858 6.76073 1.9495 6.36346 1.34938C6.26579 1.20178 6.2191 1.03486 6.2191 0.870008C6.2191 0.5883 6.3558 0.31191 6.60846 0.144598C6.94892 -0.0809503 7.40015 -0.0390572 7.69327 0.245245L8.2157 0.751203C8.8131 1.33083 9.27392 2.03653 9.56328 2.81706L9.84654 3.57969L12.7636 1.65236C13.2295 1.34393 13.8597 1.47882 14.1572 1.95598C14.4441 2.41564 14.2968 3.02302 13.8448 3.32224C13.8393 3.32587 13.839 3.33171 13.8408 3.33612C13.8434 3.34092 13.8488 3.34416 13.8549 3.34157C13.9702 3.29721 14.0908 3.27568 14.2104 3.27568C14.4013 3.27568 14.5906 3.33067 14.7524 3.43534C14.864 3.50745 14.9628 3.6033 15.0408 3.72107C15.1913 3.94856 15.2362 4.21535 15.1869 4.46334C15.1096 4.85399 14.8257 5.05529 14.7699 5.09316C14.7605 5.09978 14.7579 5.11288 14.7645 5.12273C14.7645 5.12299 14.7649 5.12338 14.7651 5.12338C14.7714 5.1322 14.7841 5.13467 14.7932 5.12896C14.8727 5.10963 14.9536 5.10042 15.0345 5.10042C15.2321 5.10042 15.4286 5.15658 15.5956 5.26307C15.7086 5.33531 15.8085 5.43077 15.8858 5.54776C16.189 6.0056 16.0637 6.62271 15.6053 6.92608C15.5941 6.93373 15.5828 6.94138 15.5715 6.94865C15.565 6.95383 15.5631 6.96213 15.5664 6.96797C15.5671 6.9694 15.5686 6.97095 15.5701 6.9716C15.5751 6.97562 15.5832 6.97601 15.5898 6.97095C15.8745 6.87394 16.1843 6.91804 16.4336 7.07951C16.5484 7.15318 16.6502 7.2524 16.7307 7.37406C17.0341 7.83229 16.9087 8.4494 16.4509 8.75277Z" fill="#FDD7BD"/>
<path d="M9.39638 13.4243L7.54634 14.6494L4.87544 16.4182C2.40284 15.3938 0.581596 13.1155 0.205078 10.376L3.30464 8.32334L5.19151 7.07369C5.40876 6.92972 5.70188 6.98951 5.84585 7.20715L9.52984 12.7696C9.67381 12.9872 9.61402 13.2798 9.39638 13.4243Z" fill="#96C18C"/>
<path d="M9.39617 13.4243L7.54614 14.6494L3.30444 8.32334L5.19131 7.07369C5.40856 6.92972 5.70168 6.98951 5.84565 7.20715L9.52963 12.7695C9.6736 12.9872 9.61381 13.2798 9.39617 13.4243Z" fill="#6FC7FF"/>
<path d="M14.7523 3.43517L13.293 4.21609C13.086 4.32659 12.8294 4.26888 12.6902 4.08042L13.8406 3.33607C13.8432 3.34087 13.8487 3.34412 13.8548 3.34152C13.9701 3.29716 14.0907 3.27563 14.2103 3.27563C14.4013 3.27563 14.5904 3.33063 14.7523 3.43517Z" fill="#FAC5AA"/>
<path d="M15.5954 5.26299L14.1679 6.02627C13.9609 6.13716 13.7042 6.07958 13.5649 5.89112L14.7154 5.14664L14.7651 5.1233C14.7713 5.13212 14.784 5.13458 14.7931 5.12888C14.8726 5.10955 14.9535 5.10034 15.0344 5.10034C15.232 5.10034 15.4285 5.1565 15.5954 5.26299Z" fill="#FAC5AA"/>
<path d="M16.4335 7.07943L15.1762 7.75205C14.9695 7.86242 14.7129 7.80484 14.5732 7.61638L15.5699 6.97152C15.5751 6.97554 15.5831 6.97593 15.5896 6.97074C15.8743 6.87385 16.1841 6.91795 16.4335 7.07943Z" fill="#FAC5AA"/>
</svg>
