<svg width="16" height="16" viewBox="0 0 16 16" fill="none" xmlns="http://www.w3.org/2000/svg">
<path d="M16 8C16 5.79087 15.1046 3.79087 13.6568 2.34316C12.2091 0.895438 10.2091 0 8 0C5.79087 0 3.79087 0.895438 2.34316 2.34316C0.895438 3.79087 0 5.79087 0 8C0 8.16719 0.00571875 8.333 0.0164375 8.49744C0.0271563 8.66191 0.0428437 8.825 0.06275 8.98681H8H15.9373C15.9572 8.825 15.9728 8.66191 15.9836 8.49744C15.9943 8.333 16 8.16719 16 8Z" fill="#B2B2B2"/>
<path d="M0.0625 8.98682C0.305781 10.963 1.26912 12.7163 2.68212 13.9755C4.09512 15.2348 5.95781 16 7.99975 16C10.0417 16 11.9044 15.2348 13.3174 13.9755C14.7304 12.7163 15.6937 10.963 15.937 8.98682H7.99975H0.0625Z" fill="#92CEF1" fill-opacity="0.99"/>
<path d="M2.14307 4.39844V8.5045V12.6106H6.7885H11.4339V11.4449V10.2792H12.5997H13.7653V7.33878V4.39844H7.95422H2.14307Z" fill="white"/>
<path d="M11.4341 12.6106L12.5998 11.4449L13.7655 10.2792H12.5998H11.4341V11.4449V12.6106Z" fill="#EF4A8A"/>
<path d="M4.8023 5.81351C4.8023 6.02169 4.71793 6.21019 4.58149 6.34663C4.44505 6.48307 4.25659 6.56744 4.04837 6.56744C3.84018 6.56744 3.65168 6.48307 3.51525 6.34663C3.37881 6.21019 3.29443 6.02173 3.29443 5.81351C3.29443 5.60532 3.37881 5.41682 3.51525 5.28038C3.65168 5.14395 3.84015 5.05957 4.04837 5.05957C4.25655 5.05957 4.44505 5.14395 4.58149 5.28038C4.71793 5.41685 4.8023 5.60532 4.8023 5.81351Z" fill="#5488E2"/>
<path d="M4.04809 5.92959C3.95681 5.92959 3.87415 5.89259 3.81434 5.83277C3.75453 5.77296 3.71753 5.6903 3.71753 5.59902V4.65949V3.71997C3.71753 3.62869 3.75453 3.54603 3.81434 3.48622C3.87415 3.4264 3.95681 3.3894 4.04809 3.3894C4.13937 3.3894 4.22203 3.4264 4.28184 3.48622C4.34165 3.54603 4.37865 3.62869 4.37865 3.71997V4.65949V5.59902C4.37865 5.6903 4.34165 5.77296 4.28184 5.83277C4.22203 5.89259 4.13937 5.92959 4.04809 5.92959Z" fill="#EF4A8A"/>
<path d="M12.4517 5.81351C12.4517 6.02169 12.3673 6.21019 12.2309 6.34663C12.0945 6.48307 11.906 6.56744 11.6978 6.56744C11.4896 6.56744 11.3011 6.48307 11.1647 6.34663C11.0282 6.21019 10.9438 6.02173 10.9438 5.81351C10.9438 5.60532 11.0282 5.41682 11.1647 5.28038C11.3011 5.14395 11.4896 5.05957 11.6978 5.05957C11.906 5.05957 12.0945 5.14395 12.2309 5.28038C12.3673 5.41685 12.4517 5.60532 12.4517 5.81351Z" fill="#5488E2"/>
<path d="M11.6977 5.92959C11.6065 5.92959 11.5238 5.89259 11.464 5.83277C11.4042 5.77296 11.3672 5.6903 11.3672 5.59902V4.65949V3.71997C11.3672 3.62869 11.4042 3.54603 11.464 3.48622C11.5238 3.4264 11.6065 3.3894 11.6977 3.3894C11.789 3.3894 11.8717 3.4264 11.9315 3.48622C11.9913 3.54603 12.0283 3.62869 12.0283 3.71997V4.65949V5.59902C12.0283 5.6903 11.9913 5.77296 11.9315 5.83277C11.8717 5.89259 11.789 5.92959 11.6977 5.92959Z" fill="#EF4A8A"/>
<path d="M4.91286 8.39015H4.32998H3.74707V7.80724V7.22437H4.32998H4.91286V7.80724V8.39015Z" fill="#E8F3FC"/>
<path d="M6.8003 8.39015H6.21743H5.63452V7.80724V7.22437H6.21743H6.8003V7.80724V8.39015Z" fill="#E8F3FC"/>
<path d="M8.68771 8.39015H8.10484H7.52197V7.80724V7.22437H8.10484H8.68771V7.80724V8.39015Z" fill="#E8F3FC"/>
<path d="M10.5749 8.39015H9.99205H9.40918V7.80724V7.22437H9.99205H10.5749V7.80724V8.39015Z" fill="#E8F3FC"/>
<path d="M12.4626 8.39015H11.8797H11.2969V7.80724V7.22437H11.8797H12.4626V7.80724V8.39015Z" fill="#E8F3FC"/>
<path d="M4.91286 10.0027H4.32998H3.74707V9.41979V8.83691H4.32998H4.91286V9.41979V10.0027Z" fill="#E8F3FC"/>
<path d="M6.8003 10.0027H6.21743H5.63452V9.41979V8.83691H6.21743H6.8003V9.41979V10.0027Z" fill="#E8F3FC"/>
<path d="M8.68771 10.0027H8.10484H7.52197V9.41979V8.83691H8.10484H8.68771V9.41979V10.0027Z" fill="#E8F3FC"/>
<path d="M10.5749 10.0027H9.99205H9.40918V9.41979V8.83691H9.99205H10.5749V9.41979V10.0027Z" fill="#E8F3FC"/>
<path d="M12.4626 10.0027H11.8797H11.2969V9.41979V8.83691H11.8797H12.4626V9.41979V10.0027Z" fill="#E8F3FC"/>
</svg>
