<svg width="118" height="100" viewBox="0 0 118 100" fill="none" xmlns="http://www.w3.org/2000/svg">
<path d="M114.971 73.8077H99.4068V69.8424H114.969V63.084H114.971V73.8077ZM31.9187 73.8077H2.30347V10.0927H32.8181L18.7674 12.8394H2.33452V30.7989L2.30347 31.4293L2.33452 31.5072V31.5146H2.3375L3.50348 34.4371H114.971V62.0657H114.969V62.0612H114.825V58.3177H98.4376V58.3012H98.878V54.8412H95.3758V57.1978H94.8482V54.8412H91.3464V57.1978H90.8037V54.8412H87.3018V57.1978H86.7739V54.8412H83.2719V57.1978H82.6685V54.8412H79.1664V57.1978H78.6389V54.8412H75.1368V57.1978H74.5941V54.8412H71.0919V57.1802C70.7925 57.1444 70.6218 57.0398 70.6218 56.7397C70.6218 56.6018 70.6352 56.4488 70.5644 56.3454V54.8412H67.0627V58.3012H68.9136V58.3177H15.6505V58.3012H17.9674V56.0769C18.3804 55.488 18.6801 54.8135 18.8343 54.0855H17.9674V50.9302H14.4655V54.0855H9.89291V51.9106C10.2648 51.4983 10.5048 50.8482 10.5048 50.1168C10.5048 49.3856 10.2648 48.7354 9.89291 48.323V47.0189H9.26002V42.6565H9.89291V40.3717H10.4351V42.6565H13.9376V40.3717H14.4655V42.6565H17.9674V40.3717H18.5707V42.6565H22.0727V40.3717H22.6001V42.6565H26.102V40.3717H26.6451V42.6565H30.1468V40.3717H30.6744V42.6565H34.1767V39.1965H30.6744V39.2045H30.1468V39.1965H26.6451V39.2045H26.102V39.1965H22.6001V39.2045H22.0727V39.1965H18.5707V39.2045H17.9674V39.1965H14.4655V39.2045H13.9376V39.1965H10.4351V39.2045H9.89291V39.1965H6.39061V39.2045H5.86328V39.1965H2.36113V42.6565H5.86328V40.3717H6.39061V42.6565H8.63749V47.0189H6.39061V50.4788H7.4121C7.42952 50.6351 7.45806 50.7862 7.49635 50.9302H6.39061V54.3897H8.24425C8.58971 55.6548 9.37926 56.7363 10.4351 57.4566V58.3012H11.3545V58.3177H2.30347V66.2089H2.33452V69.8424H31.9036V66.2089H31.9187V73.8077ZM58.9879 55.8089V58.3012H62.49V54.8412H61.2613C61.2508 54.7473 61.2394 54.6538 61.2271 54.5608C61.2633 54.5044 61.2988 54.4473 61.3335 54.3897H62.49V50.9302H62.3409C62.3425 50.867 62.3434 50.8038 62.3434 50.7403C62.3434 50.6528 62.3418 50.5654 62.3386 50.4788H62.49V47.0189H61.2921C60.0709 45.0413 57.9054 43.7266 55.4373 43.7266C54.1255 43.7266 52.9015 44.102 51.8575 44.7475L52.5403 45.4305C53.2565 44.982 54.1077 44.7206 55.0226 44.7206C56.75 44.7206 58.2549 45.6478 59.0405 47.0189H58.9879V49.1949H58.4452V47.0189H54.9431V49.1949H52.801C51.4761 50.6712 50.5783 53.0671 50.4659 55.8089H58.9879ZM95.3758 40.4692V42.6565H98.878V39.1965H95.3758V39.302H94.8482V39.1965H91.3464V39.302H90.8037V39.1965H87.3018V39.302H86.7739V39.1965H83.2719V39.302H82.6685V39.1965H79.1664V39.302H78.6389V39.1965H75.1368V39.302H74.5941V39.1965H71.0919V39.302H70.5644V39.1965H67.0627V42.6565H70.5644V40.4692H71.0919V42.6565H74.5941V40.4692H75.1368V42.6565H78.6389V40.4692H79.1664V42.6565H82.6685V40.4692H83.2719V42.6565H86.7739V40.4692H87.3018V42.6565H90.8037V40.4692H91.3464V42.6565H94.8482V40.4692H95.3758ZM37.3878 27.529H34.9724V27.5289H37.388L37.3878 27.529ZM34.9724 26.764V15.9081H37.5014V12.99L34.5979 10.0927H44.0618V20.6206H43.9972L34.9724 26.764ZM66.725 25.4491L56.9568 20.6155V10.24H54.761V10.0927H114.971V12.8394H113.162L113.849 10.339L100.031 12.8394H99.4312V12.9479L98.6285 13.0932V12.8394H66.725V25.4491Z" fill="#FCDB78"/>
<path d="M37.5014 15.9082V12.99L34.3063 9.80173L3.06879 15.9082L2.30347 31.4293L3.50348 34.4371H114.976V15.9082H113.12V12.99L113.849 10.3391L83.0721 15.9082L69.6399 29.2112L71.1319 27.6299L56.9568 20.6155V10.24H51.1115L47.7505 20.1771L34.9724 29.2427V15.9082H37.5014Z" fill="#E76B46"/>
<path d="M2.30347 66.2089H114.825V58.3177H2.30347V66.2089Z" fill="#FAB413"/>
<path d="M2.36108 42.6564H5.86323V39.1964H2.36108V42.6564Z" fill="#FEF4BC"/>
<path d="M5.86323 46.5675V43.1077H2.36108V46.5675H5.86323Z" fill="#FEF4BC"/>
<path d="M5.86323 50.4788V47.0189H2.36108V50.4788H5.86323Z" fill="#FEF4BC"/>
<path d="M5.86323 54.3896V50.9301H2.36108V54.3896H5.86323Z" fill="#FEF4BC"/>
<path d="M5.86323 58.3011V54.8412H2.36108V58.3011H5.86323Z" fill="#FEF4BC"/>
<path d="M6.39062 42.6564H9.89295V39.1964H6.39062V42.6564Z" fill="#FEF4BC"/>
<path d="M9.89293 46.5675V43.1077H6.39062V46.5675H9.89293Z" fill="#FEF4BC"/>
<path d="M6.39062 50.4788H9.89295V47.0189H6.39062V50.4788Z" fill="#FEF4BC"/>
<path d="M6.39062 54.3896H9.89295V50.9301H6.39062V54.3896Z" fill="#FEF4BC"/>
<path d="M9.89293 58.3011V54.8412H6.39062V58.3011H9.89293Z" fill="#FEF4BC"/>
<path d="M10.4351 42.6564H13.9376V39.1964H10.4351V42.6564Z" fill="#FEF4BC"/>
<path d="M13.9376 46.5675V43.1077H10.4351V46.5675H13.9376Z" fill="#FEF4BC"/>
<path d="M13.9376 50.4788V47.0189H10.4351V50.4788H13.9376Z" fill="#FEF4BC"/>
<path d="M13.9376 54.3896V50.9301H10.4351V54.3896H13.9376Z" fill="#FEF4BC"/>
<path d="M10.4351 58.3011H13.9376V54.8412H10.4351V58.3011Z" fill="#FEF4BC"/>
<path d="M14.4656 42.6564H17.9675V39.1964H14.4656V42.6564Z" fill="#FEF4BC"/>
<path d="M17.9675 46.5675V43.1077H14.4656V46.5675H17.9675Z" fill="#FEF4BC"/>
<path d="M17.9675 50.4788V47.0189H14.4656V50.4788H17.9675Z" fill="#FEF4BC"/>
<path d="M14.4656 54.3896H17.9675V50.9301H14.4656V54.3896Z" fill="#FEF4BC"/>
<path d="M14.4656 58.3011H17.9675V54.8412H14.4656V58.3011Z" fill="#FEF4BC"/>
<path d="M18.5706 42.6564H22.0726V39.1964H18.5706V42.6564Z" fill="#FEF4BC"/>
<path d="M18.5706 43.1077V46.5675H22.0726V43.1077H18.5706Z" fill="#FEF4BC"/>
<path d="M18.5706 47.0189V50.4788H22.0726V47.0189H18.5706Z" fill="#FEF4BC"/>
<path d="M18.5706 50.9301V54.3896H22.0726V50.9301H18.5706Z" fill="#FEF4BC"/>
<path d="M18.5706 54.8412V58.3011H22.0726V54.8412H18.5706Z" fill="#FEF4BC"/>
<path d="M22.6001 42.6564H26.102V39.1964H22.6001V42.6564Z" fill="#FEF4BC"/>
<path d="M22.6001 43.1077V46.5675H26.102V43.1077H22.6001Z" fill="#FEF4BC"/>
<path d="M22.6001 47.0189V50.4788H26.102V47.0189H22.6001Z" fill="#FEF4BC"/>
<path d="M22.6001 50.9301V54.3896H26.102V50.9301H22.6001Z" fill="#FEF4BC"/>
<path d="M22.6001 54.8412V58.3011H26.102V54.8412H22.6001Z" fill="#FEF4BC"/>
<path d="M26.645 42.6564H30.1468V39.1964H26.645V42.6564Z" fill="#FEF4BC"/>
<path d="M26.645 43.1077V46.5675H30.1468V43.1077H26.645Z" fill="#FEF4BC"/>
<path d="M26.645 47.0189V50.4788H30.1468V47.0189H26.645Z" fill="#FEF4BC"/>
<path d="M26.645 50.9301V54.3896H30.1468V50.9301H26.645Z" fill="#FEF4BC"/>
<path d="M26.645 54.8412V58.3011H30.1468V54.8412H26.645Z" fill="#FEF4BC"/>
<path d="M30.6743 42.6564H34.1767V39.1964H30.6743V42.6564Z" fill="#FEF4BC"/>
<path d="M30.6743 43.1077V46.5675H34.1767V43.1077H30.6743Z" fill="#FEF4BC"/>
<path d="M30.6743 47.0189V50.4788H34.1767V47.0189H30.6743Z" fill="#FEF4BC"/>
<path d="M30.6743 50.9301V54.3896H34.1767V50.9301H30.6743Z" fill="#FEF4BC"/>
<path d="M30.6743 54.8412V58.3011H34.1767V54.8412H30.6743Z" fill="#FEF4BC"/>
<path d="M30.6744 40.3717H30.1468V39.2045H30.6744V40.3717ZM26.6451 40.3717H26.102V39.2045H26.6451V40.3717ZM22.6001 40.3717H22.0727V39.2045H22.6001V40.3717ZM18.5707 40.3717H17.9675V39.2045H18.5707V40.3717ZM14.4655 40.3717H13.9376V39.2045H14.4655V40.3717ZM10.4351 40.3717H9.89292V39.2045H10.4351V40.3717ZM6.39061 40.3717H5.86328V39.2045H6.39061V40.3717Z" fill="#FCE592"/>
<path d="M5.86334 40.3717H3.50153C3.17959 40.3717 2.91797 40.1104 2.91797 39.7881C2.91797 39.4658 3.17959 39.2045 3.50153 39.2045H5.86334V40.3717Z" fill="#FEF4BC"/>
<path d="M9.89293 40.3717H9.26003V40.1566H8.63751V40.3717H6.39062V39.2045H9.89293V40.3717Z" fill="#FEF4BC"/>
<path d="M10.4351 40.3717H13.9376V39.2045H10.4351V40.3717Z" fill="#FEF4BC"/>
<path d="M14.4656 40.3717H17.9675V39.2045H14.4656V40.3717Z" fill="#FEF4BC"/>
<path d="M18.5706 40.3717H22.0726V39.2045H18.5706V40.3717Z" fill="#FEF4BC"/>
<path d="M22.6001 40.3717H26.102V39.2045H22.6001V40.3717Z" fill="#FEF4BC"/>
<path d="M26.645 40.3717H30.1468V39.2045H26.645V40.3717Z" fill="#FEF4BC"/>
<path d="M30.7363 40.3717H30.6743V39.2045H30.7363C31.0585 39.2045 31.3199 39.4658 31.3199 39.7881C31.3199 40.1104 31.0585 40.3717 30.7363 40.3717Z" fill="#FEF4BC"/>
<path d="M34.7046 39.1964V42.6564H38.2064V39.1964H34.7046Z" fill="#FEF4BC"/>
<path d="M34.7046 43.1077V46.5675H38.2064V43.1077H34.7046Z" fill="#FEF4BC"/>
<path d="M34.7046 47.0189V50.4788H38.2064V47.0189H34.7046Z" fill="#FEF4BC"/>
<path d="M34.7046 50.9301V54.3896H38.2064V50.9301H34.7046Z" fill="#FEF4BC"/>
<path d="M34.7046 54.8412V58.3011H38.2064V54.8412H34.7046Z" fill="#FEF4BC"/>
<path d="M38.7339 39.1964V42.6564H42.2356V39.1964H38.7339Z" fill="#FEF4BC"/>
<path d="M38.7339 43.1077V46.5675H42.2356V43.1077H38.7339Z" fill="#FEF4BC"/>
<path d="M38.7339 47.0189V50.4788H42.2356V47.0189H38.7339Z" fill="#FEF4BC"/>
<path d="M38.7339 50.9301V54.3896H42.2356V50.9301H38.7339Z" fill="#FEF4BC"/>
<path d="M38.7339 54.8412V58.3011H42.2356V54.8412H38.7339Z" fill="#FEF4BC"/>
<path d="M42.7786 39.1964V42.6564H46.2809V39.1964H42.7786Z" fill="#FEF4BC"/>
<path d="M42.7786 43.1077V46.5675H46.2809V43.1077H42.7786Z" fill="#FEF4BC"/>
<path d="M42.7786 47.0189V50.4788H46.2809V47.0189H42.7786Z" fill="#FEF4BC"/>
<path d="M42.7786 50.9301V54.3896H46.2809V50.9301H42.7786Z" fill="#FEF4BC"/>
<path d="M42.7786 54.8412V58.3011H46.2809V54.8412H42.7786Z" fill="#FEF4BC"/>
<path d="M46.8086 39.1964V42.6564H50.3105V39.1964H46.8086Z" fill="#FEF4BC"/>
<path d="M46.8086 43.1077V46.5675H50.3105V43.1077H46.8086Z" fill="#FEF4BC"/>
<path d="M46.8086 47.0189V50.4788H50.3105V47.0189H46.8086Z" fill="#FEF4BC"/>
<path d="M46.8086 50.9301V54.3896H50.3105V50.9301H46.8086Z" fill="#FEF4BC"/>
<path d="M46.8086 54.8412V58.3011H50.3105V54.8412H46.8086Z" fill="#FEF4BC"/>
<path d="M50.9133 39.1964V42.6564H54.4158V39.1964H50.9133Z" fill="#FEF4BC"/>
<path d="M50.9133 43.1077V46.5675H54.4158V43.1077H50.9133Z" fill="#FEF4BC"/>
<path d="M50.9133 47.0189V50.4788H54.4158V47.0189H50.9133Z" fill="#FEF4BC"/>
<path d="M50.9133 50.9301V54.3896H54.4158V50.9301H50.9133Z" fill="#FEF4BC"/>
<path d="M50.9133 54.8412V58.3011H54.4158V54.8412H50.9133Z" fill="#FEF4BC"/>
<path d="M58.4452 39.1964H54.9431V42.6564H58.4452V39.1964Z" fill="#FEF4BC"/>
<path d="M58.4452 43.1077H54.9431V46.5675H58.4452V43.1077Z" fill="#FEF4BC"/>
<path d="M54.9431 50.4788H58.4451V47.0189H54.9431V50.4788Z" fill="#FEF4BC"/>
<path d="M54.9431 54.3896H58.4451V50.9301H54.9431V54.3896Z" fill="#FEF4BC"/>
<path d="M58.4452 54.8412H54.9431V58.3011H58.4452V54.8412Z" fill="#FEF4BC"/>
<path d="M58.9878 39.1964V42.6564H62.4899V39.1964H58.9878Z" fill="#FEF4BC"/>
<path d="M58.9878 43.1077V46.5675H62.4899V43.1077H58.9878Z" fill="#FEF4BC"/>
<path d="M58.9878 50.4788H62.4899V47.0189H58.9878V50.4788Z" fill="#FEF4BC"/>
<path d="M58.9878 54.3896H62.4899V50.9301H58.9878V54.3896Z" fill="#FEF4BC"/>
<path d="M58.9878 58.3011H62.4899V54.8412H58.9878V58.3011Z" fill="#FEF4BC"/>
<path d="M63.0176 39.1964V42.6564H66.5195V39.1964H63.0176Z" fill="#FEF4BC"/>
<path d="M63.0176 43.1077V46.5675H66.5195V43.1077H63.0176Z" fill="#FEF4BC"/>
<path d="M63.0176 47.0189V50.4788H66.5195V47.0189H63.0176Z" fill="#FEF4BC"/>
<path d="M63.0176 50.9301V54.3896H66.5195V50.9301H63.0176Z" fill="#FEF4BC"/>
<path d="M63.0176 54.8412V58.3011H66.5195V54.8412H63.0176Z" fill="#FEF4BC"/>
<path d="M67.0627 42.6564H70.5644V39.1964H67.0627V42.6564Z" fill="#FEF4BC"/>
<path d="M67.0627 43.1077V46.5675H70.5645V43.1077H67.0627Z" fill="#FEF4BC"/>
<path d="M67.0627 47.0189V50.4788H70.5645V47.0189H67.0627Z" fill="#FEF4BC"/>
<path d="M67.0627 50.9301V54.3896H70.5645V50.9301H67.0627Z" fill="#FEF4BC"/>
<path d="M67.0627 58.3011H70.5644V54.8412H67.0627V58.3011Z" fill="#FEF4BC"/>
<path d="M71.0918 42.6564H74.594V39.1964H71.0918V42.6564Z" fill="#FEF4BC"/>
<path d="M71.0918 43.1077V46.5675H74.594V43.1077H71.0918Z" fill="#FEF4BC"/>
<path d="M71.0918 47.0189V50.4788H74.594V47.0189H71.0918Z" fill="#FEF4BC"/>
<path d="M71.0918 50.9301V54.3896H74.594V50.9301H71.0918Z" fill="#FEF4BC"/>
<path d="M71.0918 58.3011H74.594V54.8412H71.0918V58.3011Z" fill="#FEF4BC"/>
<path d="M75.1367 42.6564H78.6387V39.1964H75.1367V42.6564Z" fill="#FEF4BC"/>
<path d="M78.6389 43.1077H75.137V46.5675H78.6389V43.1077Z" fill="#FEF4BC"/>
<path d="M78.6389 47.0189H75.137V50.4788H78.6389V47.0189Z" fill="#FEF4BC"/>
<path d="M78.6389 50.9301H75.137V54.3896H78.6389V50.9301Z" fill="#FEF4BC"/>
<path d="M75.1367 58.3011H78.6387V54.8412H75.1367V58.3011Z" fill="#FEF4BC"/>
<path d="M79.1665 42.6564H82.6686V39.1964H79.1665V42.6564Z" fill="#FEF4BC"/>
<path d="M82.6686 43.1077H79.1665V46.5675H82.6686V43.1077Z" fill="#FEF4BC"/>
<path d="M82.6686 47.0189H79.1665V50.4788H82.6686V47.0189Z" fill="#FEF4BC"/>
<path d="M82.6686 50.9301H79.1665V54.3896H82.6686V50.9301Z" fill="#FEF4BC"/>
<path d="M79.1665 58.3011H82.6686V54.8412H79.1665V58.3011Z" fill="#FEF4BC"/>
<path d="M83.2717 42.6564H86.7738V39.1964H83.2717V42.6564Z" fill="#FEF4BC"/>
<path d="M83.2717 43.1077V46.5675H86.7738V43.1077H83.2717Z" fill="#FEF4BC"/>
<path d="M83.2717 47.0189V50.4788H86.7738V47.0189H83.2717Z" fill="#FEF4BC"/>
<path d="M83.2717 50.9301V54.3896H86.7738V50.9301H83.2717Z" fill="#FEF4BC"/>
<path d="M83.2717 58.3011H86.7738V54.8412H83.2717V58.3011Z" fill="#FEF4BC"/>
<path d="M87.3018 42.6564H90.8037V39.1964H87.3018V42.6564Z" fill="#FEF4BC"/>
<path d="M87.3018 43.1077V46.5675H90.8037V43.1077H87.3018Z" fill="#FEF4BC"/>
<path d="M87.3018 47.0189V50.4788H90.8037V47.0189H87.3018Z" fill="#FEF4BC"/>
<path d="M87.3018 50.9301V54.3896H90.8037V50.9301H87.3018Z" fill="#FEF4BC"/>
<path d="M87.3018 58.3011H90.8037V54.8412H87.3018V58.3011Z" fill="#FEF4BC"/>
<path d="M91.3464 42.6564H94.8482V39.1964H91.3464V42.6564Z" fill="#FEF4BC"/>
<path d="M94.8482 43.1077H91.3464V46.5675H94.8482V43.1077Z" fill="#FEF4BC"/>
<path d="M94.8482 47.0189H91.3464V50.4788H94.8482V47.0189Z" fill="#FEF4BC"/>
<path d="M94.8482 50.9301H91.3464V54.3896H94.8482V50.9301Z" fill="#FEF4BC"/>
<path d="M91.3464 58.3011H94.8482V54.8412H91.3464V58.3011Z" fill="#FEF4BC"/>
<path d="M95.3757 42.6564H98.8779V39.1964H95.3757V42.6564Z" fill="#FEF4BC"/>
<path d="M95.3757 43.1077V46.5675H98.8778V43.1077H95.3757Z" fill="#FEF4BC"/>
<path d="M95.3757 47.0189V50.4788H98.8778V47.0189H95.3757Z" fill="#FEF4BC"/>
<path d="M95.3757 50.9301V54.3896H98.8778V50.9301H95.3757Z" fill="#FEF4BC"/>
<path d="M95.3757 58.3011H98.8779V54.8412H95.3757V58.3011Z" fill="#FEF4BC"/>
<path d="M102.93 39.1964H99.428V42.6564H102.93V39.1964Z" fill="#FEF4BC"/>
<path d="M5.86323 38.6753V35.2155H2.36108V38.6753H5.86323Z" fill="#FEF4BC"/>
<path d="M9.89293 38.6753V35.2155H6.39062V38.6753H9.89293Z" fill="#FEF4BC"/>
<path d="M13.9376 38.6753V35.2155H10.4351V38.6753H13.9376Z" fill="#FEF4BC"/>
<path d="M17.9675 38.6753V35.2155H14.4656V38.6753H17.9675Z" fill="#FEF4BC"/>
<path d="M18.5706 35.2155V38.6753H22.0726V35.2155H18.5706Z" fill="#FEF4BC"/>
<path d="M22.6001 35.2155V38.6753H26.102V35.2155H22.6001Z" fill="#FEF4BC"/>
<path d="M26.645 35.2155V38.6753H30.1468V35.2155H26.645Z" fill="#FEF4BC"/>
<path d="M30.6743 35.2155V38.6753H34.1767V35.2155H30.6743Z" fill="#FEF4BC"/>
<path d="M34.7046 35.2155V38.6753H38.2064V35.2155H34.7046Z" fill="#FEF4BC"/>
<path d="M38.7339 35.2155V38.6753H42.2356V35.2155H38.7339Z" fill="#FEF4BC"/>
<path d="M42.7786 35.2155V38.6753H46.2809V35.2155H42.7786Z" fill="#FEF4BC"/>
<path d="M46.8086 35.2155V38.6753H50.3105V35.2155H46.8086Z" fill="#FEF4BC"/>
<path d="M50.9133 35.2155V38.6753H54.4158V35.2155H50.9133Z" fill="#FEF4BC"/>
<path d="M58.4452 35.2155H54.9431V38.6753H58.4452V35.2155Z" fill="#FEF4BC"/>
<path d="M58.9878 35.2155V38.6753H62.4899V35.2155H58.9878Z" fill="#FEF4BC"/>
<path d="M63.0176 35.2155V38.6753H66.5195V35.2155H63.0176Z" fill="#FEF4BC"/>
<path d="M67.0627 35.2155V38.6753H70.5645V35.2155H67.0627Z" fill="#FEF4BC"/>
<path d="M71.0918 35.2155V38.6753H74.594V35.2155H71.0918Z" fill="#FEF4BC"/>
<path d="M78.6389 35.2155H75.137V38.6753H78.6389V35.2155Z" fill="#FEF4BC"/>
<path d="M82.6686 35.2155H79.1665V38.6753H82.6686V35.2155Z" fill="#FEF4BC"/>
<path d="M83.2717 35.2155V38.6753H86.7738V35.2155H83.2717Z" fill="#FEF4BC"/>
<path d="M87.3018 35.2155V38.6753H90.8037V35.2155H87.3018Z" fill="#FEF4BC"/>
<path d="M94.8482 35.2155H91.3464V38.6753H94.8482V35.2155Z" fill="#FEF4BC"/>
<path d="M95.3757 35.2155V38.6753H98.8778V35.2155H95.3757Z" fill="#FEF4BC"/>
<path d="M102.93 35.2155H99.428V38.6753H102.93V35.2155Z" fill="#FEF4BC"/>
<path d="M102.93 43.1077H99.428V46.5675H102.93V43.1077Z" fill="#FEF4BC"/>
<path d="M102.93 47.0189H99.428V50.4788H102.93V47.0189Z" fill="#FEF4BC"/>
<path d="M102.93 50.9301H99.428V54.3896H102.93V50.9301Z" fill="#FEF4BC"/>
<path d="M102.93 54.8412H99.428V58.3011H102.93V54.8412Z" fill="#FEF4BC"/>
<path d="M103.553 39.1964V42.6564H107.055V39.1964H103.553Z" fill="#FEF4BC"/>
<path d="M103.553 43.1077V46.5675H107.055V43.1077H103.553Z" fill="#FEF4BC"/>
<path d="M103.553 47.0189V50.4788H107.055V47.0189H103.553Z" fill="#FEF4BC"/>
<path d="M103.553 50.9301V54.3896H107.055V50.9301H103.553Z" fill="#FEF4BC"/>
<path d="M103.553 54.8412V58.3011H107.055V54.8412H103.553Z" fill="#FEF4BC"/>
<path d="M107.583 39.1964V42.6564H111.085V39.1964H107.583Z" fill="#FEF4BC"/>
<path d="M107.583 43.1077V46.5675H111.085V43.1077H107.583Z" fill="#FEF4BC"/>
<path d="M107.583 47.0189V50.4788H111.085V47.0189H107.583Z" fill="#FEF4BC"/>
<path d="M107.583 50.9301V54.3896H111.085V50.9301H107.583Z" fill="#FEF4BC"/>
<path d="M107.583 54.8412V58.3011H111.085V54.8412H107.583Z" fill="#FEF4BC"/>
<path d="M111.635 39.1964V42.6564H115.137V39.1964H111.635Z" fill="#FEF4BC"/>
<path d="M103.553 35.2155V38.6753H107.055V35.2155H103.553Z" fill="#FEF4BC"/>
<path d="M107.583 35.2155V38.6753H111.085V35.2155H107.583Z" fill="#FEF4BC"/>
<path d="M111.635 35.2155V38.6753H115.137V35.2155H111.635Z" fill="#FEF4BC"/>
<path d="M111.635 43.1077V46.5675H115.137V43.1077H111.635Z" fill="#FEF4BC"/>
<path d="M111.635 47.0189V50.4788H115.137V47.0189H111.635Z" fill="#FEF4BC"/>
<path d="M111.635 50.9301V54.3896H115.137V50.9301H111.635Z" fill="#FEF4BC"/>
<path d="M111.635 54.8412V58.3011H115.137V54.8412H111.635Z" fill="#FEF4BC"/>
<path d="M64.9741 97.2765H66.7251V61.672H64.9741V97.2765Z" fill="#F57A14"/>
<path d="M31.9187 97.2765H34.2229V61.672H31.9187V97.2765Z" fill="#F57A14"/>
<path d="M98.4338 12.8393V31.5144H99.6011V12.8393H98.4338Z" fill="#F57A14"/>
<path d="M81.9966 48.3484V47.3746C81.9966 46.0334 80.9055 44.9421 79.5643 44.9421H78.3004C76.9594 44.9421 75.8679 46.0334 75.8679 47.3746V57.7814H77.4244V47.3746C77.4244 46.8915 77.8175 46.4984 78.3004 46.4984H79.5643C80.0473 46.4984 80.4403 46.8915 80.4403 47.3746V48.3484H81.9966Z" fill="#5184BA"/>
<path d="M77.7165 53.4588H75.7217V57.7814H77.7165V53.4588Z" fill="#235255"/>
<path d="M78.1052 55.0111C78.2662 55.0111 78.397 54.8803 78.397 54.7193C78.397 54.5578 78.2662 54.4276 78.1052 54.4276H75.1871C75.0261 54.4276 74.8953 54.5578 74.8953 54.7193C74.8953 54.8803 75.0261 55.0111 75.1871 55.0111H78.1052Z" fill="#235255"/>
<path d="M74.312 55.692C74.8492 55.692 75.2845 55.2564 75.2845 54.7194C75.2845 54.1823 74.8492 53.7466 74.312 53.7466H74.117C73.58 53.7466 73.1445 54.1823 73.1445 54.7194C73.1445 55.2564 73.58 55.692 74.117 55.692H74.312Z" fill="#235255"/>
<path d="M79.175 55.692C79.7124 55.692 80.1478 55.2564 80.1478 54.7194C80.1478 54.1823 79.7124 53.7466 79.175 53.7466H78.9806C78.4434 53.7466 78.0078 54.1823 78.0078 54.7194C78.0078 55.2564 78.4434 55.692 78.9806 55.692H79.175Z" fill="#235255"/>
<path d="M81.8988 48.8328C82.1137 48.8328 82.2878 48.6586 82.2878 48.4438C82.2878 48.2289 82.1137 48.0548 81.8988 48.0548H80.5372C80.3221 48.0548 80.1479 48.2289 80.1479 48.4438C80.1479 48.6586 80.3221 48.8328 80.5372 48.8328H81.8988Z" fill="#235255"/>
<path d="M29.18 5.58232C29.18 5.35888 28.9989 5.17768 28.7758 5.17768H27.4004V5.98682H28.7758C28.9989 5.98682 29.18 5.80576 29.18 5.58232Z" fill="#2E7D78"/>
<path d="M16.5596 5.98682H17.9347V5.17768H16.5596C16.336 5.17768 16.1548 5.35888 16.1548 5.58232C16.1548 5.80576 16.336 5.98682 16.5596 5.98682Z" fill="#2E7D78"/>
<path d="M26.1456 9.95166C26.9055 9.95166 27.5219 9.33543 27.5219 8.57568V2.91262H17.8135V8.57568C17.8135 9.33543 18.4296 9.95166 19.1893 9.95166H26.1456Z" fill="#5184BA"/>
<path d="M26.1456 1.05117H19.1893C18.4296 1.05117 17.8135 1.66712 17.8135 2.42715V2.9126H27.5219V2.42715C27.5219 1.66712 26.9055 1.05117 26.1456 1.05117Z" fill="#FAC00A"/>
<path d="M27.926 3.72156C28.1495 3.72156 28.3307 3.54035 28.3307 3.31706C28.3307 3.09363 28.1495 2.91256 27.926 2.91256H17.4089C17.1853 2.91256 17.0044 3.09363 17.0044 3.31706C17.0044 3.54035 17.1853 3.72156 17.4089 3.72156H27.926Z" fill="#3C5A74"/>
<path d="M22.6674 4.14848e-05C22.4443 4.14848e-05 22.2629 0.181252 22.2629 0.404688V1.05176H23.0722V0.404688C23.0722 0.181252 22.8907 4.14848e-05 22.6674 4.14848e-05Z" fill="#EF3028"/>
<path d="M21.1413 9.95166H19.5828L25.0031 3.72161H26.5615L21.1413 9.95166Z" fill="#7FA7B9"/>
<path d="M90.1009 6.57679C90.1009 6.34122 89.91 6.15038 89.6745 6.15038H88.2253V7.00305H89.6745C89.91 7.00305 90.1009 6.8122 90.1009 6.57679Z" fill="#2E7D78"/>
<path d="M74.0258 7.00305V6.15038H72.5762C72.3406 6.15038 72.1499 6.34122 72.1499 6.57679C72.1499 6.8122 72.3406 7.00305 72.5762 7.00305H74.0258Z" fill="#2E7D78"/>
<path d="M86.9029 9.95166C87.7037 9.95166 88.3529 9.30225 88.3529 8.50145V4.44921H73.8984V8.50145C73.8984 9.30225 74.5471 9.95166 75.3482 9.95166H86.9029Z" fill="#5184BA"/>
<path d="M88.3511 4.44913L88.3528 4.48157V4.44913H88.3511Z" fill="#FAC00A"/>
<path d="M73.8984 4.48157L73.9 4.44913H73.8984V4.48157Z" fill="#FAC00A"/>
<path d="M86.9027 3.03144H75.3481C74.5581 3.03144 73.9173 3.66347 73.8999 4.44922H88.3511C88.3337 3.66347 87.6926 3.03144 86.9027 3.03144Z" fill="#FAC00A"/>
<path d="M88.7794 5.30164C89.0149 5.30164 89.2056 5.11079 89.2056 4.87537C89.2056 4.63995 89.0149 4.4491 88.7794 4.4491H73.4714C73.2365 4.4491 73.0452 4.63995 73.0452 4.87537C73.0452 5.11079 73.2365 5.30164 73.4714 5.30164H88.7794Z" fill="#3C5A74"/>
<path d="M81.1781 1.92369C80.9427 1.92369 80.752 2.11454 80.752 2.35011V3.0321H81.6046V2.35011C81.6046 2.11454 81.4135 1.92369 81.1781 1.92369Z" fill="#EF3028"/>
<path d="M79.5597 9.95166H76.6118L80.9172 5.30174H83.8652L79.5597 9.95166Z" fill="#7FA7B9"/>
<path d="M82.3414 9.95166H81.1782L85.4836 5.30174H86.6468L82.3414 9.95166Z" fill="#7FA7B9"/>
<path d="M108.705 7.39121C108.705 7.15594 108.514 6.96494 108.279 6.96494H102.001V7.81763H108.279C108.514 7.81763 108.705 7.62678 108.705 7.39121Z" fill="#AEC5E9"/>
<path d="M100.679 9.95166C101.479 9.95166 102.128 9.30225 102.128 8.50145V5.5978H94.356V8.50145C94.356 9.30225 95.0049 9.95166 95.8059 9.95166H100.679Z" fill="#5184BA"/>
<path d="M109.563 7.39124C109.563 7.00852 109.253 6.69844 108.87 6.69844H105.894V8.08435H108.87C109.253 8.08435 109.563 7.77411 109.563 7.39124Z" fill="#4A3A49"/>
<path d="M102.555 6.45044C102.791 6.45044 102.981 6.25959 102.981 6.02402C102.981 5.7886 102.791 5.59776 102.555 5.59776H93.9292C93.6941 5.59776 93.5029 5.7886 93.5029 6.02402C93.5029 6.25959 93.6941 6.45044 93.9292 6.45044H102.555Z" fill="#3C5A74"/>
<path d="M97.3431 9.95166H96.0051L98.761 6.45048H100.099L97.3431 9.95166Z" fill="#7FA7B9"/>
<path d="M98.8926 9.95166H98.3477L101.103 6.45048H101.648L98.8926 9.95166Z" fill="#7FA7B9"/>
<path d="M13.0459 7.30427V8.1134H14.4213C14.6447 8.1134 14.8258 7.93219 14.8258 7.70876C14.8258 7.48532 14.6447 7.30427 14.4213 7.30427H13.0459Z" fill="#2E7D78"/>
<path d="M3.92725 7.70876C3.92725 7.93219 4.10819 8.1134 4.33178 8.1134H5.70662V7.30427H4.33178C4.10819 7.30427 3.92725 7.48532 3.92725 7.70876Z" fill="#2E7D78"/>
<path d="M6.9618 9.95166H11.7914C12.5513 9.95166 13.1674 9.33543 13.1674 8.57568V5.74803H5.58594V8.57568C5.58594 9.33543 6.20185 9.95166 6.9618 9.95166Z" fill="#5184BA"/>
<path d="M13.1672 5.74802H13.165C13.1655 5.76351 13.1672 5.77855 13.1672 5.79419V5.74802Z" fill="#FAC00A"/>
<path d="M6.96166 4.41812C6.21736 4.41812 5.61268 5.00967 5.58813 5.74792H13.1651C13.1406 5.00967 12.5356 4.41812 11.7913 4.41812H6.96166Z" fill="#FAC00A"/>
<path d="M5.58822 5.74802H5.58594V5.79419C5.58594 5.77855 5.58782 5.76351 5.58822 5.74802Z" fill="#FAC00A"/>
<path d="M5.18108 5.74802C4.95772 5.74802 4.77637 5.92907 4.77637 6.15251C4.77637 6.3758 4.95772 6.55701 5.18108 6.55701H13.5719C13.795 6.55701 13.9765 6.3758 13.9765 6.15251C13.9765 5.92907 13.795 5.74802 13.5719 5.74802H5.18108Z" fill="#3C5A74"/>
<path d="M8.97192 3.77173V4.41895H9.78106V3.77173C9.78106 3.54829 9.59956 3.36724 9.37613 3.36724C9.15298 3.36724 8.97192 3.54829 8.97192 3.77173Z" fill="#EF3028"/>
<path d="M8.30994 9.95166H6.83887L6.84325 9.94669C6.88224 9.94991 6.92175 9.95166 6.96165 9.95166H8.30994Z" fill="#FFFCEF"/>
<path d="M8.30995 9.95166H6.96166C6.92176 9.95166 6.88225 9.94991 6.84326 9.94669L9.78106 6.55701H11.252L8.30995 9.95166Z" fill="#7FA7B9"/>
<path d="M9.89458 9.95166H9.04541L11.9876 6.55701H12.8367L9.89458 9.95166Z" fill="#7FA7B9"/>
<path d="M2.91797 39.1062C2.91797 39.4285 3.17959 39.6898 3.50153 39.6898H30.7364C31.0586 39.6898 31.32 39.4285 31.32 39.1062C31.32 38.7839 31.0586 38.5227 30.7364 38.5227H3.50153C3.17959 38.5227 2.91797 38.7839 2.91797 39.1062Z" fill="#AEC5E9"/>
<path d="M70.2479 56.2224C69.0987 56.2224 68.9136 56.3152 68.9136 57.1011V60.2122C68.9136 61.1257 69.6542 61.8665 70.5676 61.8665H71.6901H95.661H96.7833C97.6968 61.8665 98.4375 61.1257 98.4375 60.2122V57.1011C98.4375 56.3152 98.2148 56.2224 97.1032 56.2224C96.6316 56.2224 96.7292 56.696 96.7292 56.7396C96.7292 57.2342 96.2657 57.1977 95.5263 57.1977H93.8127H73.5382H71.8248C71.0852 57.1977 70.6217 57.2342 70.6217 56.7396C70.6217 56.5031 70.6612 56.2224 70.2479 56.2224Z" fill="#B09FA9"/>
<path d="M98.4364 60.2727C98.4364 60.2724 98.4364 60.2723 98.4365 60.272C98.4364 60.2723 98.4364 60.2724 98.4364 60.2727ZM68.9146 60.2727C68.9146 60.2724 68.9146 60.2723 68.9146 60.272C68.9146 60.2723 68.9146 60.2724 68.9146 60.2727ZM98.4365 60.2686C98.4365 60.2682 98.4367 60.2674 98.4367 60.2669C98.4367 60.2674 98.4365 60.2682 98.4365 60.2686ZM68.9145 60.2685C68.9145 60.2679 68.9145 60.2676 68.9145 60.267C68.9145 60.2674 68.9145 60.268 68.9145 60.2685ZM68.9143 60.2639C68.9143 60.2634 68.9143 60.2626 68.9143 60.2619C68.9143 60.2626 68.9143 60.2634 68.9143 60.2639ZM98.4367 60.2639C98.4367 60.2632 98.4368 60.2626 98.4368 60.262C98.4368 60.2626 98.4367 60.2632 98.4367 60.2639ZM68.9142 60.2591C68.9142 60.2584 68.9142 60.2577 68.9142 60.2569C68.9142 60.2577 68.9142 60.2584 68.9142 60.2591ZM98.4368 60.2591C98.4368 60.2584 98.437 60.2577 98.437 60.2571C98.437 60.2578 98.4368 60.2584 98.4368 60.2591ZM68.914 60.2543C68.914 60.2534 68.914 60.2525 68.914 60.2518C68.914 60.2527 68.914 60.2534 68.914 60.2543ZM98.437 60.2541C98.437 60.2534 98.437 60.2527 98.437 60.252C98.437 60.2527 98.437 60.2534 98.437 60.2541ZM98.4371 60.2493C98.4371 60.2482 98.4371 60.2468 98.4371 60.2457C98.4371 60.2468 98.4371 60.2482 98.4371 60.2493ZM68.9139 60.2493C68.9139 60.2477 68.9139 60.2464 68.9139 60.2449C68.9139 60.2463 68.9139 60.2479 68.9139 60.2493ZM68.9139 60.2427C68.9137 60.2416 68.9137 60.2406 68.9137 60.2395C68.9137 60.2406 68.9137 60.2416 68.9139 60.2427ZM98.4372 60.2425C98.4372 60.2414 98.4372 60.2406 98.4372 60.2395C98.4372 60.2406 98.4372 60.2414 98.4372 60.2425ZM68.9137 60.2375C68.9137 60.2365 68.9137 60.2354 68.9137 60.2346C68.9137 60.2356 68.9137 60.2365 68.9137 60.2375ZM98.4372 60.2373C98.4374 60.2363 98.4374 60.2356 98.4374 60.2346C98.4374 60.2356 98.4374 60.2365 98.4372 60.2373ZM68.9136 60.2324C68.9136 60.2313 68.9136 60.2305 68.9136 60.2295C68.9136 60.2305 68.9136 60.2313 68.9136 60.2324ZM98.4374 60.2324C98.4374 60.2313 98.4374 60.2305 98.4374 60.2295C98.4374 60.2303 98.4374 60.2313 98.4374 60.2324ZM98.4374 60.2274C98.4374 60.2264 98.4374 60.2254 98.4374 60.2243C98.4374 60.2254 98.4374 60.2264 98.4374 60.2274ZM68.9136 60.2274C68.9136 60.2264 68.9136 60.2252 68.9136 60.2243C68.9136 60.2252 68.9136 60.2264 68.9136 60.2274ZM68.9136 60.2224C68.9136 60.2213 68.9136 60.2201 68.9136 60.2189C68.9136 60.2201 68.9136 60.2213 68.9136 60.2224ZM98.4375 60.2223C98.4375 60.2211 98.4375 60.2201 98.4375 60.2189C98.4375 60.2201 98.4375 60.2213 98.4375 60.2223ZM68.9136 60.2173C68.9136 60.2157 68.9136 60.214 68.9136 60.2124C68.9136 60.214 68.9136 60.2157 68.9136 60.2173ZM98.4375 60.2173C98.4375 60.2157 98.4375 60.214 98.4375 60.2124V58.3177V60.2124C98.4375 60.214 98.4375 60.2157 98.4375 60.2173Z" fill="#B38620"/>
<path d="M82.4819 61.8248V60.8934H69.0601C68.9738 60.703 68.9225 60.4934 68.9146 60.2726C68.9146 60.2723 68.9146 60.2722 68.9146 60.2719C68.9146 60.2707 68.9145 60.2695 68.9145 60.2684C68.9145 60.2679 68.9145 60.2674 68.9145 60.2669C68.9145 60.2659 68.9143 60.2649 68.9143 60.2638C68.9143 60.2633 68.9143 60.2625 68.9143 60.2618C68.9142 60.2609 68.9142 60.2599 68.9142 60.259C68.9142 60.2583 68.9142 60.2576 68.9142 60.2568C68.9142 60.2558 68.914 60.2551 68.914 60.2542C68.914 60.2533 68.914 60.2526 68.914 60.2517C68.914 60.2508 68.914 60.25 68.9139 60.2492C68.9139 60.2478 68.9139 60.2462 68.9139 60.2448C68.9139 60.2441 68.9139 60.2432 68.9139 60.2427C68.9137 60.2415 68.9137 60.2405 68.9137 60.2394C68.9137 60.2387 68.9137 60.2381 68.9137 60.2374C68.9137 60.2364 68.9137 60.2355 68.9137 60.2345C68.9137 60.2337 68.9137 60.233 68.9136 60.2323C68.9136 60.2313 68.9136 60.2304 68.9136 60.2294C68.9136 60.2288 68.9136 60.228 68.9136 60.2273C68.9136 60.2263 68.9136 60.2251 68.9136 60.2242C68.9136 60.2235 68.9136 60.2229 68.9136 60.2223C68.9136 60.2212 68.9136 60.22 68.9136 60.2188C68.9136 60.2183 68.9136 60.2178 68.9136 60.2172C68.9136 60.2156 68.9136 60.2139 68.9136 60.2123V58.3177H98.4375V60.2123C98.4375 60.2139 98.4375 60.2156 98.4375 60.2172C98.4375 60.2178 98.4375 60.2183 98.4375 60.2188C98.4375 60.22 98.4375 60.221 98.4375 60.2222C98.4374 60.2229 98.4374 60.2237 98.4374 60.2242C98.4374 60.2253 98.4374 60.2263 98.4374 60.2273C98.4374 60.228 98.4374 60.2286 98.4374 60.2294C98.4374 60.2304 98.4374 60.2313 98.4374 60.2323C98.4374 60.233 98.4374 60.2337 98.4374 60.2345C98.4374 60.2355 98.4374 60.2362 98.4372 60.2372C98.4372 60.238 98.4372 60.2387 98.4372 60.2394C98.4372 60.2405 98.4372 60.2413 98.4372 60.2424C98.4372 60.2434 98.4372 60.2446 98.4371 60.2456C98.4371 60.2467 98.4371 60.2481 98.4371 60.2492C98.4371 60.2501 98.4371 60.251 98.437 60.2519C98.437 60.2526 98.437 60.2533 98.437 60.2541C98.437 60.2551 98.437 60.256 98.437 60.257C98.437 60.2576 98.4368 60.2583 98.4368 60.259C98.4368 60.2599 98.4368 60.2609 98.4368 60.2619C98.4368 60.2625 98.4367 60.2631 98.4367 60.2638C98.4367 60.2649 98.4367 60.2659 98.4367 60.2668C98.4367 60.2674 98.4365 60.2681 98.4365 60.2685C98.4365 60.2697 98.4365 60.2707 98.4365 60.2719C98.4364 60.2722 98.4364 60.2723 98.4364 60.2726C98.4285 60.4934 98.3772 60.703 98.291 60.8934H83.0656V61.0883H82.4819V61.8248Z" fill="#867684"/>
<path d="M113.219 100V97.2765H4.47437V100H113.219Z" fill="#78211B"/>
<path d="M99.4067 69.8424H114.969V62.0612H99.4067V69.8424Z" fill="#FAB413"/>
<path d="M114.969 70.2309H99.4067V78.0123H114.969V70.2309Z" fill="#FAB413"/>
<path d="M114.969 78.402H99.4067V86.1832H114.969V78.402Z" fill="#FAB413"/>
<path d="M114.969 86.5723H99.4067V97.2765H114.969V86.5723Z" fill="#FAB413"/>
<path d="M109.862 64.9794C110.103 64.9794 110.301 64.7821 110.301 64.541V64.2506C110.301 64.0095 110.103 63.8122 109.862 63.8122H104.514C104.273 63.8122 104.075 64.0095 104.075 64.2506V64.541C104.075 64.7821 104.273 64.9794 104.514 64.9794H109.862Z" fill="#4A3A49"/>
<path d="M114.969 69.8424H99.4067V70.426H114.969V69.8424Z" fill="#F57A14"/>
<path d="M114.969 78.0128H99.4067V78.5963H114.969V78.0128Z" fill="#F57A14"/>
<path d="M114.969 86.1832H99.4067V86.7668H114.969V86.1832Z" fill="#F57A14"/>
<path d="M109.862 73.1495C110.103 73.1495 110.301 72.9523 110.301 72.7111V72.4208C110.301 72.1795 110.103 71.9824 109.862 71.9824H104.514C104.273 71.9824 104.075 72.1795 104.075 72.4208V72.7111C104.075 72.9523 104.273 73.1495 104.514 73.1495H109.862Z" fill="#4A3A49"/>
<path d="M109.862 81.3203C110.103 81.3203 110.301 81.123 110.301 80.8819V80.5914C110.301 80.3501 110.103 80.153 109.862 80.153H104.514C104.273 80.153 104.075 80.3501 104.075 80.5914V80.8819C104.075 81.123 104.273 81.3203 104.514 81.3203H109.862Z" fill="#4A3A49"/>
<path d="M109.862 89.4904C110.103 89.4904 110.301 89.2931 110.301 89.052V88.7614C110.301 88.5203 110.103 88.3231 109.862 88.3231H104.514C104.273 88.3231 104.075 88.5203 104.075 88.7614V89.052C104.075 89.2931 104.273 89.4904 104.514 89.4904H109.862Z" fill="#4A3A49"/>
<path d="M83.0657 97.2765H98.8231V60.8934H83.0657V97.2765Z" fill="#FAB413"/>
<path d="M66.7251 97.2765H82.4821V60.8934H66.7251V97.2765Z" fill="#FAB413"/>
<path d="M82.4819 97.2765H83.0656V61.0883H82.4819V97.2765Z" fill="#F57A14"/>
<path d="M98.823 97.2765H99.4067V61.0883H98.823V97.2765Z" fill="#F57A14"/>
<path d="M85.74 80.3473C85.9813 80.3473 86.1784 80.15 86.1784 79.9089V74.5606C86.1784 74.3195 85.9813 74.1222 85.74 74.1222H85.4496C85.2084 74.1222 85.0112 74.3195 85.0112 74.5606V79.9089C85.0112 80.15 85.2084 80.3473 85.4496 80.3473H85.74Z" fill="#4A3A49"/>
<path d="M2.33447 69.8424H31.9036V62.0612H2.33447V69.8424Z" fill="#FAB413"/>
<path d="M31.9036 78.0123V70.2309H2.33447V78.0123H31.9036Z" fill="#FAB413"/>
<path d="M31.9036 86.1832V78.402H2.33447V86.1832H31.9036Z" fill="#FAB413"/>
<path d="M31.9036 97.2765V86.5723H2.33447V97.2765H31.9036Z" fill="#FAB413"/>
<path d="M2.33447 31.5145H31.9036V12.8393H2.33447V31.5145Z" fill="#FAC00A"/>
<path d="M5.83594 26.4567H28.402V16.1463H5.83594V26.4567Z" fill="#84BDB4"/>
<path d="M6.20112 16.5117H28.0364V26.0914H6.20112V16.5117ZM28.7671 26.822V15.781H5.47046V26.822H28.7671Z" fill="#EFA70F"/>
<path d="M14.0063 28.6459V28.9362C14.0063 29.1774 14.2038 29.3746 14.4447 29.3746H19.7932C20.0342 29.3746 20.2316 29.1774 20.2316 28.9362V28.6459C20.2316 28.4048 20.0342 28.2075 19.7932 28.2075H14.4447C14.2038 28.2075 14.0063 28.4048 14.0063 28.6459Z" fill="#4A3A49"/>
<path d="M66.7251 31.5145H98.6285V12.8393H66.7251V31.5145Z" fill="#FAC00A"/>
<path d="M70.2083 26.4567H95.1087V16.1463H70.2083V26.4567Z" fill="#84BDB4"/>
<path d="M94.7433 26.0914H70.5734V16.5117H94.7433V26.0914ZM95.4738 15.781H69.8428V26.822H95.4738V15.781Z" fill="#EFA70F"/>
<path d="M85.3508 29.3746C85.592 29.3746 85.7892 29.1774 85.7892 28.9362V28.6459C85.7892 28.4048 85.592 28.2075 85.3508 28.2075H80.0028C79.7619 28.2075 79.5645 28.4048 79.5645 28.6459V28.9362C79.5645 29.1774 79.7619 29.3746 80.0028 29.3746H85.3508Z" fill="#4A3A49"/>
<path d="M99.4312 31.5145H115.188V12.8393H99.4312V31.5145Z" fill="#FAC00A"/>
<path d="M102.932 26.4567H111.687V16.1463H102.932V26.4567Z" fill="#84BDB4"/>
<path d="M111.321 26.0914H103.298V16.5117H111.321V26.0914ZM102.567 15.781V26.822H112.052V15.781H102.567Z" fill="#EFA70F"/>
<path d="M109.984 29.3746C110.225 29.3746 110.422 29.1774 110.422 28.9362V28.6459C110.422 28.4048 110.225 28.2075 109.984 28.2075H104.635C104.394 28.2075 104.197 28.4048 104.197 28.6459V28.9362C104.197 29.1774 104.394 29.3746 104.635 29.3746H109.984Z" fill="#4A3A49"/>
<path d="M14.0063 64.2506V64.541C14.0063 64.7821 14.2038 64.9794 14.4447 64.9794H19.7932C20.0342 64.9794 20.2316 64.7821 20.2316 64.541V64.2506C20.2316 64.0095 20.0342 63.8122 19.7932 63.8122H14.4447C14.2038 63.8122 14.0063 64.0095 14.0063 64.2506Z" fill="#4A3A49"/>
<path d="M31.9036 70.426V69.8424H2.33447V70.426H31.9036Z" fill="#F57A14"/>
<path d="M31.9036 78.5963V78.0128H2.33447V78.5963H31.9036Z" fill="#F57A14"/>
<path d="M31.9036 86.7668V86.1832H2.33447V86.7668H31.9036Z" fill="#F57A14"/>
<path d="M14.0063 72.4208V72.7111C14.0063 72.9523 14.2038 73.1495 14.4447 73.1495H19.7932C20.0342 73.1495 20.2316 72.9523 20.2316 72.7111V72.4208C20.2316 72.1795 20.0342 71.9824 19.7932 71.9824H14.4447C14.2038 71.9824 14.0063 72.1795 14.0063 72.4208Z" fill="#4A3A49"/>
<path d="M14.0063 80.5914V80.8819C14.0063 81.123 14.2038 81.3203 14.4447 81.3203H19.7932C20.0342 81.3203 20.2316 81.123 20.2316 80.8819V80.5914C20.2316 80.3501 20.0342 80.153 19.7932 80.153H14.4447C14.2038 80.153 14.0063 80.3501 14.0063 80.5914Z" fill="#4A3A49"/>
<path d="M14.0063 88.7614V89.052C14.0063 89.2931 14.2038 89.4904 14.4447 89.4904H19.7932C20.0342 89.4904 20.2316 89.2931 20.2316 89.052V88.7614C20.2316 88.5203 20.0342 88.3231 19.7932 88.3231H14.4447C14.2038 88.3231 14.0063 88.5203 14.0063 88.7614Z" fill="#4A3A49"/>
<path d="M56.5813 47.3466C56.5813 46.9706 56.2765 46.6658 55.9003 46.6658C55.5242 46.6658 55.2195 46.9706 55.2195 47.3466C55.2195 47.7228 55.5242 48.0275 55.9003 48.0275C56.2765 48.0275 56.5813 47.7228 56.5813 47.3466Z" fill="#4A3A49"/>
<path d="M58.2582 54.6417H61.1742C61.9116 53.5264 62.3433 52.1851 62.3433 50.7403C62.3433 46.8668 59.2513 43.7265 55.4372 43.7265C54.1254 43.7265 52.9014 44.1019 51.8574 44.7474L52.5402 45.4304C53.2563 44.982 54.1076 44.7205 55.0225 44.7205C57.5613 44.7205 59.6197 46.7237 59.6197 49.1948C59.6197 50.4377 59.0986 51.5618 58.2582 52.3727V54.6417Z" fill="#4A3A49"/>
<path d="M52.2464 52.3073L50.6901 49.5839H49.1338L51.0792 55.809H58.0825L52.2464 52.3073Z" fill="#42719C"/>
<path d="M58.9994 49.1949H52.8009C51.476 50.6712 50.5782 53.0671 50.4658 55.809H61.3345C61.222 53.0671 60.3243 50.6712 58.9994 49.1949Z" fill="#5184BA"/>
<path d="M58.4055 49.1948H56.8458C56.8448 49.1937 56.8438 49.1925 56.8428 49.1913H58.4024C58.4035 49.1925 58.4045 49.1937 58.4055 49.1948Z" fill="#B4D199"/>
<path d="M60.5347 55.2307H58.975C58.8724 52.7294 58.0539 50.5434 56.8457 49.1949H58.4054C59.6134 50.5434 60.4319 52.7294 60.5347 55.2307Z" fill="#3D6E9C"/>
<path d="M55.9003 47.6385C54.7485 47.6385 53.6809 48.2143 52.801 49.1948H58.9995C58.1198 48.2143 57.0524 47.6385 55.9003 47.6385Z" fill="#4A3A49"/>
<path d="M60.4167 55.8089H51.2737V56.7817H60.4167V55.8089Z" fill="#235255"/>
<path d="M36.9616 56.7603L36.5723 57.7329H47.8551L47.4661 56.7603H36.9616Z" fill="#4A3A49"/>
<path d="M60.9912 56.7603H50.4862L50.0972 57.7329H61.3802L60.9912 56.7603Z" fill="#4A3A49"/>
<path d="M53.5317 49.1949C52.2067 50.6712 51.3091 53.0671 51.1965 55.809H52.658C52.7704 53.0671 53.6682 50.6712 54.9931 49.1949H53.5317Z" fill="#AEC5E9"/>
<path d="M61.2961 55.2124H50.5043C50.4877 55.4096 50.474 55.7541 50.4658 55.9551H61.3345C61.3264 55.7541 61.3126 55.4096 61.2961 55.2124Z" fill="#3C5A74"/>
<path d="M33.8486 97.4226H64.9741V59.9739H33.8486V97.4226Z" fill="#96321E"/>
<path d="M64.9741 57.6357H33.8489V60.3914H64.9741V57.6357Z" fill="#96321E"/>
<path d="M114.971 63.084H115.014V62.0657H114.971V63.084Z" fill="#DEDADC"/>
<path d="M114.969 63.084H114.971V62.0657H114.969V63.084Z" fill="#D9B965"/>
<path d="M99.4067 63.084H114.969V62.0657H99.4067V63.084Z" fill="#D89A16"/>
<path d="M83.0657 63.084H98.8231V62.0657H83.0657V63.084Z" fill="#D89A16"/>
<path d="M64.9741 63.084H66.7251V62.0657H64.9741V63.084Z" fill="#D9681B"/>
<path d="M66.7251 63.084H82.4821V62.0657H66.7251V63.084Z" fill="#D89A16"/>
<path d="M82.4819 63.084H83.0656V62.0657H82.4819V63.084Z" fill="#D9681B"/>
<path d="M98.823 63.084H99.4067V62.0657H98.823V63.084Z" fill="#D9681B"/>
<path d="M31.9036 63.084H31.9186V62.0657H31.9036V63.084Z" fill="#D89A16"/>
<path d="M31.9187 63.084H33.8487V62.0657H31.9187V63.084Z" fill="#D9681B"/>
<path d="M2.33813 63.084H31.9036V62.0657H2.33813V63.084Z" fill="#D89A16"/>
<path d="M33.8486 63.084H64.9741V62.0657H33.8486V63.084Z" fill="#812B1A"/>
<path d="M34.4326 12.8394V9.92124H0V12.8394H34.4326Z" fill="#EF3028"/>
<path d="M117.352 9.92124H64.7798V12.8394H117.352V9.92124Z" fill="#EF3028"/>
<path d="M80.0987 80.3473C80.3397 80.3473 80.5371 80.15 80.5371 79.9089V74.5606C80.5371 74.3195 80.3397 74.1222 80.0987 74.1222H79.808C79.5669 74.1222 79.3696 74.3195 79.3696 74.5606V79.9089C79.3696 80.15 79.5669 80.3473 79.808 80.3473H80.0987Z" fill="#4A3A49"/>
<path d="M60.5967 70.5726C61.51 70.5726 62.2506 69.8319 62.2506 68.9183V66.0019C62.2506 65.0883 61.51 64.3475 60.5967 64.3475H38.032C37.1185 64.3475 36.3779 65.0883 36.3779 66.0019V68.9183C36.3779 69.8319 37.1185 70.5726 38.032 70.5726H60.5967Z" fill="#FFFBFD"/>
<path d="M60.5967 89.9774C61.51 89.9774 62.2506 89.2367 62.2506 88.3231V74.6093C62.2506 73.6957 61.51 72.9549 60.5967 72.9549H38.032C37.1185 72.9549 36.3779 73.6957 36.3779 74.6093V88.3231C36.3779 89.2367 37.1185 89.9774 38.032 89.9774H60.5967Z" fill="#84BDB4"/>
<path d="M59.0282 68.5135C59.6101 68.0372 59.6957 67.1792 59.2192 66.5973C58.7425 66.0153 57.8845 65.9302 57.3028 66.4066C56.7206 66.8832 56.6351 67.7408 57.1118 68.3228C57.5883 68.9047 58.4463 68.9902 59.0282 68.5135Z" fill="#4A3A49"/>
<path d="M55.6363 67.46C55.6363 66.708 55.0267 66.0983 54.2747 66.0983C53.5226 66.0983 52.9131 66.708 52.9131 67.46C52.9131 68.2123 53.5226 68.8218 54.2747 68.8218C55.0267 68.8218 55.6363 68.2123 55.6363 67.46Z" fill="#4A3A49"/>
<path d="M51.7461 67.46C51.7461 66.708 51.1364 66.0983 50.3841 66.0983C49.6321 66.0983 49.0225 66.708 49.0225 67.46C49.0225 68.2123 49.6321 68.8218 50.3841 68.8218C51.1364 68.8218 51.7461 68.2123 51.7461 67.46Z" fill="#4A3A49"/>
<path d="M47.8552 67.46C47.8552 66.708 47.2456 66.0983 46.4936 66.0983C45.7416 66.0983 45.1318 66.708 45.1318 67.46C45.1318 68.2123 45.7416 68.8218 46.4936 68.8218C47.2456 68.8218 47.8552 68.2123 47.8552 67.46Z" fill="#4A3A49"/>
<path d="M40.463 67.46C40.463 66.708 39.8533 66.0983 39.1013 66.0983C38.3489 66.0983 37.7395 66.708 37.7395 67.46C37.7395 68.2123 38.3489 68.8218 39.1013 68.8218C39.8533 68.8218 40.463 68.2123 40.463 67.46Z" fill="#4A3A49"/>
<path d="M62.2507 88.3231V74.6093C62.2507 73.6957 61.5101 72.9549 60.5968 72.9549H58.3602L45.8174 89.9774H60.5968C61.5101 89.9774 62.2507 89.2367 62.2507 88.3231Z" fill="#58667B"/>
<path d="M51.4769 72.9673L38.9341 89.9774H42.7227L55.2475 72.9673C55.1581 72.9523 51.4769 72.9673 51.4769 72.9673Z" fill="#58667B"/>
<path d="M59.4778 76.262C59.719 76.262 59.9162 76.0647 59.9162 75.8236V75.5332C59.9162 75.2921 59.719 75.0948 59.4778 75.0948H38.956C38.7147 75.0948 38.5176 75.2921 38.5176 75.5332V75.8236C38.5176 76.0647 38.7147 76.262 38.956 76.262H59.4778Z" fill="#4A3A49"/>
<path d="M55.3635 77.0217H52.2622L52.8216 76.262H55.9233L55.3635 77.0217ZM48.4874 77.0217H39.4866C39.2455 77.0217 39.0481 76.8243 39.0481 76.5833V76.293C39.0481 76.2826 39.0485 76.2722 39.0493 76.262H49.0476L48.4874 77.0217Z" fill="#6A878C"/>
<path d="M60.0086 77.0217H55.3635L55.9234 76.262H59.4779C59.7086 76.262 59.8992 76.0814 59.9152 75.8546H60.0086C60.2499 75.8546 60.447 76.0519 60.447 76.293V76.5833C60.447 76.8243 60.2499 77.0217 60.0086 77.0217Z" fill="#525367"/>
<path d="M52.2622 77.0217H48.4873L49.0476 76.262H52.8216L52.2622 77.0217Z" fill="#525367"/>
<path d="M59.4779 76.262H39.0493C39.0654 76.0352 39.2559 75.8545 39.4867 75.8545H59.9152C59.8992 76.0813 59.7086 76.262 59.4779 76.262Z" fill="#4A3A49"/>
<path d="M44.0618 28.1124H54.761V9.92014H44.0618V28.1124Z" fill="#FCE8F4"/>
<path d="M33.8486 31.5144H64.9741V27.5289H33.8486V31.5144Z" fill="#B09FA9"/>
<path d="M54.7448 20.6206H43.9972L33.8486 27.5288H64.9741L54.7448 20.6206Z" fill="#FFFBFD"/>
<path d="M11.3545 59.1431H15.6505V57.3258H11.3545V59.1431Z" fill="#4A3A49"/>
<path d="M13.5026 58.401C16.1238 58.401 18.3119 56.551 18.8344 54.0854H8.17065C8.69293 56.551 10.8813 58.401 13.5026 58.401Z" fill="#8CAD26"/>
<path d="M9.11377 54.555C9.40983 55.9523 10.499 57.0536 11.8876 57.373C10.7218 56.8784 9.88637 55.8096 9.69041 54.555H9.11377Z" fill="#FFFBFD"/>
<path d="M14.0307 58.0227C13.73 58.0227 13.437 57.9846 13.1538 57.9134C14.7702 57.5067 16.0423 55.9999 16.3849 54.0855H18.1388C17.7362 56.3349 16.0503 58.0227 14.0307 58.0227Z" fill="#8D9323"/>
<path d="M6.44886 48.7159V40.1565H5.82666V48.7159H6.44886Z" fill="#2E7D78"/>
<path d="M1.31299 48.7939C1.31299 50.2119 2.4627 51.3617 3.88092 51.3617C5.29898 51.3617 6.44873 50.2119 6.44873 48.7939C6.44873 48.7676 6.44566 48.7423 6.44492 48.716H1.31715C1.31619 48.7423 1.31299 48.7676 1.31299 48.7939Z" fill="#4A3A49"/>
<path d="M2.04583 48.716H1.31715C1.31619 48.7423 1.31299 48.7676 1.31299 48.7939C1.31299 50.2119 2.4627 51.3617 3.88092 51.3617C4.65193 51.3617 5.34168 51.0203 5.81232 50.4823C5.49276 50.6034 5.14788 50.6728 4.78591 50.6728C3.51485 50.6728 2.43752 49.8539 2.04583 48.716Z" fill="#4A3A49"/>
<path d="M5.51465 37.9779V40.7791C5.51465 41.1229 5.79379 41.4016 6.13743 41.4016C6.48136 41.4016 6.75964 41.1229 6.75964 40.7791V37.9779C6.75964 37.634 6.48136 37.3552 6.13743 37.3552C5.79379 37.3552 5.51465 37.634 5.51465 37.9779Z" fill="#4A3A49"/>
<path d="M8.63745 48.7159H9.25994V40.1565H8.63745V48.7159Z" fill="#2E7D78"/>
<path d="M8.32593 37.9779V40.7791C8.32593 41.1229 8.6046 41.4016 8.9486 41.4016C9.29259 41.4016 9.57127 41.1229 9.57127 40.7791V37.9779C9.57127 37.634 9.29259 37.3552 8.9486 37.3552C8.6046 37.3552 8.32593 37.634 8.32593 37.9779Z" fill="#4A3A49"/>
<path d="M7.39233 50.1167C7.39233 51.3629 8.089 52.3733 8.9487 52.3733C9.80825 52.3733 10.5049 51.3629 10.5049 50.1167C10.5049 48.8705 9.80825 47.8601 8.9487 47.8601C8.089 47.8601 7.39233 48.8705 7.39233 50.1167Z" fill="#4A3A49"/>
<path d="M8.29847 51.703C8.12033 51.545 7.97142 51.3264 7.86475 51.066L9.17672 48.2896C9.38715 48.3404 9.58004 48.4652 9.74298 48.6459L8.29847 51.703Z" fill="#807381"/>
<path d="M8.96551 51.9771C8.85006 51.9771 8.73871 51.9528 8.63232 51.9114L9.99735 49.0224C10.0641 49.1544 10.1194 49.2993 10.1603 49.4548L8.96784 51.9768L8.96551 51.9771Z" fill="#807381"/>
<path d="M19.6284 40.1566V47.1598H20.2508V40.1566H19.6284Z" fill="#2E7D78"/>
<path d="M20.5623 40.7791V37.9779C20.5623 37.634 20.2835 37.3552 19.9395 37.3552C19.5957 37.3552 19.3171 37.634 19.3171 37.9779V40.7791C19.3171 41.1229 19.5957 41.4016 19.9395 41.4016C20.2835 41.4016 20.5623 41.1229 20.5623 40.7791Z" fill="#4A3A49"/>
<path d="M19.4534 48.7356C19.2923 48.7356 19.1617 48.6049 19.1617 48.4437C19.1617 48.2827 19.2923 48.1521 19.4534 48.1521C19.6145 48.1521 19.7452 48.2827 19.7452 48.4437C19.7452 48.6049 19.6145 48.7356 19.4534 48.7356ZM19.4534 49.7082C19.2923 49.7082 19.1617 49.5776 19.1617 49.4165C19.1617 49.2554 19.2923 49.1246 19.4534 49.1246C19.6145 49.1246 19.7452 49.2554 19.7452 49.4165C19.7452 49.5776 19.6145 49.7082 19.4534 49.7082ZM19.4534 50.6809C19.2923 50.6809 19.1617 50.5502 19.1617 50.3892C19.1617 50.228 19.2923 50.0974 19.4534 50.0974C19.6145 50.0974 19.7452 50.228 19.7452 50.3892C19.7452 50.5502 19.6145 50.6809 19.4534 50.6809ZM19.4534 51.6535C19.2923 51.6535 19.1617 51.5229 19.1617 51.3617C19.1617 51.2007 19.2923 51.07 19.4534 51.07C19.6145 51.07 19.7452 51.2007 19.7452 51.3617C19.7452 51.5229 19.6145 51.6535 19.4534 51.6535ZM18.4807 49.7082C18.3197 49.7082 18.1889 49.5776 18.1889 49.4165C18.1889 49.2554 18.3197 49.1246 18.4807 49.1246C18.6416 49.1246 18.7727 49.2554 18.7727 49.4165C18.7727 49.5776 18.6416 49.7082 18.4807 49.7082ZM18.4807 50.6809C18.3197 50.6809 18.1889 50.5502 18.1889 50.3892C18.1889 50.228 18.3197 50.0974 18.4807 50.0974C18.6416 50.0974 18.7727 50.228 18.7727 50.3892C18.7727 50.5502 18.6416 50.6809 18.4807 50.6809ZM20.4262 51.07C20.5873 51.07 20.7178 51.2007 20.7178 51.3617C20.7178 51.5229 20.5873 51.6535 20.4262 51.6535C20.265 51.6535 20.1342 51.5229 20.1342 51.3617C20.1342 51.2007 20.265 51.07 20.4262 51.07ZM20.4262 50.0974C20.5873 50.0974 20.7178 50.228 20.7178 50.3892C20.7178 50.5502 20.5873 50.6809 20.4262 50.6809C20.265 50.6809 20.1342 50.5502 20.1342 50.3892C20.1342 50.228 20.265 50.0974 20.4262 50.0974ZM20.4262 49.1246C20.5873 49.1246 20.7178 49.2554 20.7178 49.4165C20.7178 49.5776 20.5873 49.7082 20.4262 49.7082C20.265 49.7082 20.1342 49.5776 20.1342 49.4165C20.1342 49.2554 20.265 49.1246 20.4262 49.1246ZM20.4262 48.1521C20.5873 48.1521 20.7178 48.2827 20.7178 48.4437C20.7178 48.6049 20.5873 48.7356 20.4262 48.7356C20.265 48.7356 20.1342 48.6049 20.1342 48.4437C20.1342 48.2827 20.265 48.1521 20.4262 48.1521ZM21.3988 50.0974C21.56 50.0974 21.6905 50.228 21.6905 50.3892C21.6905 50.5502 21.56 50.6809 21.3988 50.6809C21.2378 50.6809 21.107 50.5502 21.107 50.3892C21.107 50.228 21.2378 50.0974 21.3988 50.0974ZM21.3988 49.1246C21.56 49.1246 21.6905 49.2554 21.6905 49.4165C21.6905 49.5776 21.56 49.7082 21.3988 49.7082C21.2378 49.7082 21.107 49.5776 21.107 49.4165C21.107 49.2554 21.2378 49.1246 21.3988 49.1246ZM22.7606 49.9029C22.7606 48.345 21.4977 47.0821 19.9398 47.0821C18.3821 47.0821 17.1189 48.345 17.1189 49.9029C17.1189 51.4606 18.3821 52.7235 19.9398 52.7235C21.4977 52.7235 22.7606 51.4606 22.7606 49.9029Z" fill="#4A3A49"/>
<path d="M13.734 47.4192V40.1566H13.1118V47.4192H13.734Z" fill="#2E7D78"/>
<path d="M12.8005 37.9779V40.7791C12.8005 41.1229 13.0789 41.4016 13.4229 41.4016C13.7668 41.4016 14.0454 41.1229 14.0454 40.7791V37.9779C14.0454 37.634 13.7668 37.3552 13.4229 37.3552C13.0789 37.3552 12.8005 37.634 12.8005 37.9779Z" fill="#4A3A49"/>
<path d="M14.1038 50C14.1038 50.1074 14.0167 50.1945 13.909 50.1945C13.8015 50.1945 13.7145 50.1074 13.7145 50V48.0547C13.7145 47.9473 13.8015 47.86 13.909 47.86C14.0167 47.86 14.1038 47.9473 14.1038 48.0547V50ZM13.131 50C13.131 50.1074 13.0439 50.1945 12.9364 50.1945C12.8291 50.1945 12.7419 50.1074 12.7419 50V48.0547C12.7419 47.9473 12.8291 47.86 12.9364 47.86C13.0439 47.86 13.131 47.9473 13.131 48.0547V50ZM12.6125 47.082C12.308 47.082 12.061 47.3288 12.061 47.6335V50.4211C12.061 50.7257 12.308 50.9728 12.6125 50.9728H14.233C14.5377 50.9728 14.7846 50.7257 14.7846 50.4211V47.6335C14.7846 47.3288 14.5377 47.082 14.233 47.082H12.6125Z" fill="#4A3A49"/>
<path d="M112.389 56.6562C112.458 56.3565 112.517 56.0978 112.517 55.9181C112.517 55.5523 112.774 55.2543 113.089 55.2543C113.299 55.2543 113.522 55.3495 113.644 55.4915C113.735 55.5964 113.768 55.7191 113.745 55.8658C113.686 56.2504 113.497 56.3778 113.074 56.6309C112.805 56.7912 112.426 56.9961 112.277 57.1618C112.179 57.2705 112.104 57.2268 112.047 57.2702C112.07 57.0598 112.343 56.8549 112.389 56.6562ZM112.022 57.7833C112.332 57.4056 112.688 57.2739 113.252 56.9372C113.686 56.6775 114.004 56.4784 114.088 55.9268C114.185 55.2869 113.596 54.9165 113.089 54.9165C112.582 54.9165 112.171 55.3686 112.171 55.9268C112.171 56.3433 111.792 58.0627 112.022 57.7833Z" fill="#EF3028"/>
<path d="M109.427 58.4352H111.848C111.848 58.4352 111.936 58.013 112.032 57.7833C112.18 57.4238 112.757 56.6126 112.908 56.2543C113.292 55.3438 113.153 54.257 113.153 54.257H110.637H108.122C108.122 54.257 107.983 55.3438 108.367 56.2543C108.518 56.6126 109.095 57.4238 109.243 57.7833C109.338 58.013 109.427 58.4352 109.427 58.4352Z" fill="#EF3028"/>
<path d="M112.392 59.1431C113.508 58.9768 114.267 58.6507 114.267 58.2759H107.127C107.127 58.6507 107.886 58.9768 109.003 59.1431H112.392Z" fill="#96321E"/>
<path d="M111.581 56.0792C111.581 55.5578 111.158 55.1353 110.637 55.1353C110.116 55.1353 109.693 55.5578 109.693 56.0792C109.693 56.6005 110.116 57.0231 110.637 57.0231C111.158 57.0231 111.581 56.6005 111.581 56.0792Z" fill="#FFFBFD"/>
<path d="M104.413 56.6562C104.482 56.3565 104.542 56.0978 104.542 55.9181C104.542 55.5523 104.798 55.2543 105.113 55.2543C105.323 55.2543 105.546 55.3495 105.669 55.4915C105.759 55.5964 105.792 55.7191 105.769 55.8658C105.711 56.2504 105.521 56.3778 105.098 56.6309C104.829 56.7912 104.45 56.9961 104.301 57.1618C104.204 57.2705 104.128 57.2268 104.071 57.2702C104.093 57.0598 104.368 56.8549 104.413 56.6562ZM104.046 57.7833C104.355 57.4056 104.712 57.2739 105.275 56.9372C105.711 56.6775 106.028 56.4784 106.112 55.9268C106.209 55.2869 105.62 54.9165 105.113 54.9165C104.606 54.9165 104.195 55.3686 104.195 55.9268C104.195 56.3433 103.817 58.0627 104.046 57.7833Z" fill="#2E7D78"/>
<path d="M101.268 57.7833C101.362 58.013 101.451 58.4352 101.451 58.4352H102.661H103.872C103.872 58.4352 103.961 58.013 104.056 57.7833C104.204 57.4238 104.781 56.6126 104.932 56.2543C105.316 55.3438 105.177 54.257 105.177 54.257H102.661H100.146C100.146 54.257 100.007 55.3438 100.391 56.2543C100.542 56.6126 101.119 57.4238 101.268 57.7833Z" fill="#2E7D78"/>
<path d="M104.415 59.1431C105.532 58.9768 106.291 58.6507 106.291 58.2759H99.1509C99.1509 58.6507 99.91 58.9768 101.027 59.1431H104.415Z" fill="#235255"/>
<path d="M103.605 56.0792C103.605 55.5578 103.183 55.1353 102.661 55.1353C102.14 55.1353 101.718 55.5578 101.718 56.0792C101.718 56.6005 102.14 57.0231 102.661 57.0231C103.183 57.0231 103.605 56.6005 103.605 56.0792Z" fill="#FFFBFD"/>
<path d="M95.3759 40.4691H94.8483V39.302H95.3759V40.4691ZM91.3465 40.4691H90.8038V39.302H91.3465V40.4691ZM87.3019 40.4691H86.774V39.302H87.3019V40.4691ZM83.272 40.4691H82.6686V39.302H83.272V40.4691ZM79.1665 40.4691H78.639V39.302H79.1665V40.4691ZM75.1369 40.4691H74.5942V39.302H75.1369V40.4691ZM71.092 40.4691H70.5645V39.302H71.092V40.4691Z" fill="#B59A65"/>
<path d="M70.5643 40.4691H69.4483C69.1263 40.4691 68.8647 40.2078 68.8647 39.8855C68.8647 39.5632 69.1263 39.302 69.4483 39.302H70.5643V40.4691Z" fill="#B5A98D"/>
<path d="M71.0918 40.4691H74.594V39.3019H71.0918V40.4691Z" fill="#B5A98D"/>
<path d="M75.1367 40.4691H78.6387V39.3019H75.1367V40.4691Z" fill="#B5A98D"/>
<path d="M79.1665 40.4691H82.6686V39.3019H79.1665V40.4691Z" fill="#B5A98D"/>
<path d="M83.2717 40.4691H86.7738V39.3019H83.2717V40.4691Z" fill="#B5A98D"/>
<path d="M87.3018 40.4691H90.8037V39.3019H87.3018V40.4691Z" fill="#B5A98D"/>
<path d="M91.3464 40.4691H94.8482V39.3019H91.3464V40.4691Z" fill="#B5A98D"/>
<path d="M96.683 40.4691H95.3757V39.302H96.683C97.0053 39.302 97.2667 39.5632 97.2667 39.8855C97.2667 40.2078 97.0053 40.4691 96.683 40.4691Z" fill="#B5A98D"/>
<path d="M96.683 39.6898C97.0053 39.6898 97.2667 39.4285 97.2667 39.1062C97.2667 38.7839 97.0053 38.5227 96.683 38.5227H69.4483C69.1263 38.5227 68.8647 38.7839 68.8647 39.1062C68.8647 39.4285 69.1263 39.6898 69.4483 39.6898H96.683Z" fill="#AEC5E9"/>
<path d="M94.7377 38.3982C94.7377 37.6643 94.1428 37.62 93.4091 37.62H86.5346C85.8009 37.62 85.2058 37.6643 85.2058 38.3982V47.7772H94.7377V38.3982Z" fill="#B8CA26"/>
<path d="M94.7377 45.4333H85.2058V46.3661H94.7377V45.4333Z" fill="#FFFBFD"/>
<path d="M86.4761 48.7094V47.0532C86.4761 46.8777 86.3341 46.7356 86.1586 46.7356C85.9828 46.7356 85.8406 46.8777 85.8406 47.0532V48.7094C85.8406 48.885 85.9828 49.0273 86.1586 49.0273C86.3341 49.0273 86.4761 48.885 86.4761 48.7094Z" fill="#E2C039"/>
<path d="M87.7473 48.7094V47.0532C87.7473 46.8777 87.6053 46.7356 87.4297 46.7356C87.254 46.7356 87.1118 46.8777 87.1118 47.0532V48.7094C87.1118 48.885 87.254 49.0273 87.4297 49.0273C87.6053 49.0273 87.7473 48.885 87.7473 48.7094Z" fill="#E2C039"/>
<path d="M89.0184 48.7094V47.0532C89.0184 46.8777 88.8762 46.7356 88.7006 46.7356C88.5249 46.7356 88.3826 46.8777 88.3826 47.0532V48.7094C88.3826 48.885 88.5249 49.0273 88.7006 49.0273C88.8762 49.0273 89.0184 48.885 89.0184 48.7094Z" fill="#E2C039"/>
<path d="M90.2899 48.7094V47.0532C90.2899 46.8777 90.1474 46.7356 89.9716 46.7356C89.7964 46.7356 89.6541 46.8777 89.6541 47.0532V48.7094C89.6541 48.885 89.7964 49.0273 89.9716 49.0273C90.1474 49.0273 90.2899 48.885 90.2899 48.7094Z" fill="#E2C039"/>
<path d="M91.5607 48.7094V47.0532C91.5607 46.8777 91.4184 46.7356 91.2432 46.7356C91.0675 46.7356 90.925 46.8777 90.925 47.0532V48.7094C90.925 48.885 91.0675 49.0273 91.2432 49.0273C91.4184 49.0273 91.5607 48.885 91.5607 48.7094Z" fill="#E2C039"/>
<path d="M92.8315 48.7094V47.0532C92.8315 46.8777 92.6894 46.7356 92.5141 46.7356C92.3383 46.7356 92.1965 46.8777 92.1965 47.0532V48.7094C92.1965 48.885 92.3383 49.0273 92.5141 49.0273C92.6894 49.0273 92.8315 48.885 92.8315 48.7094Z" fill="#E2C039"/>
<path d="M94.1033 48.7094V47.0532C94.1033 46.8777 93.9609 46.7356 93.7853 46.7356C93.6098 46.7356 93.4673 46.8777 93.4673 47.0532V48.7094C93.4673 48.885 93.6098 49.0273 93.7853 49.0273C93.9609 49.0273 94.1033 48.885 94.1033 48.7094Z" fill="#E2C039"/>
<path d="M31.0548 49.3106C31.2717 50.2331 31.6931 50.8596 32.1825 50.8637C32.9044 50.8691 33.4053 49.4797 33.6396 47.6273C33.7249 46.9541 33.9434 43.6763 33.9434 43.6763L28.2784 40.468C28.2784 40.468 26.2598 42.6841 24.6555 45.5167C22.789 48.8117 23.453 51.02 25.2406 52.0326C26.9988 53.0282 29.5771 51.8103 31.0548 49.3106Z" fill="#EF3028"/>
<path d="M28.7883 38.4192C28.8335 38.4192 28.8891 38.4571 28.9458 38.5225H29.7257C29.5277 38.0461 29.1887 37.7443 28.7883 37.7443C28.1471 37.7443 27.6638 38.5179 27.6638 39.5438C27.6638 40.5696 28.1471 41.3433 28.7883 41.3433C29.3986 41.3433 29.865 40.6418 29.9087 39.6898H29.2306C29.1931 40.2986 28.9353 40.6686 28.7883 40.6686C28.6298 40.6686 28.3384 40.2414 28.3384 39.5438C28.3384 38.8462 28.6298 38.4192 28.7883 38.4192Z" fill="#EF3028"/>
<path d="M25.4732 50.0857C25.4732 49.8526 25.2844 49.6638 25.0513 49.6638C24.8182 49.6638 24.6294 49.8526 24.6294 50.0857C24.6294 50.3188 24.8182 50.5076 25.0513 50.5076C25.2844 50.5076 25.4732 50.3188 25.4732 50.0857Z" fill="#FFFBFD"/>
<path d="M27.8601 50.6702C27.8601 50.4371 27.6713 50.2483 27.4381 50.2483C27.205 50.2483 27.0164 50.4371 27.0164 50.6702C27.0164 50.9032 27.205 51.092 27.4381 51.092C27.6713 51.092 27.8601 50.9032 27.8601 50.6702Z" fill="#FFFBFD"/>
<path d="M26.6912 48.3319C26.6912 48.0989 26.5021 47.9101 26.269 47.9101C26.0361 47.9101 25.8474 48.0989 25.8474 48.3319C25.8474 48.5651 26.0361 48.7539 26.269 48.7539C26.5021 48.7539 26.6912 48.5651 26.6912 48.3319Z" fill="#FFFBFD"/>
<path d="M29.5651 48.2833C29.5651 48.0504 29.3763 47.8614 29.1429 47.8614C28.9101 47.8614 28.7212 48.0504 28.7212 48.2833C28.7212 48.5164 28.9101 48.7053 29.1429 48.7053C29.3763 48.7053 29.5651 48.5164 29.5651 48.2833Z" fill="#FFFBFD"/>
<path d="M32.9699 47.9443C32.9699 47.7114 32.7808 47.5226 32.5477 47.5226C32.3146 47.5226 32.126 47.7114 32.126 47.9443C32.126 48.1774 32.3146 48.3663 32.5477 48.3663C32.7808 48.3663 32.9699 48.1774 32.9699 47.9443Z" fill="#FFFBFD"/>
<path d="M32.8286 45.8476C32.8286 45.6147 32.6395 45.4259 32.4065 45.4259C32.1735 45.4259 31.9849 45.6147 31.9849 45.8476C31.9849 46.0809 32.1735 46.2697 32.4065 46.2697C32.6395 46.2697 32.8286 46.0809 32.8286 45.8476Z" fill="#FFFBFD"/>
<path d="M26.009 46.0913C26.009 45.8583 25.8203 45.6694 25.5871 45.6694C25.3542 45.6694 25.1655 45.8583 25.1655 46.0913C25.1655 46.3244 25.3542 46.5133 25.5871 46.5133C25.8203 46.5133 26.009 46.3244 26.009 46.0913Z" fill="#FFFBFD"/>
<path d="M28.2009 46.1887C28.2009 45.9557 28.0121 45.7668 27.7789 45.7668C27.5461 45.7668 27.3572 45.9557 27.3572 46.1887C27.3572 46.4218 27.5461 46.6107 27.7789 46.6107C28.0121 46.6107 28.2009 46.4218 28.2009 46.1887Z" fill="#FFFBFD"/>
<path d="M28.7441 42.2163C28.7441 41.9832 28.5553 41.7942 28.322 41.7942C28.0891 41.7942 27.9001 41.9832 27.9001 42.2163C27.9001 42.4492 28.0891 42.6383 28.322 42.6383C28.5553 42.6383 28.7441 42.4492 28.7441 42.2163Z" fill="#FFFBFD"/>
<path d="M30.8165 46.1019C30.8165 45.8688 30.6275 45.68 30.3946 45.68C30.1614 45.68 29.9724 45.8688 29.9724 46.1019C29.9724 46.3349 30.1614 46.5238 30.3946 46.5238C30.6275 46.5238 30.8165 46.3349 30.8165 46.1019Z" fill="#FFFBFD"/>
<path d="M27.4567 44.0574C27.4567 43.8243 27.2676 43.6353 27.0348 43.6353C26.8017 43.6353 26.6128 43.8243 26.6128 44.0574C26.6128 44.2903 26.8017 44.4792 27.0348 44.4792C27.2676 44.4792 27.4567 44.2903 27.4567 44.0574Z" fill="#FFFBFD"/>
<path d="M29.6625 44.0455C29.6625 43.8124 29.4736 43.6235 29.2403 43.6235C29.0074 43.6235 28.8186 43.8124 28.8186 44.0455C28.8186 44.2785 29.0074 44.4674 29.2403 44.4674C29.4736 44.4674 29.6625 44.2785 29.6625 44.0455Z" fill="#FFFBFD"/>
<path d="M32.1469 43.7533C32.1469 43.5202 31.9578 43.3313 31.7246 43.3313C31.4918 43.3313 31.303 43.5202 31.303 43.7533C31.303 43.9862 31.4918 44.1752 31.7246 44.1752C31.9578 44.1752 32.1469 43.9862 32.1469 43.7533Z" fill="#FFFBFD"/>
<path d="M112.483 44.853C112.876 44.853 113.196 44.5333 113.196 44.1403V41.6465C113.196 41.2535 112.876 40.9339 112.483 40.9339H109.989C109.596 40.9339 109.277 41.2535 109.277 41.6465V44.1403C109.277 44.5333 109.596 44.853 109.989 44.853H112.483Z" fill="#FFFBFD"/>
<path d="M109.496 44.1404V41.6465C109.496 41.374 109.717 41.1531 109.989 41.1531H112.483C112.756 41.1531 112.977 41.374 112.977 41.6465V44.1404C112.977 44.4129 112.756 44.6339 112.483 44.6339H109.989C109.717 44.6339 109.496 44.4129 109.496 44.1404ZM112.483 45.0723C112.997 45.0723 113.415 44.6542 113.415 44.1404V41.6465C113.415 41.1327 112.997 40.7148 112.483 40.7148H109.989C109.476 40.7148 109.058 41.1327 109.058 41.6465V44.1404C109.058 44.6542 109.476 45.0723 109.989 45.0723H112.483Z" fill="#F3CF8D"/>
<path d="M112.107 42.8936C112.107 42.413 111.717 42.0234 111.236 42.0234C110.756 42.0234 110.366 42.413 110.366 42.8936C110.366 43.3741 110.756 43.7637 111.236 43.7637C111.717 43.7637 112.107 43.3741 112.107 42.8936Z" fill="#CEB3BB"/>
<path d="M111.062 42.8936C111.062 42.7975 110.985 42.7194 110.888 42.7194C110.792 42.7194 110.714 42.7975 110.714 42.8936C110.714 42.9896 110.792 43.0675 110.888 43.0675C110.985 43.0675 111.062 42.9896 111.062 42.8936Z" fill="#785F69"/>
<path d="M111.758 42.8936C111.758 42.7975 111.681 42.7194 111.584 42.7194C111.488 42.7194 111.41 42.7975 111.41 42.8936C111.41 42.9896 111.488 43.0675 111.584 43.0675C111.681 43.0675 111.758 42.9896 111.758 42.8936Z" fill="#785F69"/>
<path d="M104.478 44.853C104.871 44.853 105.19 44.5333 105.19 44.1403V41.6465C105.19 41.2535 104.871 40.9339 104.478 40.9339H101.984C101.591 40.9339 101.271 41.2535 101.271 41.6465V44.1403C101.271 44.5333 101.591 44.853 101.984 44.853H104.478Z" fill="#FFFBFD"/>
<path d="M101.49 44.1404V41.6465C101.49 41.374 101.711 41.1531 101.984 41.1531H104.478C104.75 41.1531 104.971 41.374 104.971 41.6465V44.1404C104.971 44.4129 104.75 44.6339 104.478 44.6339H101.984C101.711 44.6339 101.49 44.4129 101.49 44.1404ZM104.478 45.0723C104.991 45.0723 105.41 44.6542 105.41 44.1404V41.6465C105.41 41.1327 104.991 40.7148 104.478 40.7148H101.984C101.47 40.7148 101.052 41.1327 101.052 41.6465V44.1404C101.052 44.6542 101.47 45.0723 101.984 45.0723H104.478Z" fill="#F3CF8D"/>
<path d="M104.101 42.8936C104.101 42.413 103.711 42.0234 103.231 42.0234C102.75 42.0234 102.361 42.413 102.361 42.8936C102.361 43.3741 102.75 43.7637 103.231 43.7637C103.711 43.7637 104.101 43.3741 104.101 42.8936Z" fill="#CEB3BB"/>
<path d="M103.057 42.8936C103.057 42.7975 102.979 42.7194 102.883 42.7194C102.786 42.7194 102.708 42.7975 102.708 42.8936C102.708 42.9896 102.786 43.0675 102.883 43.0675C102.979 43.0675 103.057 42.9896 103.057 42.8936Z" fill="#785F69"/>
<path d="M103.753 42.8936C103.753 42.7975 103.675 42.7194 103.579 42.7194C103.482 42.7194 103.405 42.7975 103.405 42.8936C103.405 42.9896 103.482 43.0675 103.579 43.0675C103.675 43.0675 103.753 42.9896 103.753 42.8936Z" fill="#785F69"/>
<path d="M6.96164 9.95166H11.7913C12.4989 9.95166 13.0812 9.41726 13.1582 8.73014H5.59497C5.67185 9.41726 6.2541 9.95166 6.96164 9.95166Z" fill="#39638C"/>
<path d="M100.748 9.95166C101.456 9.95166 102.038 9.41726 102.115 8.73014H94.3948C94.4716 9.41726 95.0538 9.95166 95.7613 9.95166H100.748Z" fill="#39638C"/>
<path d="M26.1454 9.95166C26.8531 9.95166 27.4356 9.41726 27.5125 8.73014H17.8228C17.8995 9.41726 18.4817 9.95166 19.1892 9.95166H26.1454Z" fill="#39638C"/>
<path d="M86.9614 9.95166C87.6691 9.95166 88.2516 9.41726 88.3284 8.73014H73.9375C74.0142 9.41726 74.5964 9.95166 75.304 9.95166H86.9614Z" fill="#39638C"/>
<path d="M33.7993 43.9306C33.8446 43.9565 33.8942 43.9688 33.943 43.9688C34.0448 43.9688 34.1438 43.9154 34.1975 43.8204C34.277 43.68 34.2277 43.5017 34.0872 43.4221L28.4224 40.2136C28.2818 40.1341 28.1037 40.1835 28.0241 40.3239C27.9446 40.4644 27.9939 40.6426 28.1344 40.7223L33.7993 43.9306Z" fill="#FAC00A"/>
<path d="M117.498 62.0612V59.143H0V62.0612H117.498Z" fill="#EF3028"/>
<path d="M8.15356 26.0913H22.3724V16.517H8.15356V26.0913Z" fill="#C9E5DE"/>
<path d="M15.2604 26.095H8.15063L8.15341 26.0913H15.2632L15.2604 26.095Z" fill="#F6DB78"/>
<path d="M78.5871 26.0913H71.4773L78.6042 16.5237C78.6042 16.5237 81.7163 16.517 83.8177 16.517C84.8683 16.517 85.6663 16.5186 85.6961 16.5237L78.5871 26.0913Z" fill="#C9E5DE"/>
<path d="M78.5844 26.095H71.4746L71.4774 26.0913H78.5872L78.5844 26.095Z" fill="#F6DB78"/>
<path d="M83.166 26.0913H80.9272L88.0541 16.5237C88.0541 16.5237 89.0013 16.517 89.6594 16.517C89.9883 16.517 90.2451 16.5186 90.2749 16.5237L83.166 26.0913Z" fill="#C9E5DE"/>
<path d="M83.1633 26.095H80.9246L80.9273 26.0913H83.1661L83.1633 26.095Z" fill="#F6DB78"/>
<path d="M106.742 26.0913H104.503L111.321 16.8088V20.1196L106.742 26.0913Z" fill="#C9E5DE"/>
<path d="M106.739 26.095H104.5L104.503 26.0913H106.742L106.739 26.095ZM111.321 20.1196V16.8088L111.348 16.7732C111.348 16.7732 111.348 19.8519 111.348 20.0856L111.321 20.1196Z" fill="#F6DB78"/>
<path d="M36.7431 88.3231V74.6095C36.7431 73.8985 37.3212 73.3203 38.0319 73.3203H60.5966C61.3071 73.3203 61.8851 73.8985 61.8851 74.6095V88.3231C61.8851 89.0339 61.3071 89.6121 60.5966 89.6121H38.0319C37.3212 89.6121 36.7431 89.0339 36.7431 88.3231ZM60.5966 90.3428C61.7099 90.3428 62.6158 89.4368 62.6158 88.3231V74.6095C62.6158 73.4956 61.7099 72.5896 60.5966 72.5896H38.0319C36.9183 72.5896 36.0125 73.4956 36.0125 74.6095V88.3231C36.0125 89.4368 36.9183 90.3428 38.0319 90.3428H60.5966Z" fill="#FFFBFD"/>
<path d="M63.4218 29.4809C63.4218 28.9737 63.0107 28.5624 62.5035 28.5624C61.9963 28.5624 61.5852 28.9737 61.5852 29.4809C61.5852 29.9881 61.9963 30.3992 62.5035 30.3992C63.0107 30.3992 63.4218 29.9881 63.4218 29.4809Z" fill="#4A3A49"/>
<path d="M60.7981 29.4809C60.7981 28.9737 60.3868 28.5624 59.8793 28.5624C59.3724 28.5624 58.9612 28.9737 58.9612 29.4809C58.9612 29.9881 59.3724 30.3992 59.8793 30.3992C60.3868 30.3992 60.7981 29.9881 60.7981 29.4809Z" fill="#4A3A49"/>
<path d="M58.1739 29.4809C58.1739 28.9737 57.7628 28.5624 57.2556 28.5624C56.7485 28.5624 56.3372 28.9737 56.3372 29.4809C56.3372 29.9881 56.7485 30.3992 57.2556 30.3992C57.7628 30.3992 58.1739 29.9881 58.1739 29.4809Z" fill="#4A3A49"/>
<path d="M46.6131 31.5144H39.5085L42.4774 27.5289H49.5744L46.6131 31.5144Z" fill="#DCCFD4"/>
<path d="M117.498 62.0612V59.143H0V62.0612H117.498Z" fill="#EF3028"/>
<path d="M117.498 59.869V59.143H0V59.869H117.498Z" fill="#F14725"/>
<path d="M34.4326 10.6473V9.92121H0V10.6473H34.4326Z" fill="#F14725"/>
<path d="M117.352 9.92121H64.7798V10.6473H117.352V9.92121Z" fill="#F14725"/>
<path d="M57.4682 29.3103V28.397C57.4682 28.2759 57.37 28.1778 57.249 28.1778C57.128 28.1778 57.0298 28.2759 57.0298 28.397V29.3103C57.0298 29.4315 57.128 29.5295 57.249 29.5295C57.37 29.5295 57.4682 29.4315 57.4682 29.3103Z" fill="#B09FA9"/>
<path d="M60.0986 29.3103V28.397C60.0986 28.2759 60.0004 28.1778 59.8794 28.1778C59.7584 28.1778 59.6602 28.2759 59.6602 28.397V29.3103C59.6602 29.4315 59.7584 29.5295 59.8794 29.5295C60.0004 29.5295 60.0986 29.4315 60.0986 29.3103Z" fill="#B09FA9"/>
<path d="M62.6925 29.3103V28.397C62.6925 28.2759 62.5943 28.1778 62.4733 28.1778C62.3524 28.1778 62.2542 28.2759 62.2542 28.397V29.3103C62.2542 29.4315 62.3524 29.5295 62.4733 29.5295C62.5943 29.5295 62.6925 29.4315 62.6925 29.3103Z" fill="#B09FA9"/>
<path d="M46.6545 67.0126V66.0993C46.6545 65.9783 46.5563 65.8801 46.4353 65.8801C46.3143 65.8801 46.2161 65.9783 46.2161 66.0993V67.0126C46.2161 67.1338 46.3143 67.2318 46.4353 67.2318C46.5563 67.2318 46.6545 67.1338 46.6545 67.0126Z" fill="#B09FA9"/>
<path d="M39.2748 67.0126V66.0993C39.2748 65.9783 39.1766 65.8801 39.0556 65.8801C38.9346 65.8801 38.8364 65.9783 38.8364 66.0993V67.0126C38.8364 67.1338 38.9346 67.2318 39.0556 67.2318C39.1766 67.2318 39.2748 67.1338 39.2748 67.0126Z" fill="#B09FA9"/>
<path d="M50.5636 67.0126V66.0993C50.5636 65.9783 50.4654 65.8801 50.3444 65.8801C50.2234 65.8801 50.1252 65.9783 50.1252 66.0993V67.0126C50.1252 67.1338 50.2234 67.2318 50.3444 67.2318C50.4654 67.2318 50.5636 67.1338 50.5636 67.0126Z" fill="#B09FA9"/>
<path d="M54.4726 67.0126V66.0993C54.4726 65.9783 54.3744 65.8801 54.2534 65.8801C54.1324 65.8801 54.0342 65.9783 54.0342 66.0993V67.0126C54.0342 67.1338 54.1324 67.2318 54.2534 67.2318C54.3744 67.2318 54.4726 67.1338 54.4726 67.0126Z" fill="#B09FA9"/>
<path d="M58.6718 67.3721L59.3785 66.7934C59.472 66.7167 59.4859 66.5786 59.4092 66.4849C59.3327 66.3914 59.1944 66.3775 59.1007 66.4542L58.394 67.0329C58.3005 67.1096 58.2866 67.2477 58.3633 67.3413C58.4066 67.3943 58.4695 67.4216 58.533 67.4216C58.5818 67.4216 58.631 67.4054 58.6718 67.3721Z" fill="#B09FA9"/>
<path d="M70.2479 55.9302C69.0986 55.9302 68.9136 56.023 68.9136 56.8089V57.2473C68.9136 56.4614 69.0986 56.3687 70.2479 56.3687C70.6612 56.3687 70.6217 56.6493 70.6217 56.8858C70.6217 57.3804 71.0852 57.3439 71.8248 57.3439H73.5382H93.8127H95.5263C96.2657 57.3439 96.7292 57.3804 96.7292 56.8858C96.7292 56.8422 96.6316 56.3687 97.1032 56.3687C98.2147 56.3687 98.4375 56.4614 98.4375 57.2473V56.8089C98.4375 56.023 98.2147 55.9302 97.1032 55.9302C96.6316 55.9302 96.7292 56.4037 96.7292 56.4474C96.7292 56.942 96.2657 56.9053 95.5263 56.9053H93.8127H73.5382H71.8248C71.0852 56.9053 70.6217 56.942 70.6217 56.4474C70.6217 56.2108 70.6612 55.9302 70.2479 55.9302Z" fill="#FFFBFD"/>
<path d="M65.1202 32.3517C65.3612 32.3517 65.5586 32.1633 65.5586 31.9332C65.5586 31.7029 65.3612 31.5145 65.1202 31.5145H33.7026C33.4613 31.5145 33.2642 31.7029 33.2642 31.9332C33.2642 32.1633 33.4613 32.3517 33.7026 32.3517H65.1202Z" fill="#4A3A49"/>
</svg>
