<svg width="252" height="85" viewBox="0 0 252 85" fill="none" xmlns="http://www.w3.org/2000/svg">
<path d="M177.151 52.5066H176.355V83.7676H177.151V52.5066Z" fill="#3F3D56"/>
<path d="M184.488 56.4905C184.539 67.4217 176.813 76.3188 176.813 76.3188C176.813 76.3188 169.004 67.493 168.954 56.5617C168.903 45.6305 176.629 36.7334 176.629 36.7334C176.629 36.7334 184.438 45.5592 184.488 56.4905Z" fill="#79A45C"/>
<path opacity="0.1" d="M184.488 56.4905C184.539 67.4217 176.813 76.3188 176.813 76.3188C176.813 76.3188 169.004 67.493 168.954 56.5617C168.903 45.6305 176.629 36.7334 176.629 36.7334C176.629 36.7334 184.438 45.5592 184.488 56.4905Z" fill="black"/>
<path d="M93.5207 80.2917C94.1941 82.7696 96.5007 84.3042 96.5007 84.3042C96.5007 84.3042 97.7155 81.8214 97.0421 79.3436C96.3687 76.8657 94.0621 75.3311 94.0621 75.3311C94.0621 75.3311 92.8473 77.8139 93.5207 80.2917Z" fill="#3F3D56"/>
<path d="M94.5102 79.7592C96.358 81.5497 96.5837 84.3022 96.5837 84.3022C96.5837 84.3022 93.8135 84.1516 91.9657 82.3611C90.1178 80.5706 89.8921 77.8181 89.8921 77.8181C89.8921 77.8181 92.6623 77.9687 94.5102 79.7592Z" fill="#79A45C"/>
<path d="M13.4195 61.666L11.7749 58.9375L27.1254 45.8403H66.5985V49.6601L52.3444 64.9405L35.8971 68.2146L13.4195 61.666Z" fill="#3F3D56"/>
<path d="M73.3932 53.526V44.9878H68.2252V47.6802L66.5985 45.8401L53.4408 58.9374L51.2476 61.1201L48.5066 72.0345L53.4408 84.04H78.6594V59.483L73.3932 53.526Z" fill="#CCCCCC"/>
<path d="M53.4407 58.9375H11.7749V84.0404H53.4407V58.9375Z" fill="#F2F2F2"/>
<path d="M47.6844 66.8501H38.9126V74.4901H47.6844V66.8501Z" fill="#3F3D56"/>
<path d="M35.3491 66.5774H27.6738V84.0402H35.3491V66.5774Z" fill="#CCCCCC"/>
<path d="M18.902 69.3058V66.5774H15.6128V69.3058H18.6277H18.902Z" fill="#3F3D56"/>
<path d="M18.6277 71.4885H15.6128V74.2173H18.902V71.4885H18.6277Z" fill="#3F3D56"/>
<path d="M24.3841 66.5774H21.0947V69.306H24.3841V66.5774Z" fill="#3F3D56"/>
<path d="M24.3841 71.4888H21.0947V74.2173H24.3841V71.4888Z" fill="#3F3D56"/>
<path d="M65.2276 69.5789V66.8501H61.938V69.5789H64.9533H65.2276Z" fill="#3F3D56"/>
<path d="M64.9533 71.7617H61.938V74.4901H65.2276V71.7617H64.9533Z" fill="#3F3D56"/>
<path d="M70.71 66.8501H67.4207V69.5787H70.71V66.8501Z" fill="#3F3D56"/>
<path d="M70.71 71.7617H67.4207V74.4903H70.71V71.7617Z" fill="#3F3D56"/>
<path d="M99.4378 15.826L96.6968 13.6429L112.047 0H150.972V12.0058L125.753 28.9232L99.4378 15.826Z" fill="#3F3D56"/>
<path d="M158.069 7.65302V0.272642H152.901V2.08024L150.972 0L138.362 13.6429L133.428 16.9174L125.778 72.5553L137.316 84.04H164.129V14.1886L158.069 7.65302Z" fill="#CCCCCC"/>
<path d="M138.363 13.6431H96.6968V84.0401H138.363V13.6431Z" fill="#F2F2F2"/>
<path d="M120.545 66.8501H112.87V84.0401H120.545V66.8501Z" fill="#CCCCCC"/>
<path d="M104.646 71.7616V69.0332H101.357V71.7616H104.372H104.646Z" fill="#3F3D56"/>
<path d="M104.372 73.9443H101.357V76.6732H104.646V73.9443H104.372Z" fill="#3F3D56"/>
<path d="M110.128 69.0332H106.839V71.7617H110.128V69.0332Z" fill="#3F3D56"/>
<path d="M110.128 73.9443H106.839V76.6729H110.128V73.9443Z" fill="#3F3D56"/>
<path d="M127.124 71.7616V69.0332H123.834V71.7616H126.85H127.124Z" fill="#3F3D56"/>
<path d="M126.85 73.9443H123.834V76.6732H127.124V73.9443H126.85Z" fill="#3F3D56"/>
<path d="M132.606 69.0332H129.317V71.7617H132.606V69.0332Z" fill="#3F3D56"/>
<path d="M132.606 73.9443H129.317V76.6729H132.606V73.9443Z" fill="#3F3D56"/>
<path d="M150.149 17.1901V14.4617H146.86V17.1901H149.875H150.149Z" fill="#3F3D56"/>
<path d="M149.875 19.373H146.86V22.1015H150.149V19.373H149.875Z" fill="#3F3D56"/>
<path d="M155.632 14.4617H152.343V17.1902H155.632V14.4617Z" fill="#3F3D56"/>
<path d="M155.632 19.373H152.343V22.1016H155.632V19.373Z" fill="#3F3D56"/>
<path d="M150.149 32.4705V29.7417H146.86V32.4705H149.875H150.149Z" fill="#3F3D56"/>
<path d="M149.875 34.6531H146.86V37.3815H150.149V34.6531H149.875Z" fill="#3F3D56"/>
<path d="M155.632 29.7417H152.343V32.4702H155.632V29.7417Z" fill="#3F3D56"/>
<path d="M155.632 34.6531H152.343V37.3816H155.632V34.6531Z" fill="#3F3D56"/>
<path d="M150.149 47.7503V45.0215H146.86V47.7503H149.875H150.149Z" fill="#3F3D56"/>
<path d="M149.875 49.9331H146.86V52.6615H150.149V49.9331H149.875Z" fill="#3F3D56"/>
<path d="M155.632 45.0215H152.343V47.75H155.632V45.0215Z" fill="#3F3D56"/>
<path d="M155.632 49.9331H152.343V52.6617H155.632V49.9331Z" fill="#3F3D56"/>
<path d="M150.149 63.0301V60.3013H146.86V63.0301H149.875H150.149Z" fill="#3F3D56"/>
<path d="M149.875 65.2129H146.86V67.9413H150.149V65.2129H149.875Z" fill="#3F3D56"/>
<path d="M155.632 60.3018H152.343V63.0303H155.632V60.3018Z" fill="#3F3D56"/>
<path d="M155.632 65.2129H152.343V67.9415H155.632V65.2129Z" fill="#3F3D56"/>
<path d="M133.154 17.1902H101.357V23.7387H133.154V17.1902Z" fill="#3F3D56"/>
<path d="M133.154 30.2874H101.357V36.8359H133.154V30.2874Z" fill="#3F3D56"/>
<path d="M133.154 43.3845H101.357V49.9331H133.154V43.3845Z" fill="#3F3D56"/>
<path d="M133.154 56.4817H101.357V63.0303H133.154V56.4817Z" fill="#3F3D56"/>
<path d="M187.294 15.826L184.553 13.6429L199.903 0H238.828V12.0058L213.609 28.9232L187.294 15.826Z" fill="#3F3D56"/>
<path d="M245.925 7.65302V0.272642H240.757V2.08024L238.828 0L226.218 13.6429L221.284 16.9174L213.634 72.5553L225.172 84.04H251.985V14.1886L245.925 7.65302Z" fill="#CCCCCC"/>
<path d="M226.218 13.6431H184.552V84.0401H226.218V13.6431Z" fill="#F2F2F2"/>
<path d="M208.401 66.8501H200.725V84.0401H208.401V66.8501Z" fill="#CCCCCC"/>
<path d="M192.502 71.7616V69.0332H189.212V71.7616H192.228H192.502Z" fill="#3F3D56"/>
<path d="M192.228 73.9443H189.212V76.6732H192.502V73.9443H192.228Z" fill="#3F3D56"/>
<path d="M197.984 69.0332H194.695V71.7617H197.984V69.0332Z" fill="#3F3D56"/>
<path d="M197.984 73.9443H194.695V76.6729H197.984V73.9443Z" fill="#3F3D56"/>
<path d="M214.979 71.7616V69.0332H211.69V71.7616H214.705H214.979Z" fill="#3F3D56"/>
<path d="M214.705 73.9443H211.69V76.6732H214.979V73.9443H214.705Z" fill="#3F3D56"/>
<path d="M220.462 69.0332H217.172V71.7617H220.462V69.0332Z" fill="#3F3D56"/>
<path d="M220.462 73.9443H217.172V76.6729H220.462V73.9443Z" fill="#3F3D56"/>
<path d="M238.005 17.1901V14.4617H234.716V17.1901H237.731H238.005Z" fill="#3F3D56"/>
<path d="M237.731 19.373H234.716V22.1015H238.005V19.373H237.731Z" fill="#3F3D56"/>
<path d="M243.488 14.4617H240.198V17.1902H243.488V14.4617Z" fill="#3F3D56"/>
<path d="M243.488 19.373H240.198V22.1016H243.488V19.373Z" fill="#3F3D56"/>
<path d="M238.005 32.4705V29.7417H234.716V32.4705H237.731H238.005Z" fill="#3F3D56"/>
<path d="M237.731 34.6531H234.716V37.3815H238.005V34.6531H237.731Z" fill="#3F3D56"/>
<path d="M243.488 29.7417H240.198V32.4702H243.488V29.7417Z" fill="#3F3D56"/>
<path d="M243.488 34.6531H240.198V37.3816H243.488V34.6531Z" fill="#3F3D56"/>
<path d="M238.005 47.7503V45.0215H234.716V47.7503H237.731H238.005Z" fill="#3F3D56"/>
<path d="M237.731 49.9331H234.716V52.6615H238.005V49.9331H237.731Z" fill="#3F3D56"/>
<path d="M243.488 45.0215H240.198V47.75H243.488V45.0215Z" fill="#3F3D56"/>
<path d="M243.488 49.9331H240.198V52.6617H243.488V49.9331Z" fill="#3F3D56"/>
<path d="M238.005 63.0301V60.3013H234.716V63.0301H237.731H238.005Z" fill="#3F3D56"/>
<path d="M237.731 65.2129H234.716V67.9413H238.005V65.2129H237.731Z" fill="#3F3D56"/>
<path d="M243.488 60.3018H240.198V63.0303H243.488V60.3018Z" fill="#3F3D56"/>
<path d="M243.488 65.2129H240.198V67.9415H243.488V65.2129Z" fill="#3F3D56"/>
<path d="M221.01 17.1902H189.212V23.7387H221.01V17.1902Z" fill="#3F3D56"/>
<path d="M221.01 30.2874H189.212V36.8359H221.01V30.2874Z" fill="#3F3D56"/>
<path d="M221.01 43.3845H189.212V49.9331H221.01V43.3845Z" fill="#3F3D56"/>
<path d="M221.01 56.4817H189.212V63.0303H221.01V56.4817Z" fill="#3F3D56"/>
<path d="M8.19693 52.5066H7.40186V83.7676H8.19693V52.5066Z" fill="#3F3D56"/>
<path d="M15.5347 56.4905C15.5854 67.4217 7.85914 76.3188 7.85914 76.3188C7.85914 76.3188 0.0508621 67.493 0.0002476 56.5617C-0.0503669 45.6305 7.67585 36.7334 7.67585 36.7334C7.67585 36.7334 15.4841 45.5592 15.5347 56.4905Z" fill="#79A45C"/>
<path d="M166.814 52.5066H166.019V83.7676H166.814V52.5066Z" fill="#3F3D56"/>
<path d="M174.152 56.4905C174.203 67.4217 166.477 76.3188 166.477 76.3188C166.477 76.3188 158.668 67.493 158.618 56.5617C158.567 45.6305 166.293 36.7334 166.293 36.7334C166.293 36.7334 174.102 45.5592 174.152 56.4905Z" fill="#79A45C"/>
</svg>
