<svg width="131" height="21" viewBox="0 0 131 21" fill="none" xmlns="http://www.w3.org/2000/svg">
<path d="M18.4533 2.88683C18.4533 2.88683 18.9223 7.03637 9.81457 7.52398C4.86577 7.78855 0.127074 10.4058 2.11799 16.7211C3.37869 14.4231 6.85864 9.52724 13.5222 9.84246C13.5222 9.84246 7.0889 10.1444 3.57273 17.7599C6.40896 18.8132 13.2752 20.7316 17.197 16.4532C22.377 10.8001 18.4533 2.88683 18.4533 2.88683Z" fill="#649359"/>
<path d="M3.58793 17.7283C10.6544 17.2734 17.0449 13.7274 19.8395 8.31446C19.6215 5.24982 18.4533 2.88683 18.4533 2.88683C18.4533 2.88683 18.9223 7.03637 9.81457 7.52398C4.86577 7.78855 0.127073 10.4058 2.11799 16.7211C3.37869 14.4231 6.85864 9.52724 13.5222 9.84246C13.5218 9.84241 7.10736 10.1443 3.58793 17.7283Z" fill="#96C18C"/>
<path d="M5.37203 6.57432C5.69695 6.65361 6.04145 6.50912 6.14149 6.25158C6.24153 5.99404 6.05923 5.72098 5.73431 5.64169C5.40939 5.56239 5.0649 5.70688 4.96485 5.96442C4.86481 6.22196 5.04711 6.49502 5.37203 6.57432Z" fill="#649359"/>
<path d="M7.45393 6.42604C7.686 6.48267 7.93206 6.37947 8.00352 6.19552C8.07497 6.01157 7.94476 5.81654 7.71269 5.7599C7.48061 5.70326 7.23455 5.80647 7.1631 5.99042C7.09164 6.17437 7.22185 6.3694 7.45393 6.42604Z" fill="#96C18C"/>
<path d="M8.11077 3.6691C8.69095 3.81069 9.3061 3.55267 9.48474 3.0928C9.66338 2.63293 9.33786 2.14535 8.75767 2.00375C8.17749 1.86216 7.56234 2.12018 7.3837 2.58005C7.20506 3.03992 7.53058 3.5275 8.11077 3.6691Z" fill="#96C18C"/>
<path d="M10.8289 5.79099C11.0145 5.8363 11.2114 5.75373 11.2686 5.60657C11.3257 5.45941 11.2215 5.30338 11.0359 5.25807C10.8502 5.21276 10.6534 5.29532 10.5962 5.44249C10.539 5.58965 10.6432 5.74568 10.8289 5.79099Z" fill="#96C18C"/>
<path d="M14.0328 5.479C14.5666 5.60926 15.1325 5.37189 15.2969 4.9488C15.4612 4.52572 15.1618 4.07713 14.628 3.94687C14.0942 3.8166 13.5283 4.05398 13.3639 4.47706C13.1996 4.90015 13.4991 5.34873 14.0328 5.479Z" fill="#96C18C"/>
<path d="M31.2578 10.072C31.2578 9.10133 31.4678 8.238 31.8878 7.482C32.3078 6.71667 32.8911 6.124 33.6378 5.704C34.3938 5.27467 35.2478 5.06 36.1998 5.06C37.3664 5.06 38.3651 5.368 39.1958 5.984C40.0264 6.6 40.5818 7.44 40.8618 8.504H38.2298C38.0338 8.09333 37.7538 7.78067 37.3898 7.566C37.0351 7.35133 36.6291 7.244 36.1718 7.244C35.4344 7.244 34.8371 7.50067 34.3798 8.014C33.9224 8.52733 33.6938 9.21333 33.6938 10.072C33.6938 10.9307 33.9224 11.6167 34.3798 12.13C34.8371 12.6433 35.4344 12.9 36.1718 12.9C36.6291 12.9 37.0351 12.7927 37.3898 12.578C37.7538 12.3633 38.0338 12.0507 38.2298 11.64H40.8618C40.5818 12.704 40.0264 13.544 39.1958 14.16C38.3651 14.7667 37.3664 15.07 36.1998 15.07C35.2478 15.07 34.3938 14.86 33.6378 14.44C32.8911 14.0107 32.3078 13.418 31.8878 12.662C31.4678 11.906 31.2578 11.0427 31.2578 10.072ZM44.7218 4.64V15H42.3278V4.64H44.7218ZM53.8207 10.968C53.8207 11.192 53.8067 11.4253 53.7787 11.668H48.3607C48.3981 12.1533 48.5521 12.5267 48.8227 12.788C49.1027 13.04 49.4434 13.166 49.8447 13.166C50.4421 13.166 50.8574 12.914 51.0907 12.41H53.6387C53.5081 12.9233 53.2701 13.3853 52.9247 13.796C52.5887 14.2067 52.1641 14.5287 51.6507 14.762C51.1374 14.9953 50.5634 15.112 49.9287 15.112C49.1634 15.112 48.4821 14.9487 47.8847 14.622C47.2874 14.2953 46.8207 13.8287 46.4847 13.222C46.1487 12.6153 45.9807 11.906 45.9807 11.094C45.9807 10.282 46.1441 9.57267 46.4707 8.966C46.8067 8.35933 47.2734 7.89267 47.8707 7.566C48.4681 7.23933 49.1541 7.076 49.9287 7.076C50.6847 7.076 51.3567 7.23467 51.9447 7.552C52.5327 7.86933 52.9901 8.322 53.3167 8.91C53.6527 9.498 53.8207 10.184 53.8207 10.968ZM51.3707 10.338C51.3707 9.92733 51.2307 9.60067 50.9507 9.358C50.6707 9.11533 50.3207 8.994 49.9007 8.994C49.4994 8.994 49.1587 9.11067 48.8787 9.344C48.6081 9.57733 48.4401 9.90867 48.3747 10.338H51.3707ZM54.6077 11.08C54.6077 10.2773 54.757 9.57267 55.0557 8.966C55.3637 8.35933 55.779 7.89267 56.3017 7.566C56.8244 7.23933 57.4077 7.076 58.0517 7.076C58.6024 7.076 59.083 7.188 59.4937 7.412C59.9137 7.636 60.2357 7.93 60.4597 8.294V7.188H62.8537V15H60.4597V13.894C60.2264 14.258 59.8997 14.552 59.4797 14.776C59.069 15 58.5884 15.112 58.0377 15.112C57.403 15.112 56.8244 14.9487 56.3017 14.622C55.779 14.286 55.3637 13.8147 55.0557 13.208C54.757 12.592 54.6077 11.8827 54.6077 11.08ZM60.4597 11.094C60.4597 10.4967 60.2917 10.0253 59.9557 9.68C59.629 9.33467 59.2277 9.162 58.7517 9.162C58.2757 9.162 57.8697 9.33467 57.5337 9.68C57.207 10.016 57.0437 10.4827 57.0437 11.08C57.0437 11.6773 57.207 12.1533 57.5337 12.508C57.8697 12.8533 58.2757 13.026 58.7517 13.026C59.2277 13.026 59.629 12.8533 59.9557 12.508C60.2917 12.1627 60.4597 11.6913 60.4597 11.094ZM69.3457 7.104C70.2603 7.104 70.9883 7.40267 71.5297 8C72.0803 8.588 72.3557 9.4 72.3557 10.436V15H69.9757V10.758C69.9757 10.2353 69.8403 9.82933 69.5697 9.54C69.299 9.25067 68.935 9.106 68.4777 9.106C68.0203 9.106 67.6563 9.25067 67.3857 9.54C67.115 9.82933 66.9797 10.2353 66.9797 10.758V15H64.5857V7.188H66.9797V8.224C67.2223 7.87867 67.549 7.608 67.9597 7.412C68.3703 7.20667 68.8323 7.104 69.3457 7.104ZM76.58 10.072C76.58 9.10133 76.79 8.238 77.21 7.482C77.63 6.71667 78.2134 6.124 78.96 5.704C79.716 5.27467 80.57 5.06 81.522 5.06C82.6887 5.06 83.6874 5.368 84.518 5.984C85.3487 6.6 85.904 7.44 86.184 8.504H83.552C83.356 8.09333 83.076 7.78067 82.712 7.566C82.3574 7.35133 81.9514 7.244 81.494 7.244C80.7567 7.244 80.1594 7.50067 79.702 8.014C79.2447 8.52733 79.016 9.21333 79.016 10.072C79.016 10.9307 79.2447 11.6167 79.702 12.13C80.1594 12.6433 80.7567 12.9 81.494 12.9C81.9514 12.9 82.3574 12.7927 82.712 12.578C83.076 12.3633 83.356 12.0507 83.552 11.64H86.184C85.904 12.704 85.3487 13.544 84.518 14.16C83.6874 14.7667 82.6887 15.07 81.522 15.07C80.57 15.07 79.716 14.86 78.96 14.44C78.2134 14.0107 77.63 13.418 77.21 12.662C76.79 11.906 76.58 11.0427 76.58 10.072ZM95.3641 7.188V15H92.9701V13.936C92.7274 14.2813 92.3961 14.5613 91.9761 14.776C91.5654 14.9813 91.1081 15.084 90.6041 15.084C90.0068 15.084 89.4794 14.9533 89.0221 14.692C88.5648 14.4213 88.2101 14.034 87.9581 13.53C87.7061 13.026 87.5801 12.4333 87.5801 11.752V7.188H89.9601V11.43C89.9601 11.9527 90.0954 12.3587 90.3661 12.648C90.6368 12.9373 91.0008 13.082 91.4581 13.082C91.9248 13.082 92.2934 12.9373 92.5641 12.648C92.8348 12.3587 92.9701 11.9527 92.9701 11.43V7.188H95.3641ZM99.4777 4.64V15H97.0837V4.64H99.4777ZM105.567 12.97V15H104.349C103.481 15 102.804 14.79 102.319 14.37C101.833 13.9407 101.591 13.2453 101.591 12.284V9.176H100.639V7.188H101.591V5.284H103.985V7.188H105.553V9.176H103.985V12.312C103.985 12.5453 104.041 12.7133 104.153 12.816C104.265 12.9187 104.451 12.97 104.713 12.97H105.567ZM114.614 7.188V15H112.22V13.936C111.977 14.2813 111.646 14.5613 111.226 14.776C110.815 14.9813 110.358 15.084 109.854 15.084C109.257 15.084 108.729 14.9533 108.272 14.692C107.815 14.4213 107.46 14.034 107.208 13.53C106.956 13.026 106.83 12.4333 106.83 11.752V7.188H109.21V11.43C109.21 11.9527 109.345 12.3587 109.616 12.648C109.887 12.9373 110.251 13.082 110.708 13.082C111.175 13.082 111.543 12.9373 111.814 12.648C112.085 12.3587 112.22 11.9527 112.22 11.43V7.188H114.614ZM118.728 8.49C119.008 8.06067 119.358 7.72467 119.778 7.482C120.198 7.23 120.664 7.104 121.178 7.104V9.638H120.52C119.922 9.638 119.474 9.76867 119.176 10.03C118.877 10.282 118.728 10.73 118.728 11.374V15H116.334V7.188H118.728V8.49ZM129.686 10.968C129.686 11.192 129.672 11.4253 129.644 11.668H124.226C124.263 12.1533 124.417 12.5267 124.688 12.788C124.968 13.04 125.309 13.166 125.71 13.166C126.307 13.166 126.723 12.914 126.956 12.41H129.504C129.373 12.9233 129.135 13.3853 128.79 13.796C128.454 14.2067 128.029 14.5287 127.516 14.762C127.003 14.9953 126.429 15.112 125.794 15.112C125.029 15.112 124.347 14.9487 123.75 14.622C123.153 14.2953 122.686 13.8287 122.35 13.222C122.014 12.6153 121.846 11.906 121.846 11.094C121.846 10.282 122.009 9.57267 122.336 8.966C122.672 8.35933 123.139 7.89267 123.736 7.566C124.333 7.23933 125.019 7.076 125.794 7.076C126.55 7.076 127.222 7.23467 127.81 7.552C128.398 7.86933 128.855 8.322 129.182 8.91C129.518 9.498 129.686 10.184 129.686 10.968ZM127.236 10.338C127.236 9.92733 127.096 9.60067 126.816 9.358C126.536 9.11533 126.186 8.994 125.766 8.994C125.365 8.994 125.024 9.11067 124.744 9.344C124.473 9.57733 124.305 9.90867 124.24 10.338H127.236Z" fill="#79A45C"/>
</svg>
