<svg width="326" height="306" viewBox="0 0 326 306" fill="none" xmlns="http://www.w3.org/2000/svg">
<g clip-path="url(#clip0)">
<g opacity="0.5">
<path opacity="0.5" d="M192.339 19.2752L62.5562 19.5901C61.1417 19.5932 59.7864 20.1575 58.7884 21.1586C57.7904 22.1598 57.2315 23.516 57.2346 24.9287L57.8249 267.374C57.8287 268.787 58.3942 270.14 59.3971 271.136C60.3999 272.133 61.758 272.69 63.1725 272.687L192.956 272.372C193.656 272.37 194.349 272.231 194.996 271.962C195.642 271.693 196.229 271.299 196.723 270.803C197.218 270.307 197.609 269.719 197.876 269.072C198.142 268.426 198.279 267.733 198.277 267.033L197.687 24.5879C197.683 23.1751 197.118 21.8217 196.115 20.8254C195.112 19.829 193.754 19.2714 192.339 19.2752Z" fill="#808080" fill-opacity="0.82"/>
</g>
<path d="M190.462 22.5873L64.4499 22.8933C61.5105 22.9004 59.1335 25.2861 59.1406 28.2219L59.7144 263.957C59.7215 266.893 62.1101 269.267 65.0495 269.26L191.061 268.954C194.001 268.947 196.378 266.561 196.371 263.625L195.797 27.8901C195.79 24.9543 193.401 22.5802 190.462 22.5873Z" fill="white"/>
<path opacity="0.3" d="M161.8 28.8333C161.411 31.4466 160.099 33.8347 158.101 35.5657C156.102 37.2968 153.549 38.2565 150.904 38.2715L103.703 38.3861C101.057 38.384 98.5002 37.4366 96.4934 35.7153C94.4865 33.994 93.1626 31.6123 92.7609 29.0009L67.7591 29.0616C66.3825 29.0649 65.0636 29.6143 64.0926 30.5889C63.1216 31.5635 62.578 32.8834 62.5813 34.2583L63.1256 257.904C63.1273 258.585 63.2632 259.259 63.5255 259.887C63.7879 260.516 64.1716 261.086 64.6548 261.566C65.1379 262.046 65.711 262.427 66.3414 262.686C66.9717 262.945 67.647 263.077 68.3286 263.076L187.752 262.786C188.434 262.784 189.108 262.648 189.738 262.386C190.367 262.124 190.938 261.741 191.419 261.259C191.899 260.776 192.28 260.204 192.54 259.574C192.799 258.944 192.932 258.27 192.93 257.589L192.386 33.9431C192.384 33.2623 192.248 32.5885 191.986 31.9602C191.723 31.3319 191.34 30.7613 190.857 30.2811C190.373 29.8009 189.8 29.4204 189.17 29.1614C188.54 28.9024 187.864 28.77 187.183 28.7716L161.8 28.8333Z" fill="#96C18C"/>
<path d="M27.3042 44.0516L213.155 196.076L215.597 71.6595L5.70227 64.2308L38.8474 95.9778L249.068 112.113L30.1064 167.229L228.392 231.514L227.649 255.872L23.0422 243.723L29.2375 305.155L119.084 297.148L167.27 0.124756" stroke="white" stroke-width="4" stroke-miterlimit="10"/>
<path d="M140.673 31.6578L111.785 32.0916C111.354 32.098 111.01 32.4523 111.016 32.8829L111.022 33.2244C111.028 33.655 111.383 33.9988 111.814 33.9923L140.702 33.5585C141.133 33.5521 141.477 33.1978 141.471 32.7672L141.466 32.4257C141.459 31.9951 141.104 31.6513 140.673 31.6578Z" fill="#DBDBDB"/>
<path d="M147.936 33.4499C148.567 33.4499 149.078 32.9392 149.078 32.3093C149.078 31.6794 148.567 31.1687 147.936 31.1687C147.305 31.1687 146.794 31.6794 146.794 32.3093C146.794 32.9392 147.305 33.4499 147.936 33.4499Z" fill="#DBDBDB"/>
<g opacity="0.5">
<path opacity="0.5" d="M39.8895 50.9774H38.7185V57.6049H39.8895V50.9774Z" fill="#47E6B1"/>
<path opacity="0.5" d="M42.6218 54.8759V53.7063H35.9862V54.8759H42.6218Z" fill="#47E6B1"/>
</g>
<g opacity="0.5">
<path opacity="0.5" d="M49.2573 92.5288H48.0864V99.1563H49.2573V92.5288Z" fill="#47E6B1"/>
<path opacity="0.5" d="M51.9896 96.4274V95.2578H45.354V96.4274H51.9896Z" fill="#47E6B1"/>
</g>
<g opacity="0.5">
<path opacity="0.5" d="M228.808 38.502H227.637V45.1295H228.808V38.502Z" fill="#47E6B1"/>
<path opacity="0.5" d="M231.541 42.4006V41.231H224.905V42.4006H231.541Z" fill="#47E6B1"/>
</g>
<g opacity="0.5">
<path opacity="0.5" d="M323.268 62.8999H322.097V69.5274H323.268V62.8999Z" fill="#47E6B1"/>
<path opacity="0.5" d="M326 66.7985V65.6289H319.364V66.7985H326Z" fill="#47E6B1"/>
</g>
<path opacity="0.5" d="M4.79701 89.5292C4.47431 89.3888 4.21455 89.1348 4.06718 88.8156C3.91982 88.4963 3.89513 88.1341 3.99781 87.7978C4.01443 87.7463 4.0249 87.6929 4.02901 87.6389C4.0384 87.4849 3.99786 87.3319 3.91339 87.2026C3.82892 87.0734 3.70502 86.9748 3.56004 86.9213C3.41506 86.8679 3.25671 86.8626 3.10844 86.9061C2.96017 86.9496 2.82987 87.0396 2.73684 87.1629C2.70485 87.2066 2.67814 87.2539 2.65726 87.3039C2.51672 87.6262 2.26242 87.8856 1.94278 88.0328C1.62314 88.18 1.26048 88.2047 0.923814 88.1021C0.8722 88.0855 0.818803 88.0751 0.764736 88.071C0.61049 88.0616 0.45732 88.1021 0.327916 88.1864C0.198512 88.2708 0.0997603 88.3946 0.0462781 88.5394C-0.00720416 88.6842 -0.0125676 88.8423 0.0309832 88.9904C0.074534 89.1385 0.164678 89.2686 0.288071 89.3616C0.331852 89.3935 0.379254 89.4202 0.429292 89.4411C0.751993 89.5814 1.01175 89.8354 1.15912 90.1547C1.30649 90.4739 1.33118 90.8361 1.22849 91.1724C1.21187 91.2239 1.2014 91.2773 1.1973 91.3313C1.18791 91.4853 1.22845 91.6383 1.31291 91.7676C1.39738 91.8968 1.52128 91.9954 1.66626 92.0489C1.81124 92.1023 1.9696 92.1076 2.11787 92.0641C2.26613 92.0206 2.39643 91.9306 2.48946 91.8073C2.52145 91.7636 2.54817 91.7163 2.56905 91.6663C2.70959 91.344 2.96388 91.0846 3.28352 90.9374C3.60317 90.7902 3.96583 90.7655 4.3025 90.8681C4.35411 90.8847 4.40751 90.8951 4.46157 90.8992C4.61582 90.9086 4.76898 90.8681 4.89839 90.7838C5.02779 90.6994 5.12654 90.5756 5.18003 90.4308C5.23351 90.286 5.23887 90.1279 5.19532 89.9798C5.15177 89.8317 5.06162 89.7016 4.93823 89.6086C4.89445 89.5767 4.84705 89.55 4.79701 89.5292Z" fill="#4D8AF0"/>
<path opacity="0.5" d="M299.885 163.991C299.562 163.851 299.303 163.597 299.155 163.278C299.008 162.958 298.983 162.596 299.086 162.26C299.102 162.208 299.113 162.155 299.117 162.101C299.126 161.947 299.086 161.794 299.001 161.665C298.917 161.535 298.793 161.437 298.648 161.383C298.503 161.33 298.345 161.325 298.196 161.368C298.048 161.412 297.918 161.502 297.825 161.625C297.793 161.669 297.766 161.716 297.745 161.766C297.605 162.088 297.35 162.348 297.031 162.495C296.711 162.642 296.349 162.667 296.012 162.564C295.96 162.548 295.907 162.537 295.853 162.533C295.699 162.524 295.545 162.564 295.416 162.648C295.287 162.733 295.188 162.857 295.134 163.001C295.081 163.146 295.075 163.304 295.119 163.452C295.163 163.601 295.253 163.731 295.376 163.824C295.42 163.856 295.467 163.882 295.517 163.903C295.84 164.043 296.1 164.297 296.247 164.617C296.395 164.936 296.419 165.298 296.316 165.634C296.3 165.686 296.289 165.739 296.285 165.793C296.276 165.947 296.316 166.1 296.401 166.23C296.485 166.359 296.609 166.458 296.754 166.511C296.899 166.564 297.058 166.57 297.206 166.526C297.354 166.483 297.484 166.393 297.577 166.269C297.609 166.226 297.636 166.178 297.657 166.128C297.798 165.806 298.052 165.547 298.372 165.399C298.691 165.252 299.054 165.228 299.391 165.33C299.442 165.347 299.496 165.357 299.55 165.361C299.704 165.371 299.857 165.33 299.986 165.246C300.116 165.161 300.215 165.038 300.268 164.893C300.322 164.748 300.327 164.59 300.283 164.442C300.24 164.294 300.15 164.164 300.026 164.071C299.982 164.039 299.935 164.012 299.885 163.991Z" fill="#4D8AF0"/>
<path opacity="0.5" d="M279.198 45.0857C278.875 44.9454 278.615 44.6914 278.468 44.3721C278.321 44.0529 278.296 43.6907 278.399 43.3544C278.415 43.3028 278.426 43.2495 278.43 43.1955C278.439 43.0415 278.399 42.8885 278.314 42.7592C278.23 42.63 278.106 42.5313 277.961 42.4779C277.816 42.4245 277.657 42.4192 277.509 42.4626C277.361 42.5061 277.231 42.5962 277.138 42.7194C277.106 42.7632 277.079 42.8105 277.058 42.8605C276.917 43.1828 276.663 43.4422 276.344 43.5894C276.024 43.7366 275.661 43.7613 275.325 43.6587C275.273 43.6421 275.22 43.6317 275.166 43.6276C275.011 43.6182 274.858 43.6587 274.729 43.743C274.599 43.8274 274.501 43.9511 274.447 44.0959C274.394 44.2408 274.388 44.3989 274.432 44.547C274.475 44.6951 274.565 44.8252 274.689 44.9181C274.733 44.9501 274.78 44.9768 274.83 44.9976C275.153 45.138 275.413 45.392 275.56 45.7112C275.707 46.0305 275.732 46.3927 275.629 46.729C275.613 46.7805 275.602 46.8339 275.598 46.8879C275.589 47.0419 275.629 47.1949 275.714 47.3242C275.798 47.4534 275.922 47.552 276.067 47.6055C276.212 47.6589 276.37 47.6642 276.519 47.6207C276.667 47.5772 276.797 47.4872 276.89 47.364C276.922 47.3202 276.949 47.2729 276.97 47.2229C277.11 46.9006 277.365 46.6412 277.684 46.494C278.004 46.3468 278.367 46.3221 278.703 46.4247C278.755 46.4413 278.808 46.4517 278.862 46.4558C279.017 46.4652 279.17 46.4247 279.299 46.3404C279.429 46.256 279.527 46.1322 279.581 45.9874C279.634 45.8426 279.64 45.6845 279.596 45.5364C279.553 45.3883 279.462 45.2582 279.339 45.1652C279.295 45.1333 279.248 45.1066 279.198 45.0857Z" fill="#4D8AF0"/>
<path opacity="0.5" d="M288.566 112.92C288.243 112.78 287.983 112.526 287.836 112.207C287.688 111.888 287.664 111.525 287.766 111.189C287.783 111.137 287.793 111.084 287.798 111.03C287.807 110.876 287.766 110.723 287.682 110.594C287.597 110.465 287.474 110.366 287.329 110.313C287.184 110.259 287.025 110.254 286.877 110.297C286.729 110.341 286.598 110.431 286.505 110.554C286.473 110.598 286.447 110.645 286.426 110.695C286.285 111.017 286.031 111.277 285.711 111.424C285.392 111.571 285.029 111.596 284.692 111.493C284.641 111.477 284.587 111.466 284.533 111.462C284.379 111.453 284.226 111.493 284.096 111.578C283.967 111.662 283.868 111.786 283.815 111.931C283.761 112.075 283.756 112.234 283.8 112.382C283.843 112.53 283.933 112.66 284.057 112.753C284.1 112.785 284.148 112.811 284.198 112.832C284.521 112.973 284.78 113.227 284.928 113.546C285.075 113.865 285.1 114.227 284.997 114.564C284.98 114.615 284.97 114.669 284.966 114.723C284.956 114.877 284.997 115.03 285.081 115.159C285.166 115.288 285.29 115.387 285.435 115.44C285.58 115.494 285.738 115.499 285.886 115.455C286.035 115.412 286.165 115.322 286.258 115.199C286.29 115.155 286.317 115.108 286.338 115.058C286.478 114.735 286.732 114.476 287.052 114.329C287.372 114.181 287.734 114.157 288.071 114.259C288.123 114.276 288.176 114.286 288.23 114.29C288.384 114.3 288.538 114.259 288.667 114.175C288.796 114.091 288.895 113.967 288.949 113.822C289.002 113.677 289.007 113.519 288.964 113.371C288.92 113.223 288.83 113.093 288.707 113C288.663 112.968 288.616 112.941 288.566 112.92Z" fill="#4D8AF0"/>
<path opacity="0.5" d="M28.1796 166.211C29.4731 166.211 30.5216 165.164 30.5216 163.872C30.5216 162.58 29.4731 161.533 28.1796 161.533C26.8862 161.533 25.8376 162.58 25.8376 163.872C25.8376 165.164 26.8862 166.211 28.1796 166.211Z" fill="#F55F44"/>
<path opacity="0.5" d="M228.028 89.0202C229.321 89.0202 230.37 87.9729 230.37 86.681C230.37 85.3892 229.321 84.3419 228.028 84.3419C226.734 84.3419 225.686 85.3892 225.686 86.681C225.686 87.9729 226.734 89.0202 228.028 89.0202Z" fill="#4D8AF0"/>
<path opacity="0.5" d="M247.154 148.278C248.447 148.278 249.496 147.231 249.496 145.939C249.496 144.647 248.447 143.6 247.154 143.6C245.86 143.6 244.812 144.647 244.812 145.939C244.812 147.231 245.86 148.278 247.154 148.278Z" fill="#47E6B1"/>
<path opacity="0.5" d="M5.15026 25.0841C6.44369 25.0841 7.49223 24.0369 7.49223 22.745C7.49223 21.4531 6.44369 20.4059 5.15026 20.4059C3.85682 20.4059 2.80829 21.4531 2.80829 22.745C2.80829 24.0369 3.85682 25.0841 5.15026 25.0841Z" fill="#F55F44"/>
<path d="M198.898 89.3211L190.223 89.6571L190.656 100.797L199.331 100.461L198.898 89.3211Z" fill="#96C18C"/>
<path d="M159.764 128.337C159.764 128.337 147.75 122.604 147.942 127.555C148.135 132.506 160.052 135.764 160.052 135.764L159.764 128.337Z" fill="#FFB9B9"/>
<path d="M166.356 170.231C166.356 170.231 160.688 184.087 158.593 194.086C156.499 204.084 153.31 217.844 157.412 227.603C161.515 237.361 173.178 266.042 173.299 269.137C173.419 272.231 172.3 275.374 174.778 275.278C177.257 275.182 190.745 270.94 191.293 269.059C191.84 267.179 186.691 262.419 186.691 262.419L173.975 222.622L187.242 196.695L196.812 235.374L198.686 283.649C198.686 283.649 207.885 280.814 209.22 283.241C209.22 283.241 213.342 277.503 213.865 275.003C214.389 272.504 211.919 224.872 211.919 224.872C211.919 224.872 220.362 170.619 213.546 170.883C206.73 171.147 180.031 154.825 166.356 170.231Z" fill="#2F2E41"/>
<path d="M174.682 272.802C174.682 272.802 168.394 286.682 167.799 287.325C167.203 287.968 163.106 294.325 166.204 294.205C169.302 294.085 176.618 290.702 182.003 285.535C187.388 280.368 194.487 271.415 193.844 270.82C193.2 270.225 188.79 268.537 188.79 268.537L174.682 272.802Z" fill="#2F2E41"/>
<path d="M199.805 280.507C199.805 280.507 199.426 286.72 198.282 289.244C197.139 291.767 197.283 295.481 200.382 295.361C203.48 295.241 211.488 293.691 211.488 293.691C211.488 293.691 211.963 289.953 211.319 289.358C210.676 288.764 207.933 282.052 209.1 280.147C210.267 278.242 199.805 280.507 199.805 280.507Z" fill="#2F2E41"/>
<path d="M204.389 78.881C204.389 78.881 210.994 89.1624 213.568 91.5421C216.143 93.9217 208.899 99.161 208.899 99.161L195.935 100.903C195.935 100.903 196.098 89.1195 195.43 87.9057C194.762 86.6919 204.389 78.881 204.389 78.881Z" fill="#FFB9B9"/>
<path d="M193.12 92.3341C193.12 92.3341 195.791 97.1894 198.269 97.0934C200.748 96.9974 213.569 91.5421 214.116 89.6614C214.664 87.7807 218.363 103.133 218.363 103.133L186.992 158.275L179.339 152.992L183.047 120.617L186.092 103.144L193.12 92.3341Z" fill="#96C18C"/>
<path d="M215.273 141.683C214.022 144.298 213.24 147.024 213.349 149.816C213.353 149.939 213.358 150.063 213.369 150.187C213.666 155.915 215.779 162.54 216.537 167.358C217.087 170.814 216.93 173.336 214.905 173.929C209.996 175.359 215.621 176.381 196.628 182.695C177.635 189.009 174.32 183.559 174.272 182.321C174.224 181.083 176.962 171.68 176.318 171.085C175.674 170.49 167.312 178.872 164.785 177.73C162.258 176.588 164.497 170.303 164.497 170.303C164.497 170.303 170.189 157.066 170.068 153.971C169.948 150.877 178.691 136.282 178.691 136.282L184.637 97.6214C184.637 97.6214 186.923 92.5741 189.997 91.8352C193.072 91.0963 195.622 92.857 195.622 92.857L190.478 104.213L185.05 124.259L185.958 131.661C185.958 131.661 192.27 118.4 196.415 113.281C200.561 108.162 209.399 96.0425 209.399 96.0425C209.399 96.0425 211.463 89.0885 209.905 87.0104C208.347 84.9261 216.403 84.6141 219.837 93.1589C221.658 97.6876 224.613 104.441 226.465 110.729C228.115 116.299 228.894 121.507 227.259 124.483C224.761 129.03 218.477 135.007 215.273 141.683Z" fill="#575A89"/>
<path opacity="0.1" d="M227.259 124.483C224.761 129.03 218.477 135.007 215.273 141.683C214.436 138.672 213.416 135.557 213.416 135.557C213.416 135.557 209.5 114.634 221.082 109.227C223.001 109.041 224.92 109.577 226.465 110.729C228.115 116.299 228.894 121.507 227.259 124.483Z" fill="black"/>
<path d="M181.284 123.165L171.466 126.024L157.833 126.552L156.431 138.384L178.835 139.995C178.835 139.995 184.431 124.282 181.284 123.165Z" fill="#575A89"/>
<path d="M197.295 162.945C197.295 162.945 184.159 165.122 187.157 169.07C190.155 173.018 201.792 168.867 201.792 168.867L197.295 162.945Z" fill="#FFB9B9"/>
<path opacity="0.1" d="M213.369 150.187C213.666 155.915 215.779 162.54 216.537 167.358C212.353 171.313 208.373 174.802 206.874 174.86C203.776 174.98 198.794 174.553 196.959 175.244C195.124 175.935 194.048 164.2 194.048 164.2C194.048 164.2 195.143 160.438 200.028 158.39C203.326 157.004 209.647 153.244 213.369 150.187Z" fill="black"/>
<path d="M220.938 105.513C220.938 105.513 231.424 103.867 230.857 121.245C230.291 138.622 231.963 149.715 227.745 152.977C223.528 156.24 209.828 171.027 206.73 171.147C203.631 171.267 198.65 170.84 196.815 171.531C194.98 172.222 193.904 160.486 193.904 160.486C193.904 160.486 194.999 156.725 199.884 154.676C204.77 152.627 216.279 145.363 216.183 142.888C216.087 140.412 213.271 131.843 213.271 131.843C213.271 131.843 209.356 110.92 220.938 105.513Z" fill="#575A89"/>
<path d="M195.142 94.1051C202.677 94.1051 208.785 88.0044 208.785 80.4788C208.785 72.9532 202.677 66.8525 195.142 66.8525C187.607 66.8525 181.499 72.9532 181.499 80.4788C181.499 88.0044 187.607 94.1051 195.142 94.1051Z" fill="#FFB9B9"/>
<path d="M185.956 60.9484C185.627 61.2316 185.233 61.4291 184.809 61.5234C184.596 61.5613 184.376 61.5135 184.199 61.3906C184.021 61.2676 183.899 61.0794 183.86 60.8671C183.548 61.5136 183.196 62.2027 182.558 62.5344C181.921 62.8662 180.936 62.588 180.844 61.8761C180.751 62.4166 180.511 62.9214 180.151 63.3357C179.756 63.7122 179.039 63.8073 178.694 63.3843C178.973 64.9077 178.801 66.4743 178.888 68.0204C178.976 69.5666 179.389 71.2057 180.558 72.2224C182.264 73.7052 184.829 73.3392 187.073 73.0583C187.412 72.9872 187.764 73.0064 188.093 73.1141C188.934 73.4716 188.895 74.6396 188.907 75.5516C188.975 77.1518 189.609 78.676 190.696 79.8534C191.784 81.0309 193.253 81.7855 194.845 81.9833C195.735 82.1205 196.644 81.899 197.371 81.3674C198.008 80.8281 198.333 79.9491 199.063 79.544C200.251 78.885 201.691 79.8461 202.559 80.8896C203.427 81.9331 204.283 83.2168 205.628 83.4078C207.406 83.6604 208.761 81.8499 209.426 80.1828C210.343 77.8463 210.782 75.35 210.718 72.8412C210.654 70.3324 210.087 67.8618 209.052 65.5751C205.338 57.4891 192.651 56.2101 185.956 60.9484Z" fill="#2F2E41"/>
<path d="M173.534 97.6771C171.723 110.731 144.838 138.029 144.838 138.029C144.838 138.029 124.512 104.195 126.323 91.1417C126.746 88.04 127.778 85.0521 129.359 82.3491C130.94 79.6462 133.039 77.2812 135.536 75.3897C138.033 73.4981 140.88 72.1172 143.912 71.3259C146.944 70.5346 150.103 70.3485 153.208 70.7782C156.312 71.208 159.302 72.2452 162.004 73.8303C164.707 75.4155 167.07 77.5176 168.958 80.0162C170.846 82.5148 172.222 85.3609 173.007 88.3914C173.793 91.4219 173.972 94.5774 173.534 97.6771Z" fill="#808080" fill-opacity="0.37"/>
<path d="M171.985 98.09C170.286 110.334 145.068 135.94 145.068 135.94C145.068 135.94 126.002 104.204 127.702 91.9599C128.098 89.0501 129.065 86.2469 130.548 83.711C132.03 81.1752 133.999 78.9563 136.342 77.1816C138.685 75.4069 141.355 74.1113 144.199 73.3688C147.044 72.6263 150.007 72.4517 152.92 72.8548C155.832 73.258 158.636 74.231 161.171 75.7182C163.707 77.2054 165.923 79.1776 167.694 81.5217C169.465 83.8658 170.756 86.5359 171.492 89.3789C172.228 92.222 172.396 95.1822 171.985 98.09V98.09Z" fill="#96C18C"/>
<path d="M161.16 94.784C162.01 88.662 157.742 83.0131 151.627 82.1667C145.513 81.3203 139.868 85.597 139.018 91.719C138.169 97.841 142.437 103.49 148.551 104.336C154.665 105.183 160.311 100.906 161.16 94.784Z" fill="white"/>
</g>
<defs>
<clipPath id="clip0">
<rect width="326" height="306" fill="white"/>
</clipPath>
</defs>
</svg>
