<svg width="326" height="255" viewBox="0 0 326 255" fill="none" xmlns="http://www.w3.org/2000/svg">
<g clip-path="url(#clip0)">
<path d="M300.332 61.9869C263.332 7.76738 185.171 -14.2264 108.301 9.46142C67.6628 21.9845 28.4798 47.0762 9.06164 95.662C-25.6504 182.514 47.2319 210.253 94.889 219.093C117.933 223.368 139.637 230.549 159.471 240.326C195.152 257.915 258.311 273.501 305.938 200.234C340.457 147.13 324.978 98.1024 300.332 61.9869Z" fill="#F2F2F2"/>
<path d="M85.8169 72.714C85.7134 71.8523 85.5041 71.0084 85.1942 70.2035C85.1546 70.0512 85.0855 69.9094 84.991 69.7868C84.8965 69.6643 84.7789 69.5639 84.6455 69.4919C84.4673 69.4431 84.2804 69.4409 84.1012 69.4855L81.3063 69.9358C81.0724 69.9471 80.8484 70.0387 80.6686 70.1967C80.3046 70.5999 80.6631 71.249 80.6519 71.8052C80.6394 72.4306 80.1117 72.9382 79.5395 73.1062C78.9554 73.2305 78.3529 73.2226 77.7719 73.0831L73.8638 72.4436C75.0148 72.0566 76.0393 71.3367 76.8203 70.366C77.3346 69.7244 77.6082 68.5266 76.865 68.2228C76.6441 68.159 76.4138 68.1395 76.1862 68.1654C74.4155 68.1799 73.0222 66.6231 71.3646 65.9674C70.3037 65.5749 69.1521 65.5457 68.0745 65.884C66.9969 66.2223 66.0485 66.9107 65.3648 67.8509L67.4467 67.9566C67.6425 67.9452 67.8368 67.9998 68.0012 68.1123C68.4575 68.5071 67.8902 69.2653 67.9545 69.8835C68.038 70.6865 69.0506 70.858 69.8139 70.9392C70.5772 71.0204 71.5456 71.6735 71.1784 72.3829C67.3419 73.7744 63.4379 69.6627 59.4088 70.1688C58.3891 70.2969 57.4262 70.7188 56.4306 70.984C50.3487 72.6045 44.0612 68.281 37.8482 69.1966C36.467 69.4446 35.1095 69.8216 33.7918 70.3232C32.9462 70.6156 32.0642 70.9315 31.4498 71.6096C30.8354 72.2877 30.6016 73.4473 31.1836 74.1563C29.5794 74.2954 27.9644 74.1338 26.4137 73.6789C26.833 73.9243 27.1819 74.2841 27.4236 74.7205C27.6654 75.1569 27.7911 75.6538 27.7876 76.159C25.2827 76.5891 22.8441 77.3721 20.5375 78.4869C20.968 79.2408 21.4708 79.9462 22.0381 80.592L18.8669 82.7374C19.9383 83.0216 20.4922 84.56 19.8692 85.5208C20.9801 85.0004 21.6685 83.6541 22.8564 83.3812C23.6347 83.2024 24.4265 83.5376 25.1648 83.8525C25.9031 84.1675 26.7145 84.4729 27.4788 84.2365C28.2431 84.0001 28.8068 82.9566 28.3211 82.2917C31.5878 81.288 34.9639 80.7326 38.3656 80.6391C38.6281 80.6044 38.8942 80.6576 39.1263 80.7911C39.5692 81.1147 39.4526 81.8134 39.4288 82.3804C39.4049 82.9474 39.8246 83.6926 40.3058 83.4371C39.7397 83.954 40.2236 84.9273 40.7668 85.471C41.31 86.0146 41.9647 86.7648 41.6321 87.4719C41.5453 87.6565 41.3981 87.8042 41.3146 87.9904C41.0681 88.5402 41.4595 89.1811 41.9211 89.5462C42.3827 89.9112 42.9482 90.1664 43.2689 90.6719C43.5895 91.1774 43.4439 92.0623 42.8705 92.1329L41.2407 89.9538C40.6838 90.5618 40.3021 91.3236 40.1397 92.1509C41.868 93.6387 42.128 96.6669 40.6811 98.457C39.9416 99.3718 38.8902 99.9276 37.9724 100.641C37.0547 101.355 36.2055 102.371 36.2078 103.572C36.2118 105.647 36.0508 107.575 36.7893 109.5C38.1511 113.048 39.7234 116.502 41.4968 119.842C41.9625 120.719 42.5644 121.681 43.5078 121.832C42.3155 118.775 41.2422 115.671 40.2879 112.519C40.9095 112.522 41.6278 112.574 41.9921 113.104C42.2939 113.543 42.229 114.14 42.3228 114.673C42.442 115.189 42.6409 115.682 42.9114 116.13L48.605 126.81C49.077 127.696 49.6184 128.646 50.5205 129.005C51.0972 129.234 51.7645 129.191 52.2953 129.521C52.7114 129.779 52.9917 130.239 53.4158 130.482C54.6152 131.171 56.2831 129.85 57.404 130.672C57.7245 130.908 57.9283 131.281 58.2236 131.551C59.2589 132.495 60.957 131.863 62.1521 132.567C62.9223 133.021 63.3214 133.929 63.7322 134.752C64.7612 136.812 66.4262 138.831 68.6315 138.995C69.3242 139.046 70.0318 138.908 70.7089 139.07C71.386 139.233 72.0526 139.855 71.9439 140.577C71.7576 141.815 72.3385 143.171 72.1825 144.414C71.8983 146.678 68.8488 147.673 68.5868 149.94C68.5295 150.436 68.6193 150.949 68.507 151.435C68.3695 152.03 67.9448 152.515 67.7939 153.107C67.508 154.228 68.2711 155.345 69.1094 156.099C69.9477 156.854 70.9476 157.504 71.4059 158.561C71.8903 159.677 71.6524 160.979 71.8099 162.195C72.1539 164.85 74.3317 166.819 76.573 168.088C77.2558 168.475 77.989 168.849 78.431 169.52C79.0079 170.396 78.9504 171.55 79.1431 172.596C79.6148 175.158 81.6631 177.269 81.7212 179.878C81.7626 181.733 80.7836 183.415 80.1988 185.165C79.6506 186.842 79.4522 188.623 79.6172 190.388C79.7822 192.152 80.3067 193.859 81.1549 195.39C81.5924 196.168 82.1156 196.902 82.425 197.745C82.9772 199.25 82.7981 200.96 83.3072 202.482C83.9804 204.494 85.8301 206.155 85.6531 208.28C86.4928 210.116 88.3472 211.019 90.2118 211.565L93.5537 212.545C94.1936 212.732 94.8623 212.921 95.5138 212.786C96.1654 212.65 96.7872 212.08 96.7704 211.381C95.1316 210.992 93.4402 210.578 92.0893 209.526C90.7384 208.475 89.813 206.602 90.3255 204.917C90.5632 204.136 91.0689 203.234 90.5881 202.588C90.3129 202.219 89.8096 202.122 89.4991 201.785C89.0149 201.259 89.1812 200.375 89.5294 199.741C89.8775 199.107 90.3807 198.54 90.5211 197.823C90.592 197.421 90.5446 197.007 90.3854 196.634C90.2261 196.262 89.9626 195.95 89.6301 195.74C90.2497 195.494 90.8133 195.113 91.2842 194.622C91.7192 194.099 91.9201 193.293 91.5779 192.698C92.5941 192.834 93.7938 192.9 94.4608 192.082C94.9935 191.428 94.9569 190.451 94.7464 189.618C94.5359 188.786 94.1802 187.978 94.1691 187.116C96.5132 187.233 98.8624 187.149 101.194 186.865C100.857 185.67 100.09 184.66 99.0579 184.049C100.114 183.861 101.076 182.53 101.409 181.458C101.743 180.387 101.658 179.22 101.451 178.113C101.372 177.828 101.361 177.527 101.42 177.237C101.539 176.838 101.911 176.594 102.255 176.386L107.496 173.217C107.809 173.052 108.092 172.831 108.334 172.565C108.883 171.886 108.802 170.861 108.521 170.019C108.239 169.178 107.789 168.387 107.681 167.502C107.357 164.856 110.046 162.958 110.954 160.468C111.31 159.491 111.383 158.428 111.452 157.384C111.526 156.262 111.531 154.959 110.713 154.237C109.929 153.544 108.704 153.698 107.884 153.054C107.132 152.463 106.873 151.315 106.051 150.838C105.305 150.405 104.369 150.68 103.539 150.476C102.078 150.118 101.159 148.344 99.6664 148.18C98.8244 148.087 97.8715 148.521 97.1815 148.004C96.5734 147.549 96.549 146.635 96.4333 145.859C96.2305 144.653 95.6815 143.541 94.8605 142.674C94.0394 141.806 92.9856 141.225 91.841 141.007C90.9729 140.861 90.028 140.916 89.2894 140.414C88.5416 139.905 88.1988 138.953 87.6114 138.248C86.6646 137.113 85.1736 136.71 83.7768 136.364L78.0954 134.957C77.0868 134.708 75.7868 134.575 75.2456 135.506C75.0854 135.86 74.972 136.236 74.9085 136.622C74.7057 137.322 74.2976 137.935 73.7428 138.375C73.188 138.815 72.515 139.058 71.8207 139.07C71.3446 138.214 70.5732 137.586 69.6675 137.315C69.0914 137.146 68.4747 137.127 67.9253 136.878C67.6261 136.725 67.3598 136.508 67.1427 136.242C66.9257 135.976 66.7625 135.667 66.6631 135.332C66.5637 134.997 66.5302 134.645 66.5646 134.296C66.5991 133.947 66.7007 133.609 66.8634 133.304C67.191 132.689 67.3175 131.979 67.2234 131.281C67.1293 130.584 66.8199 129.939 66.3429 129.445C65.3767 128.531 63.979 128.311 62.6835 128.402C62.3442 127.622 62.9115 126.743 63.5229 126.176C64.1343 125.61 64.8767 125.053 65.0098 124.207C65.2192 122.876 63.6066 121.865 62.3823 122.262C61.1579 122.658 60.3764 123.911 59.8598 125.145C59.5634 125.854 59.3114 126.6 58.8439 127.197C58.3764 127.794 57.6235 128.222 56.9113 128.03C55.9031 127.759 55.5138 126.497 55.2906 125.427C54.9913 123.991 54.6902 122.535 54.7529 121.066C54.8156 119.598 55.2858 118.089 56.3143 117.095C57.9902 115.475 60.5612 115.634 62.823 115.892C62.2886 115.258 62.4206 114.19 62.9924 113.593C63.2942 113.311 63.6569 113.11 64.049 113.009C64.441 112.907 64.8507 112.908 65.2424 113.011C65.924 113.16 66.538 113.547 66.9855 114.108C67.6283 114.934 67.811 116.048 68.2968 116.984C68.7827 117.921 69.8751 118.72 70.7692 118.217C71.5415 117.783 71.6641 116.656 71.4719 115.756C71.2797 114.857 70.8714 113.982 70.941 113.064C71.0739 111.31 72.7999 110.255 74.323 109.533C75.8462 108.81 77.5902 107.839 77.8315 106.099C77.8398 105.758 77.9008 105.421 78.0123 105.101C78.1812 104.818 78.4159 104.586 78.6942 104.425C83.1395 101.332 87.6587 98.2005 92.7394 96.5101C93.0037 96.4222 93.0348 96.5199 93.3042 96.451C93.6812 96.2215 93.4314 95.5868 93.0699 95.3311C92.7084 95.0753 92.2253 94.8792 92.1336 94.431C92.0662 94.1014 92.2505 93.7779 92.2984 93.4446C92.4161 92.6256 91.4857 91.8694 90.7632 92.1968C90.3551 91.6277 91.1626 90.9663 91.8156 90.777C93.7764 90.2087 95.7892 89.8625 97.8198 89.7441C98.0541 89.7049 98.2942 89.7479 98.503 89.8665C98.844 90.1153 98.8005 90.6859 98.5588 91.041C98.3171 91.3961 97.9411 91.619 97.6399 91.9195C97.3108 92.2571 97.0761 92.6834 96.9613 93.1519C96.8466 93.6203 96.8563 94.113 96.9893 94.5761C98.0493 95.1439 99.2018 95.7284 100.376 95.5284C101.55 95.3284 102.592 93.9392 102.04 92.8298C101.526 91.7966 99.9826 91.5636 99.7171 90.4313C99.4063 89.1055 101.188 87.9264 100.787 86.628C100.611 86.0592 100.073 85.7245 99.6599 85.3139C99.1721 84.8104 98.8403 84.1633 98.7081 83.4577C98.5758 82.752 98.6493 82.0208 98.9189 81.3599C98.2461 81.4846 97.5548 81.4375 96.9029 81.2226C96.251 81.0078 95.6575 80.6315 95.1722 80.1252C94.276 79.1728 93.5611 77.6704 92.2885 77.713C91.1207 77.7521 90.1148 79.1869 89.0229 78.7492C88.7542 78.6415 88.471 78.4223 88.2107 78.5507C88.1254 78.609 88.0538 78.687 88.0013 78.7788C87.9488 78.8705 87.9168 78.9736 87.9078 79.0803C87.6303 80.4774 88.1076 82.0692 87.3845 83.2765C86.5977 84.5902 84.7777 84.7724 83.8238 85.957C83.3059 86.6001 83.1053 87.4666 82.6293 88.1446C82.1534 88.8226 81.1432 89.2537 80.572 88.6628C80.8527 88.0551 80.9294 87.3651 80.7894 86.7055C80.6495 86.046 80.3013 85.4559 79.8016 85.0318C79.2713 84.6674 78.6997 84.3746 78.1001 84.1602C77.4301 83.8616 76.7928 83.4875 76.1992 83.0446C75.9019 82.8557 75.6602 82.5834 75.5014 82.2583C75.3757 81.8511 75.3926 81.41 75.5491 81.0148C75.8387 80.1404 76.3497 79.3658 77.0268 78.7748C77.7039 78.1838 78.5215 77.7988 79.3912 77.6613C80.1517 77.5524 81.0369 77.5908 81.5402 76.9806C81.8065 76.6577 81.9462 76.1695 82.3328 76.0384C82.58 75.9861 82.8367 76.0194 83.0645 76.1333L85.9032 77.1855C86.2199 77.336 86.5685 77.3968 86.9144 77.3616C87.0859 77.3373 87.2423 77.2455 87.3523 77.1048C87.4623 76.9641 87.5176 76.7848 87.5072 76.6029C87.4165 76.1064 86.6912 75.8682 86.7572 75.3675C86.7942 75.2052 86.877 75.0586 86.9948 74.947C88.0192 73.7987 89.272 72.9032 90.6636 72.3246C92.0551 71.7459 93.5509 71.4984 95.0439 71.5997C95.4022 72.2194 94.8356 72.9532 94.3641 73.4821C93.8926 74.0111 93.5137 74.9563 94.0839 75.3635C94.3176 75.4891 94.5775 75.5507 94.8397 75.5427C95.5386 75.6424 96.2178 75.8593 96.8515 76.1853C97.8324 76.6348 98.7945 77.1267 99.7377 77.6609C99.6544 77.0059 99.5749 76.3159 99.8106 75.7036C100.046 75.0912 100.716 74.6108 101.302 74.8493C101.866 75.0792 102.155 75.8656 102.756 75.9376C103.557 76.0337 103.873 74.7868 103.539 74.0139C103.204 73.2411 102.541 72.5939 102.486 71.7464C102.448 71.1747 102.655 70.4656 102.221 70.1194C102.067 70.0154 101.892 69.9508 101.71 69.9304L90.8807 67.832C90.2376 67.7074 89.3085 67.8029 89.28 68.4908C89.2641 68.8747 89.5898 69.2546 89.4456 69.6076C89.2916 69.9844 88.7858 69.95 88.4174 70.0832C87.8458 70.29 87.559 71.0048 87.6139 71.6386C87.7144 72.2684 87.946 72.867 88.2921 73.3914C87.5878 73.0812 86.5213 73.0242 85.8169 72.714Z" fill="#3F3D56"/>
<path d="M77.1765 63.0339C76.4936 62.7959 75.7578 62.7849 75.0687 63.0022C74.3797 63.2195 73.7708 63.6546 73.3245 64.2487C73.1462 64.4959 72.9965 64.8367 73.1457 65.1044C73.3598 65.4882 73.9051 65.3366 74.3071 65.1993C74.898 64.977 75.5412 64.9609 76.1415 65.1532C76.519 65.2897 76.8567 65.531 77.2359 65.6623C77.4204 65.7436 77.6225 65.7704 77.8205 65.74C78.0185 65.7095 78.2048 65.6229 78.3596 65.4894C78.6198 65.2099 78.6361 64.7754 78.6366 64.384C78.6546 64.253 78.6447 64.1195 78.6075 63.9931C78.5703 63.8667 78.5067 63.7506 78.4215 63.6534C78.2697 63.5608 78.0992 63.5077 77.924 63.4984C77.5317 63.422 77.177 63.2037 76.9211 62.8814" fill="#3F3D56"/>
<path d="M81.081 61.889C80.9282 61.8802 80.7759 61.913 80.6385 61.9842C80.5012 62.0553 80.3836 62.1625 80.297 62.2954C80.2104 62.4283 80.1578 62.5824 80.1441 62.7429C80.1304 62.9034 80.1561 63.065 80.2189 63.212C80.6882 63.3467 81.1785 63.3804 81.6605 63.3109C81.9009 63.2716 82.1248 63.1583 82.3041 62.9852C82.4834 62.812 82.6101 62.5869 82.6681 62.3381C82.1006 62.4469 81.5151 62.3291 81.0256 62.0078" fill="#3F3D56"/>
<path d="M94.1819 59.977C92.9045 60.263 91.6637 60.7069 90.4852 61.2994C91.0408 61.5243 91.5131 61.9312 91.8324 62.4601C92.1518 62.989 92.3014 63.6119 92.2591 64.2371C92.2093 64.4771 92.2151 64.7262 92.276 64.9634C92.4117 65.31 92.8052 65.4401 93.151 65.529C93.7724 65.7282 94.4213 65.8154 95.0703 65.787C95.3949 65.7691 95.7102 65.6663 95.9876 65.4878C96.265 65.3093 96.4957 65.0607 96.6589 64.7647C96.753 64.4837 96.8633 64.2091 96.9893 63.9423C97.8183 62.6127 100.281 64.2204 101.171 62.9353C101.485 62.4826 101.456 61.8012 101.865 61.4425C102.076 61.2862 102.321 61.1877 102.578 61.1559C104.368 60.7814 106.176 60.5102 107.994 60.3436C108.856 60.2647 109.979 59.9389 109.986 59.0283C106.741 58.3573 103.376 58.8339 100.415 60.3841C99.3486 60.9468 97.9376 62.1305 96.91 61.3845C96.5252 61.1052 96.5443 60.353 96.0147 60.039C95.4733 59.7178 94.7566 59.8484 94.1819 59.977Z" fill="#3F3D56"/>
<path d="M104.793 62.0667L106.316 62.3749C106.036 62.3618 105.756 62.4118 105.496 62.5216C105.235 62.6315 105 62.7985 104.805 63.0117C104.611 63.2249 104.462 63.4792 104.368 63.7578C104.275 64.0365 104.239 64.3329 104.262 64.6274C105.689 65.1291 107.244 64.6409 108.746 64.7076C110.249 64.7743 111.997 65.9045 111.741 67.4649C111.663 67.9368 111.404 68.4083 111.539 68.8657C111.633 69.1862 111.902 69.4137 112.053 69.709C112.369 70.3242 112.117 71.1024 111.718 71.6617C111.319 72.221 110.783 72.6672 110.433 73.2616C109.563 74.7399 110.057 76.651 110.576 78.3025C110.726 78.9265 111.003 79.5088 111.387 80.009C112.155 80.8692 113.407 80.944 114.529 80.9612C115.345 80.9738 116.28 80.9313 116.796 80.2655C117.47 79.3962 116.998 78.0399 117.442 77.0196C117.845 76.0931 118.871 75.6955 119.801 75.4136C121.505 74.8971 123.241 74.458 124.852 73.6778C126.852 72.7091 128.721 71.1993 130.919 71.0746C131.536 71.0396 132.168 71.1163 132.762 70.9384C133.356 70.7604 133.921 70.2195 133.876 69.5709C133.837 69.0166 133.392 68.6096 133.044 68.1918C132.696 67.774 132.423 67.1315 132.743 66.6895L138.505 65.5561C138.096 64.384 137.778 62.8402 138.717 62.0772C139.055 61.8019 139.509 61.6919 139.797 61.3591C140.288 60.7919 140.041 59.8148 139.474 59.3324C138.907 58.85 138.14 58.738 137.413 58.6744C134.887 58.4535 132.346 58.5995 129.814 58.7456C124.866 59.0312 119.917 59.3169 114.969 59.6025C113.973 59.66 112.823 59.5721 111.909 59.93C111.136 60.233 110.586 60.7892 109.701 60.9846C108.068 61.3453 106.271 61.1012 104.793 62.0667Z" fill="#3F3D56"/>
<path d="M132.08 74.745C131.925 74.7191 131.766 74.757 131.637 74.8509C131.551 74.9501 131.5 75.0771 131.492 75.2109C131.394 75.8014 131.511 76.4092 131.82 76.9126C131.978 77.1595 132.195 77.3576 132.45 77.4862C132.705 77.6148 132.987 77.6693 133.269 77.6439C133.955 77.5518 134.46 76.9356 135.091 76.635C136.062 76.172 140.189 75.4502 137.335 73.826C136.351 73.2663 135.715 73.7604 134.94 74.129C134.057 74.6043 133.069 74.8173 132.08 74.745Z" fill="#3F3D56"/>
<path d="M157.085 61.1497C156.752 61.2932 156.473 61.5488 156.292 61.8767C156.209 62.0432 156.19 62.2371 156.238 62.4182C156.287 62.5994 156.4 62.7539 156.554 62.8498C156.678 62.8973 156.81 62.9194 156.942 62.9147L158.298 62.9574C158.874 62.9755 159.593 63.1046 159.748 63.689C159.863 64.1229 159.606 64.6805 159.916 64.9906C160.049 65.0991 160.209 65.1649 160.377 65.1799C160.823 65.3007 161.29 65.3166 161.743 65.2264C162.729 64.9478 162.211 64.3139 162.521 63.7495C162.997 62.8859 162.914 63.4087 163.752 62.9137C164.37 62.5482 165.169 61.8851 164.653 60.9535C163.755 59.3335 158.41 60.4538 157.085 61.1497Z" fill="#3F3D56"/>
<path d="M183.839 60.3354L183.052 60.446C181.277 60.6954 179.492 60.9471 177.782 61.5084C178.522 61.8165 179.299 62.0171 180.09 62.1047C180.526 62.1272 180.958 62.1919 181.383 62.2982C182.138 62.5349 182.899 63.1461 183.628 62.833C184.08 62.6389 184.228 62.1429 184.603 61.8801C184.861 61.6986 185.843 61.4049 185.952 61.2217C186.839 59.7409 184.52 60.2396 183.839 60.3354Z" fill="#3F3D56"/>
<path d="M187.295 64.1022C186.244 64.7213 185.268 65.4735 184.391 66.3422C184.021 66.7083 183.643 67.1636 183.677 67.6969C183.721 68.4057 184.438 68.8168 185.059 69.0938L187.575 70.2156C187.881 69.7626 187.601 69.1372 187.286 68.692C186.97 68.2467 186.595 67.7316 186.735 67.1959C186.894 66.5845 187.602 66.3762 188.195 66.2708C189.163 66.0992 191.772 66.113 191.458 64.4716C191.089 62.5375 188.266 63.5308 187.295 64.1022Z" fill="#3F3D56"/>
<path d="M186.789 173.553C186.549 174.283 186.527 175.143 186.941 175.781C187.406 176.496 188.336 176.763 189.142 176.582C189.943 176.357 190.658 175.873 191.184 175.199C191.666 174.633 192.063 173.993 192.36 173.301C192.774 172.222 193.066 171.096 193.231 169.945L194.012 165.626C194.186 164.66 194.18 161.701 192.495 162.665C192.034 162.928 190.969 165.008 190.486 165.598C189.617 166.661 189.502 167.692 189.044 168.98C188.471 170.593 187.319 171.937 186.789 173.553Z" fill="#3F3D56"/>
<path d="M275.778 195.657C275.227 195.43 274.692 195.162 274.177 194.854C273.661 196.348 273.387 197.922 273.366 199.512L277.138 197.264C277.706 196.926 278.349 196.456 278.337 195.769C278.342 195.685 278.325 195.6 278.289 195.524C278.252 195.449 278.196 195.385 278.128 195.34C278.044 195.304 277.953 195.293 277.864 195.307C277.304 195.356 276.794 195.646 276.267 195.847C275.739 196.049 275.122 196.155 274.638 195.856" fill="#3F3D56"/>
<path d="M295.679 196.991C295.265 197.11 294.861 197.263 294.469 197.448C293.604 197.912 293.015 198.793 292.236 199.404C291.49 199.989 290.593 200.31 289.712 200.622C289.453 200.863 289.572 201.349 289.853 201.561C290.155 201.742 290.502 201.824 290.849 201.797C291.765 201.818 292.729 201.827 293.531 201.362C293.982 201.053 294.405 200.7 294.793 200.307C295.73 199.483 296.856 198.94 297.97 198.415C298.376 198.253 298.751 198.017 299.078 197.717C299.778 196.991 299.827 195.87 298.817 195.623C298.002 195.423 296.456 196.727 295.679 196.991Z" fill="#3F3D56"/>
<path d="M304.472 190.942C304.518 190.443 304.454 189.938 304.288 189.468C304.121 188.998 303.855 188.573 303.509 188.227C303.499 189.227 303.47 190.293 302.936 191.12C302.556 191.709 301.959 192.107 301.542 192.668C301.125 193.229 300.94 194.119 301.429 194.612C301.742 194.862 302.122 195 302.515 195.005C303.489 195.126 304.615 195.193 305.298 194.453C305.671 194.049 305.852 193.45 306.307 193.153C306.476 193.078 306.627 192.964 306.749 192.819C306.937 192.505 306.639 192.091 306.303 191.978C305.967 191.864 305.597 191.918 305.26 191.81C304.923 191.703 304.613 191.303 304.786 190.98" fill="#3F3D56"/>
<path d="M288.844 154.276C288.333 154.406 287.805 154.439 287.283 154.373C286.416 154.205 285.741 153.517 285.042 152.953C283.378 151.619 281.356 150.875 279.266 150.828C277.365 150.79 275.446 151.332 273.578 150.954C273.7 151.669 274.281 152.205 274.9 152.523C275.52 152.842 276.204 153.002 276.826 153.314C277.823 153.819 278.614 154.685 279.054 155.754C279.254 156.247 279.38 156.784 279.684 157.214C280.305 158.094 281.482 158.287 282.52 158.215C283.874 158.121 285.288 157.711 286.548 158.242C287.511 158.648 288.201 159.537 289.006 160.227C289.81 160.918 290.943 161.43 291.867 160.932C290.908 160.605 290.073 159.963 289.484 159.101C288.895 158.239 288.583 157.2 288.594 156.138C289.5 156.226 292.11 156.192 291.969 154.571C291.85 153.197 289.622 154.127 288.844 154.276Z" fill="#3F3D56"/>
<path d="M276.991 165.455C277.151 164.526 278.031 163.705 277.757 162.806C277.568 162.184 276.883 161.877 276.263 161.862C275.643 161.846 275.033 162.041 274.413 162.059C274.01 162.037 273.605 162.043 273.202 162.077C271.971 162.29 271.213 163.649 270.053 164.132C269.347 164.426 268.555 164.37 267.822 164.573C266.156 165.034 265.103 166.691 263.939 168.027C262.058 170.175 259.608 171.68 256.906 172.346C255.959 172.577 254.941 172.724 254.189 173.372C253.192 174.229 252.947 175.699 252.725 177.034C252.112 180.721 251.176 184.34 249.928 187.845L253.882 188.376C254.634 188.477 255.413 188.576 256.137 188.342C256.664 188.133 257.162 187.853 257.621 187.51C259.382 186.358 261.352 185.609 263.406 185.311C264.441 185.161 265.527 185.134 266.498 185.539C267.47 185.944 268.304 186.863 268.385 187.96C268.805 187.823 269.253 187.808 269.681 187.917C270.108 188.027 270.499 188.257 270.813 188.582C271.432 189.247 271.837 190.099 271.972 191.019C272.076 191.588 272.18 192.271 272.682 192.51C273.092 192.705 273.561 192.495 274.009 192.457C275.529 192.329 276.791 194.196 278.285 193.874C279.887 193.529 280.281 191.002 281.844 190.496C282.742 190.205 284.001 190.559 284.431 189.679C284.81 188.904 284.054 188.01 284.132 187.142C284.228 186.073 285.425 185.619 286.348 185.163C289.53 183.591 291.04 179.081 289.498 175.755C288.585 173.784 286.787 172.233 286.455 170.068C286.2 168.403 286.823 166.46 285.815 165.149C285.302 164.482 284.433 164.114 284.128 163.318C283.936 162.817 284.013 162.249 283.91 161.72C283.806 161.191 283.368 160.637 282.872 160.774C281.431 161.173 280.972 165.858 280.2 166.997C279.028 168.728 276.621 167.588 276.991 165.455Z" fill="#3F3D56"/>
<path d="M250.366 156.046C249.874 155.901 249.336 155.758 248.864 155.965C248.393 156.173 248.117 156.902 248.496 157.264C251.457 157.143 254.437 157.022 257.373 157.445C260.756 157.933 264.104 159.142 267.502 158.786C265.561 158.183 263.588 157.701 261.593 157.343L258.267 156.673C257.375 156.477 256.473 156.33 255.566 156.234C253.668 156.069 252.232 156.597 250.366 156.046Z" fill="#3F3D56"/>
<path d="M253.33 145.185C253.085 145.163 252.78 145.145 252.653 145.367C252.531 145.58 252.67 145.861 252.605 146.099C252.516 146.425 252.111 146.508 251.791 146.464C251.472 146.42 251.127 146.313 250.844 146.475C250.701 146.579 250.593 146.728 250.537 146.901C250.481 147.074 250.48 147.262 250.534 147.436C250.649 147.781 250.836 148.095 251.081 148.355C251.499 148.91 251.976 149.414 252.502 149.856C253.52 150.647 254.899 151.028 255.54 152.177C255.63 152.399 255.769 152.596 255.945 152.752C256.253 152.957 256.655 152.801 256.986 152.641L258.147 152.083C258.357 152.003 258.543 151.869 258.69 151.694C258.956 151.315 258.793 150.775 258.57 150.367C258.347 149.959 258.062 149.536 258.11 149.068C258.195 148.233 259.215 147.913 259.634 147.199C260.056 146.479 259.781 145.551 259.83 144.706C259.887 143.718 260.477 142.433 259.528 141.694C258.722 141.067 257.951 141.647 257.372 142.339C256.152 143.8 255.574 145.382 253.33 145.185Z" fill="#3F3D56"/>
<path d="M260.381 130.42C260.777 131.22 261.604 131.697 262.036 132.476C262.505 133.32 262.452 134.41 262.96 135.228C263.482 136.067 264.531 136.513 264.824 137.467C265.143 138.51 264.419 139.776 264.996 140.687C265.104 140.836 265.24 140.959 265.396 141.05C265.551 141.141 265.723 141.196 265.9 141.214C266.077 141.231 266.255 141.209 266.424 141.15C266.592 141.09 266.747 140.995 266.879 140.869C267.123 140.59 267.253 140.221 267.242 139.842C267.232 139.463 267.081 139.104 266.822 138.84C266.48 138.512 265.989 138.37 265.703 137.986C265.555 137.765 265.455 137.511 265.414 137.243C265.258 136.472 265.283 135.672 265.486 134.912C265.563 134.72 265.582 134.507 265.542 134.303C265.413 133.909 264.907 133.881 264.552 133.699C263.746 133.284 263.765 132.085 263.906 131.152C263.812 131.773 261.71 130.716 261.49 130.364C261.053 129.665 261.291 128.316 261.204 127.543C260.26 128.022 259.896 129.443 260.381 130.42Z" fill="#3F3D56"/>
<path d="M239.202 142.722C238.814 142.265 238.23 141.786 237.71 142.062C237.313 142.272 237.204 142.851 237.359 143.289C237.549 143.715 237.841 144.081 238.206 144.352C239.29 145.293 240.457 146.143 241.403 147.237C243.095 149.196 243.992 151.839 245.832 153.643C246.202 154.061 246.692 154.34 247.227 154.438C247.763 154.49 248.366 154.129 248.427 153.565C248.478 153.101 248.171 152.686 247.87 152.342C247.155 151.523 246.373 150.769 245.698 149.913C245.386 149.585 245.19 149.154 245.142 148.692C245.139 148.231 245.538 147.749 245.962 147.863C245.446 147.724 245.064 146.82 244.307 146.65C243.675 146.508 243.522 146.92 242.769 146.58C241.334 145.932 240.208 143.907 239.202 142.722Z" fill="#3F3D56"/>
<path d="M272.93 98.1844C272.519 98.0555 272.114 97.9032 271.718 97.7282C270.652 97.3913 269.242 98.2163 269.384 99.3785C269.478 100.151 270.161 100.671 270.538 101.341C271.097 102.334 270.948 103.594 270.654 104.707C270.582 105.051 270.445 105.377 270.251 105.664C269.979 105.968 269.655 106.213 269.296 106.388C267.856 107.238 266.587 108.373 265.558 109.731C265.446 109.857 265.368 110.012 265.332 110.179C265.281 110.572 265.656 110.858 265.868 111.185C266.338 111.912 265.998 112.89 266.045 113.769C266.037 113.893 266.061 114.017 266.112 114.129C266.163 114.241 266.24 114.338 266.337 114.41C266.62 114.561 266.956 114.304 267.11 114.01C267.62 113.037 267.236 111.476 268.193 111.007C268.374 110.918 268.593 110.88 268.714 110.713C268.905 110.447 268.72 110.054 268.817 109.737C268.963 109.26 269.582 109.239 270.057 109.26C270.876 109.296 271.694 109.181 272.474 108.921C272.781 108.844 273.059 108.675 273.275 108.433C273.561 108.057 273.535 107.523 273.478 107.045C273.192 104.663 272.475 102.36 271.367 100.261C272.207 100.374 273.122 100.472 273.847 100.011C274.253 99.7529 274.74 98.9806 274.538 98.4549C274.22 97.6236 273.645 98.3234 272.93 98.1844Z" fill="#3F3D56"/>
<path d="M165.193 111.287C165.293 111.855 165.392 112.453 165.216 113C165.039 113.547 164.483 114.004 163.958 113.836C163.55 113.706 163.315 113.275 163.025 112.946C161.416 111.116 157.785 112.175 156.791 109.912C156.386 108.988 156.661 107.882 156.385 106.906C156.21 106.343 155.863 105.856 155.397 105.523C154.931 105.19 154.374 105.029 153.812 105.066C153.299 105.144 152.801 105.301 152.331 105.531C149.188 106.857 145.889 107.726 142.523 108.115C141.883 108.156 141.251 108.277 140.638 108.476C139.256 109.004 138.312 110.353 137.64 111.729C136.968 113.106 136.472 114.597 135.571 115.82C134.624 117.105 133.297 118.006 132.06 118.979C131.583 119.303 131.186 119.741 130.901 120.258C130.633 120.838 130.648 121.513 130.669 122.157L130.922 129.99C130.955 130.997 130.995 132.04 131.424 132.942C131.958 134.068 133.014 134.805 133.747 135.799C134.495 136.821 134.884 138.084 134.85 139.374C134.834 139.892 134.785 140.506 135.169 140.831C135.402 140.99 135.675 141.073 135.953 141.069L146.014 141.936C147.783 142.088 149.745 142.339 150.9 143.759C151.446 144.429 151.884 145.393 152.719 145.465C153.077 145.496 153.426 145.341 153.784 145.311C154.688 145.235 155.482 145.958 155.984 146.754C156.742 147.967 157.087 149.416 156.96 150.862C156.878 151.77 156.611 152.653 156.553 153.563C156.334 157.025 159.121 160.034 159.175 163.504C159.207 165.545 158.287 167.452 157.39 169.261C158.838 171.571 157.652 174.646 158.229 177.346C158.775 179.908 160.804 181.913 161.309 184.485C161.54 185.662 161.554 187.11 162.539 187.716C162.972 187.938 163.451 188.039 163.932 188.01C166.829 188.046 169.693 187.359 172.289 186.006C173.508 185.369 174.771 184.418 174.984 183.003C175.156 181.862 174.606 180.586 175.165 179.592C175.825 178.42 177.513 178.513 178.483 177.612C180.056 176.151 178.829 173.364 179.467 171.26C180.04 169.368 182.012 168.363 182.99 166.665C183.375 165.934 183.651 165.146 183.809 164.328C184.257 162.372 184.536 160.377 184.642 158.368C184.668 157.148 184.753 155.929 184.898 154.718C185.952 147.821 192.427 143.203 194.529 136.577C194.73 135.945 194.824 135.102 194.289 134.744C193.972 134.584 193.613 134.545 193.271 134.631L188.634 135.247C188.058 135.324 187.447 135.395 186.918 135.143C186.389 134.891 186.01 134.187 186.29 133.651C187.078 132.149 185.458 130.25 184.738 128.71C182.799 124.564 180.491 120.621 177.843 116.935C177.674 116.746 177.568 116.503 177.541 116.244L178.857 116.29C178.413 114.611 177.68 112.774 176.131 112.16C175.258 111.814 174.291 111.934 173.36 111.987C170.693 112.141 167.833 111.717 165.193 111.287Z" fill="#3F3D56"/>
<path d="M173.362 73.4513C174.06 74.2318 174.842 75.0594 175.852 75.1955C177.636 75.4358 178.918 73.4933 179.735 71.8061C179.765 72.2362 179.954 72.637 180.26 72.9231C180.567 73.2093 180.967 73.3582 181.376 73.3382C181.816 73.2602 182.237 73.0872 182.61 72.8301C186.145 70.7962 190.103 69.7186 194.131 69.694C194.092 69.3727 194.168 69.0477 194.343 68.7818C194.519 68.5158 194.781 68.3277 195.081 68.2537C195.9 68.0827 196.637 68.8283 197.032 69.6027C197.427 70.3771 197.674 71.2748 198.301 71.8545C198.929 72.4341 200.144 72.4089 200.392 71.5695C200.63 70.7636 199.832 70.0763 199.17 69.6012C198.508 69.126 197.809 68.2467 198.256 67.5455C201.639 66.7567 205.044 65.9649 208.507 65.8081C209.096 65.8297 209.684 65.7232 210.233 65.4951C210.761 65.2222 211.18 64.6028 211.038 64.0017C210.283 64.1887 209.491 64.1345 208.765 63.8461C208.039 63.5576 207.411 63.0479 206.96 62.3819C211.765 61.9644 216.875 61.6085 221.133 63.9892C221.644 65.1443 219.04 66.1054 219.737 67.1472C219.959 67.4795 220.404 67.5185 220.79 67.526C223.749 67.5839 226.725 67.6406 229.651 67.1702C230.72 66.9983 231.8 66.7556 232.873 66.895C234.661 67.1272 236.19 68.3834 237.949 68.7929C238.665 68.9596 239.468 68.9653 240.071 68.5268C240.675 68.0883 240.934 67.0899 240.439 66.5199C242.095 64.8107 244.844 65.2343 247.029 66.0526C249.214 66.8709 251.283 68.1905 253.596 68.3729C255.254 68.5037 256.935 68.034 258.574 68.3326C259.603 68.5202 260.561 69.0025 261.568 69.2989C263.471 69.8593 265.484 69.741 267.461 69.768C272.503 69.8395 277.49 70.8831 282.175 72.8469C282.784 73.0559 283.342 73.4033 283.81 73.8646C284.246 74.3562 284.469 75.1201 284.176 75.7178L279.334 74.9729C279.791 75.9184 280.971 76.0796 281.929 76.4058C282.887 76.732 283.881 77.8464 283.305 78.7165C282.267 78.3683 281.326 79.4615 280.801 80.4674C280.277 81.4732 279.637 82.6778 278.549 82.7391C277.575 82.7939 276.396 81.9202 275.761 82.7003C276.639 83.866 277.39 85.131 278.002 86.4719C278.629 87.8485 279.076 89.5831 278.228 90.8216C278.094 91.0427 277.892 91.208 277.655 91.2891C276.963 91.4737 276.513 90.5814 276.016 90.0406C275.39 89.3591 274.443 89.166 273.596 88.8464C272.748 88.5268 271.855 87.898 271.789 86.9525C271.748 86.3642 272.043 85.8173 272.26 85.2736C272.625 84.3571 272.785 83.3643 272.727 82.3723C272.679 81.5743 272.467 80.7441 271.922 80.1865C271.378 79.6289 270.438 79.452 269.854 79.9627C269.581 80.201 269.363 80.5822 269.009 80.5964C268.383 80.6216 267.903 79.4731 267.4 79.8652C267.459 80.2829 267.376 80.7092 267.167 81.0696C265.665 82.4451 263.358 81.8632 261.422 82.3491C260.501 82.6265 259.62 83.0319 258.801 83.5545C258.494 83.6925 258.234 83.923 258.051 84.2168C257.81 84.7114 258.076 85.3448 258.502 85.6737C258.954 85.9655 259.462 86.148 259.989 86.208C262.349 86.6787 264.744 87.4075 266.608 89.0041C268.471 90.6007 269.693 93.24 269.104 95.6925L264.449 91.0085C264.625 92.9752 264.726 94.9473 264.75 96.9249C264.78 97.311 264.729 97.6994 264.602 98.0629C264.27 98.8347 263.371 99.0945 262.583 99.2648C262.363 99.3087 262.155 99.4009 261.973 99.5354C261.79 99.6699 261.636 99.8436 261.521 100.045C261.406 100.247 261.333 100.472 261.307 100.705C261.281 100.938 261.302 101.175 261.368 101.399C261.648 102.36 262.347 103.11 262.986 103.856C263.625 104.603 264.254 105.452 264.338 106.453C264.422 107.455 263.704 108.584 262.752 108.514C262.03 108.461 261.494 107.781 261.186 107.091C260.878 106.401 260.695 105.633 260.232 105.047C258.832 103.273 255.686 104.033 254.431 102.142C254.111 102.524 253.889 102.986 253.787 103.483C253.684 103.981 253.704 104.498 253.844 104.985C254.428 104.601 255.227 104.958 255.666 105.517C256.104 106.076 256.311 106.793 256.655 107.421C257.12 108.269 257.86 109.02 257.925 109.996C257.907 110.365 257.913 110.735 257.942 111.103C258.058 111.695 258.532 112.119 258.861 112.614C259.627 113.764 259.59 115.345 259.096 116.65C258.602 117.955 257.715 119.046 256.837 120.103C255.303 121.95 253.737 123.786 251.918 125.32C251.399 125.757 250.845 126.188 250.522 126.8C250.198 127.411 250.182 128.27 250.679 128.736C250.323 128.755 249.686 128.939 249.33 128.957C249.205 127.456 249.178 125.947 249.249 124.442C247.846 123.732 246.336 125.632 246.517 127.259C246.698 128.887 247.816 130.193 248.612 131.601C249.194 132.63 249.626 133.831 249.432 135.012C249.237 136.192 248.237 137.281 247.103 137.177C245.3 137.012 244.546 134.286 242.76 133.974C242.603 133.935 242.438 133.952 242.29 134.023C242.025 134.176 241.979 134.55 241.964 134.868C241.891 136.428 241.828 138.051 242.407 139.49C243.253 141.595 245.44 143.363 244.981 145.598C242.51 144.388 241.225 141.47 240.642 138.667C240.059 135.865 239.962 132.922 238.916 130.272C238.122 131.344 236.453 130.458 235.728 129.334C235.04 128.268 234.617 127.035 233.95 125.955C233.282 124.875 232.26 123.908 231.038 123.848C229.756 123.786 228.645 124.712 227.667 125.587C226.864 126.307 226.038 127.055 225.569 128.049C224.885 129.497 225.064 131.203 225.031 132.819C224.995 134.567 224.644 136.41 223.513 137.689C222.382 138.969 220.294 139.414 219.047 138.261C218.396 137.659 218.081 136.76 217.8 135.897C216.446 131.736 215.318 127.498 214.423 123.202C214.213 124.182 213.396 125.446 212.615 124.869C212.439 124.713 212.297 124.521 212.198 124.303C210.741 121.703 208.043 120.143 205.317 119.208C202.591 118.273 199.723 117.837 197.027 116.809C195.516 116.233 194.073 115.476 192.727 114.553C192.383 115.084 192.183 115.703 192.146 116.345C192.11 116.986 192.239 117.626 192.52 118.196C193.118 119.311 194.471 119.957 195.629 119.567C196.228 119.365 196.734 118.928 197.327 118.712C197.921 118.496 198.719 118.602 198.978 119.204C199.227 119.781 198.851 120.479 199.038 121.081C199.321 121.998 200.635 122.069 201.095 122.904C201.436 123.525 201.155 124.349 200.667 124.851C200.179 125.352 199.528 125.626 198.932 125.975C196.999 127.107 195.625 129.039 193.936 130.543C192.246 132.046 189.863 133.143 187.85 132.179C188.33 129.62 185.435 127.742 184.903 125.194C184.727 124.356 184.818 123.465 184.568 122.648C184.206 121.465 183.209 120.652 182.392 119.755C181.4 118.656 180.627 117.359 180.119 115.94C179.612 114.522 179.379 113.01 179.434 111.495C179.479 110.443 179.662 109.373 179.435 108.347C179.207 107.32 178.4 106.327 177.4 106.374C175.117 106.48 172.24 106.659 171.043 104.609C170.615 103.878 170.429 102.806 171.047 102.246C171.483 101.85 172.127 101.888 172.7 101.947L177.844 102.48C179.047 102.604 180.348 102.707 181.381 102.045C182.413 101.382 182.861 99.6241 181.905 98.8447C181.206 98.2753 179.954 98.3061 179.751 97.4007C179.582 96.6467 180.375 95.7911 179.947 95.161C179.64 94.7091 178.95 94.8345 178.532 95.1732C178.113 95.5119 177.81 96.0073 177.342 96.2637C176.521 96.7137 175.54 96.2855 174.657 95.9945C173.774 95.7035 172.59 95.6787 172.161 96.5426C171.682 97.5087 172.586 98.7746 172.111 99.7427C171.482 101.023 169.353 100.294 168.47 101.395C167.457 102.658 169.16 104.542 168.818 106.156C168.382 106.383 167.897 106.488 167.411 106.459C166.925 106.43 166.455 106.269 166.045 105.992C165.643 105.704 165.322 105.306 165.117 104.841C164.912 104.376 164.831 103.861 164.882 103.351C164.966 102.625 165.326 101.884 165.085 101.198C164.89 100.643 164.361 100.313 163.87 100.027L158.87 97.1178C158.406 98.0245 158.993 99.1486 159.727 99.8297C160.461 100.511 161.38 101.024 161.862 101.92C162.167 102.541 162.235 103.261 162.053 103.933C161.871 104.606 161.452 105.179 160.881 105.537C160.81 105.589 160.729 105.624 160.643 105.64C160.558 105.656 160.47 105.652 160.386 105.628C160.306 105.579 160.237 105.513 160.181 105.435C160.126 105.357 160.086 105.268 160.064 105.173C159.182 102.796 157.858 100.452 155.741 99.2105C153.623 97.9687 150.581 98.224 149.192 100.316C148.862 100.813 148.641 101.379 148.354 101.904C146.827 104.695 143.555 106.017 140.498 105.93C140.199 105.948 139.901 105.874 139.641 105.718C139.147 105.359 139.169 104.597 139.245 103.969L139.566 101.307C139.63 100.772 139.723 100.182 140.125 99.8478C140.692 99.3774 141.509 99.6743 142.23 99.6633C142.776 99.6364 143.302 99.4332 143.735 99.0812C144.168 98.7292 144.488 98.2456 144.651 97.6958C144.797 97.1405 144.796 96.5539 144.648 95.9992C144.501 95.4445 144.212 94.9426 143.814 94.5478C143.483 94.2208 143.04 93.8101 143.214 93.3693C143.284 93.2474 143.378 93.143 143.49 93.0635C143.602 92.984 143.73 92.9314 143.863 92.9092C145.159 92.513 146.528 92.4092 147.802 91.9417C149.076 91.4742 150.311 90.5178 150.613 89.133C150.705 88.7087 150.747 88.1946 151.109 87.9842C151.291 87.9035 151.486 87.8615 151.683 87.8608C152.374 87.7573 153.003 87.3853 153.446 86.818C153.889 86.2507 154.115 85.5292 154.078 84.7955C154.689 84.3463 155.544 84.6767 156.135 85.1546C156.726 85.6324 157.247 86.2638 157.966 86.4697C159.305 86.8536 160.6 85.6048 161.988 85.599C162.571 85.5966 163.176 85.8139 163.725 85.6055C164.282 85.3942 164.614 84.8107 165.041 84.3795C165.469 83.9484 166.218 83.6854 166.613 84.1498L166.277 81.5292C166.953 81.7092 167.659 81.7347 168.346 81.6039C169.032 81.4732 169.685 81.1892 170.258 80.7711L165.916 79.2261C165.765 79.1864 165.626 79.1078 165.51 78.9975C165.195 78.6395 165.508 78.0817 165.765 77.6748C166.379 76.7013 166.482 75.0978 165.472 74.6131C164.783 74.2823 163.992 74.6794 163.33 75.0679L160.161 76.9288C160.06 77.5632 160.797 77.9227 161.253 78.35C161.529 78.6085 161.725 78.949 161.814 79.3267C161.903 79.7043 161.882 80.1016 161.752 80.4661C161.623 80.8307 161.392 81.1456 161.09 81.3695C160.788 81.5933 160.428 81.7157 160.059 81.7205C160.267 82.0062 160.412 82.3377 160.483 82.6904C160.553 83.0431 160.548 83.4081 160.466 83.7582L158.334 83.9197C158.095 83.9704 157.846 83.9193 157.642 83.7775C157.414 83.5642 157.445 83.1904 157.392 82.8741C157.265 82.1106 156.555 81.5754 155.83 81.4382C155.106 81.301 154.364 81.4769 153.647 81.6505C153.342 81.766 153.008 81.7578 152.708 81.6277C152.537 81.5103 152.406 81.337 152.337 81.1342C152.022 80.331 152.316 79.387 152.822 78.7001C153.327 78.0133 154.019 77.5112 154.64 76.9394C156.125 75.5669 157.216 73.7845 157.79 71.7933C158.964 71.2753 160.179 70.5716 161.353 70.0537C163.163 69.0888 165.193 68.6747 167.214 68.858L171.189 68.938C172.366 68.9616 173.575 68.992 174.663 69.4645C175.752 69.937 176.708 70.959 176.783 72.1961C176.806 72.3362 176.794 72.48 176.75 72.6141C176.705 72.7482 176.629 72.8682 176.528 72.9627C176.374 73.0511 176.2 73.0924 176.025 73.082C174.928 73.1226 174.46 73.4107 173.362 73.4513Z" fill="#3F3D56"/>
<path d="M141.676 86.5715C141.831 86.4167 141.943 86.2198 141.999 86.0024C142.055 85.7851 142.053 85.5557 141.993 85.3394C141.615 85.1859 141.204 85.1464 140.806 85.2256C140.408 85.3047 140.038 85.4993 139.74 85.7875C139.504 86.0383 139.301 86.3209 139.136 86.6278C138.614 87.5253 138.152 88.5973 138.454 89.6005C138.479 89.7099 138.524 89.813 138.587 89.9038C138.65 89.9946 138.73 90.0712 138.821 90.1291C138.957 90.1865 139.103 90.2106 139.249 90.1997C139.825 90.1989 140.4 90.1617 140.971 90.0881C141.322 90.043 141.729 89.9386 141.865 89.595C142.043 89.1432 141.612 88.6319 141.737 88.161C141.82 87.9504 141.945 87.7613 142.105 87.607C142.184 87.5293 142.244 87.4332 142.282 87.3265C142.32 87.2198 142.333 87.1053 142.321 86.9921C142.27 86.7712 141.949 86.6458 141.834 86.8378" fill="#3F3D56"/>
<path d="M144.66 82.4973C144.148 82.3737 143.622 82.3388 143.1 82.3941C142.984 82.3905 142.87 82.4179 142.767 82.4737C142.668 82.5509 142.596 82.6608 142.562 82.7861C142.452 83.1586 142.479 83.5612 142.638 83.9137C142.797 84.2662 143.076 84.5426 143.42 84.688C143.608 84.7334 143.787 84.8093 143.952 84.9132C144.394 85.2737 144.112 86.0106 144.196 86.592C144.29 87.245 144.89 87.7931 144.78 88.4432C144.693 88.9554 144.174 89.361 144.257 89.8737C144.345 90.4108 144.992 90.5722 145.508 90.6152C145.807 90.6703 146.115 90.6332 146.394 90.5082C146.674 90.3066 146.873 90.0029 146.953 89.6557C147.164 88.9938 147.253 88.2953 147.214 87.5982C147.212 87.2811 147.137 86.9694 146.994 86.69C146.839 86.4687 146.667 86.2611 146.479 86.0692C145.491 84.8586 146.532 83.0528 144.66 82.4973Z" fill="#3F3D56"/>
<path opacity="0.8" d="M274.622 177.333C274.622 177.333 198.926 131.577 166.338 140.246C166.338 140.246 97.2749 148.073 89.2709 165.292C89.2709 165.292 67.3169 93.0453 59.3129 90.6371" stroke="#96C18C" stroke-width="2" stroke-miterlimit="10"/>
<path opacity="0.8" d="M89.271 165.292C101.963 129.65 216.307 90.1554 216.307 90.1554C200.07 94.4902 166.338 140.246 166.338 140.246C166.338 140.246 94.9881 85.5798 59.313 90.637C59.313 90.637 216.421 96.0555 274.622 177.333" stroke="#96C18C" stroke-width="2" stroke-miterlimit="10"/>
<path d="M59.3129 94.1291C61.1443 94.1291 62.6289 92.5657 62.6289 90.6372C62.6289 88.7086 61.1443 87.1453 59.3129 87.1453C57.4816 87.1453 55.9969 88.7086 55.9969 90.6372C55.9969 92.5657 57.4816 94.1291 59.3129 94.1291Z" fill="#96C18C"/>
<path d="M89.271 168.783C91.1024 168.783 92.587 167.22 92.587 165.292C92.587 163.363 91.1024 161.8 89.271 161.8C87.4397 161.8 85.9551 163.363 85.9551 165.292C85.9551 167.22 87.4397 168.783 89.271 168.783Z" fill="#96C18C"/>
<path d="M216.306 93.6474C218.138 93.6474 219.622 92.084 219.622 90.1555C219.622 88.227 218.138 86.6636 216.306 86.6636C214.475 86.6636 212.99 88.227 212.99 90.1555C212.99 92.084 214.475 93.6474 216.306 93.6474Z" fill="#96C18C"/>
<path d="M274.622 180.824C276.453 180.824 277.938 179.261 277.938 177.333C277.938 175.404 276.453 173.841 274.622 173.841C272.79 173.841 271.306 175.404 271.306 177.333C271.306 179.261 272.79 180.824 274.622 180.824Z" fill="#96C18C"/>
<path d="M166.338 143.738C168.17 143.738 169.654 142.175 169.654 140.246C169.654 138.318 168.17 136.754 166.338 136.754C164.507 136.754 163.022 138.318 163.022 140.246C163.022 142.175 164.507 143.738 166.338 143.738Z" fill="#96C18C"/>
</g>
<defs>
<clipPath id="clip0">
<rect width="326" height="255" fill="white"/>
</clipPath>
</defs>
</svg>
