<svg width="332" height="281" viewBox="0 0 332 281" fill="none" xmlns="http://www.w3.org/2000/svg">
<g clip-path="url(#clip0)">
<path opacity="0.1" d="M310.078 155.271C297.326 176.325 299.716 205.007 305.317 227.622C307.19 235.194 309.349 243.188 307.747 251.662C305.788 262.024 298.643 270.161 291.413 274.821C278.231 283.295 263.179 283.06 252.218 274.2C242.753 266.547 236.519 253.199 226.855 245.956C210.696 233.833 188.506 241.181 169.239 252.511C155.613 260.508 140.616 270.684 128.022 264.922C119.162 260.876 113.637 249.462 111.059 237.04C109.814 231.043 109.061 224.492 106.207 219.923C104.509 217.207 102.174 215.39 99.7539 213.899C77.6639 200.305 47.7762 211.67 26.4735 196.277C12.0849 185.883 3.90563 164.415 1.21701 141.46C-1.47161 118.504 0.739107 93.9416 3.5068 69.758C5.47686 52.5641 8.14141 34.1702 16.9843 20.1871C26.3395 5.39685 41.0856 -1.21752 53.903 0.186064C66.7203 1.58964 77.8496 9.87778 87.442 20.0081C99.4307 32.6684 110.244 48.8376 125.76 52.922C136.329 55.7046 147.871 52.4834 159.11 50.6623C177.875 47.6165 196.379 48.4902 214.753 49.6342C232.342 50.7289 250.038 52.0904 266.428 58.4065C278.025 62.8804 286.926 72.1932 297.749 78.2496C304.804 82.1972 312.764 82.699 319.337 87.9624C327.434 94.4469 334.441 106.416 331.199 121.547C328.108 135.94 316.845 144.099 310.078 155.271Z" fill="#79A45C"/>
<path d="M228.461 107.683C228.461 107.683 263.186 77.9863 270.908 63.0136C278.63 48.041 288.459 35.1385 288.459 35.1385" stroke="#535461" stroke-width="2" stroke-miterlimit="10"/>
<path d="M283.894 68.6105L268.872 65.1542C268.872 65.1542 272.417 81.3234 283.894 68.6105Z" fill="#79A45C"/>
<path d="M260.941 52.1044L269.584 65.3156C269.584 65.3156 252.686 66.5612 260.941 52.1044Z" fill="#79A45C"/>
<path d="M289.804 56.1922L276.075 53.736C276.075 53.736 284.698 67.1226 289.804 56.1922Z" fill="#79A45C"/>
<path d="M269.488 44.3846L276.251 53.4237C276.251 53.4237 264.279 54.5817 269.488 44.3846Z" fill="#79A45C"/>
<path d="M283.175 42.5846C283.175 42.5846 294.865 43.153 296.24 44.2935C297.615 45.4339 294.497 52.1184 290.051 51.0271C285.606 49.9358 283.175 42.5846 283.175 42.5846Z" fill="#79A45C"/>
<path d="M278.503 31.9209C278.503 31.9209 283.278 40.802 283.099 42.4934C282.921 44.1847 275.821 46.083 274.387 39.6862C272.953 33.2894 278.503 31.9209 278.503 31.9209Z" fill="#79A45C"/>
<path d="M293.353 38.7039C293.894 36.9567 292.945 35.0931 291.233 34.5414C289.521 33.9897 287.695 34.9587 287.154 36.7059C286.614 38.453 287.563 40.3167 289.275 40.8684C290.987 41.4201 292.813 40.451 293.353 38.7039Z" fill="#FFD037"/>
<path d="M288.265 35.2898C288.806 33.5427 287.856 31.6791 286.144 31.1273C284.432 30.5756 282.606 31.5447 282.066 33.2918C281.525 35.039 282.475 36.9026 284.186 37.4543C285.898 38.006 287.724 37.037 288.265 35.2898Z" fill="#FFD037"/>
<path d="M120.149 224.092C120.149 224.092 125.722 207.172 90.392 186.774C90.392 186.774 54.5185 176.097 58.187 139.428C58.187 139.428 16.8331 170.349 44.8161 209.737C72.7991 249.125 96.952 240.528 96.952 240.528L120.149 224.092Z" fill="#79A45C"/>
<path d="M109.377 231.734C109.377 231.734 92.1385 212.719 75.6149 205.368C72.3141 203.852 69.281 201.79 66.6379 199.266C56.1035 189.441 51.5101 174.616 54.2262 160.317L58.1973 139.428" stroke="#535461" stroke-width="2" stroke-miterlimit="10"/>
<path d="M262.563 11.6497H66.3801V244.128H262.563V11.6497Z" fill="#808080" fill-opacity="0.12"/>
<path d="M260.281 14.3551H68.6664V241.416H260.281V14.3551Z" fill="#F7F7FD" fill-opacity="0.92"/>
<path d="M128.679 39.9493H80.2392V43.8864H128.679V39.9493Z" fill="#E2E2EC"/>
<path d="M162.971 49.5743H80.2392V53.5114H162.971V49.5743Z" fill="#E2E2EC"/>
<path d="M251.104 36.1877H216.726V66.4629H251.104V36.1877Z" fill="white"/>
<path d="M250.922 36.3632V66.2875H216.884V36.3632H250.922ZM251.266 36.0123H216.541V66.6384H251.266V36.0123Z" fill="#E2E2EC"/>
<path d="M216.382 36.1877H182.005V66.4629H216.382V36.1877Z" fill="white"/>
<path d="M216.197 36.3632V66.2875H182.159V36.3632H216.197ZM216.541 36.0123H181.815V66.6384H216.541V36.0123Z" fill="#E2E2EC"/>
<path d="M251.104 66.8138H216.726V97.089H251.104V66.8138Z" fill="white"/>
<path d="M250.922 66.9893V96.9136H216.884V66.9893H250.922ZM251.266 66.6384H216.541V97.2645H251.266V66.6384Z" fill="#E2E2EC"/>
<path d="M216.382 66.8138H182.005V97.089H216.382V66.8138Z" fill="white"/>
<path d="M216.197 66.9893V96.9136H182.159V66.9893H216.197ZM216.541 66.6384H181.815V97.2645H216.541V66.6384Z" fill="#E2E2EC"/>
<path d="M181.661 66.8138H147.283V97.089H181.661V66.8138Z" fill="white"/>
<path d="M181.489 66.9893V96.9136H147.451V66.9893H181.489ZM181.833 66.6384H147.107V97.2645H181.833V66.6384Z" fill="#E2E2EC"/>
<path d="M146.939 66.8138H112.561V97.089H146.939V66.8138Z" fill="white"/>
<path d="M146.767 66.9893V96.9136H112.73V66.9893H146.767ZM147.111 66.6384H112.386V97.2645H147.111V66.6384Z" fill="#E2E2EC"/>
<path d="M112.217 66.8138H77.8394V97.089H112.217V66.8138Z" fill="white"/>
<path d="M112.045 66.9893V96.9136H78.0078V66.9893H112.045ZM112.389 66.6384H77.664V97.2645H112.389V66.6384Z" fill="#E2E2EC"/>
<path d="M251.104 97.4364H216.726V127.712H251.104V97.4364Z" fill="white"/>
<path d="M250.922 97.6154V127.54H216.884V97.6154H250.922ZM251.266 97.2645H216.541V127.891H251.266V97.2645Z" fill="#E2E2EC"/>
<path d="M216.382 97.4364H182.005V127.712H216.382V97.4364Z" fill="white"/>
<path d="M216.197 97.6154V127.54H182.159V97.6154H216.197ZM216.541 97.2645H181.815V127.891H216.541V97.2645Z" fill="#E2E2EC"/>
<path d="M181.661 97.4364H147.283V127.712H181.661V97.4364Z" fill="white"/>
<path d="M181.489 97.6154V127.54H147.451V97.6154H181.489ZM181.833 97.2645H147.107V127.891H181.833V97.2645Z" fill="#E2E2EC"/>
<path d="M146.939 97.4364H112.561V127.712H146.939V97.4364Z" fill="white"/>
<path d="M146.767 97.6154V127.54H112.73V97.6154H146.767ZM147.111 97.2645H112.386V127.891H147.111V97.2645Z" fill="#E2E2EC"/>
<path d="M112.217 97.4364H77.8394V127.712H112.217V97.4364Z" fill="white"/>
<path d="M112.045 97.6154V127.54H78.0078V97.6154H112.045ZM112.389 97.2645H77.664V127.891H112.389V97.2645Z" fill="#E2E2EC"/>
<path d="M251.104 128.062H216.726V158.338H251.104V128.062Z" fill="white"/>
<path d="M250.922 128.238V158.162H216.884V128.238H250.922ZM251.266 127.887H216.541V158.513H251.266V127.887Z" fill="#E2E2EC"/>
<path d="M216.382 128.062H182.005V158.338H216.382V128.062Z" fill="white"/>
<path d="M216.197 128.238V158.162H182.159V128.238H216.197ZM216.541 127.887H181.815V158.513H216.541V127.887Z" fill="#E2E2EC"/>
<path d="M181.661 128.062H147.283V158.338H181.661V128.062Z" fill="white"/>
<path d="M181.489 128.238V158.162H147.451V128.238H181.489ZM181.833 127.887H147.107V158.513H181.833V127.887Z" fill="#E2E2EC"/>
<path d="M146.939 128.062H112.561V158.338H146.939V128.062Z" fill="white"/>
<path d="M146.767 128.238V158.162H112.73V128.238H146.767ZM147.111 127.887H112.386V158.513H147.111V127.887Z" fill="#E2E2EC"/>
<path d="M112.217 128.062H77.8394V158.338H112.217V128.062Z" fill="white"/>
<path d="M112.045 128.238V158.162H78.0078V128.238H112.045ZM112.389 127.887H77.664V158.513H112.389V127.887Z" fill="#E2E2EC"/>
<path d="M251.104 158.685H216.726V188.96H251.104V158.685Z" fill="white"/>
<path d="M250.922 158.864V188.785H216.884V158.864H250.922ZM251.266 158.513H216.541V189.136H251.266V158.513Z" fill="#E2E2EC"/>
<path d="M216.382 158.685H182.005V188.96H216.382V158.685Z" fill="white"/>
<path d="M216.197 158.864V188.785H182.159V158.864H216.197ZM216.541 158.513H181.815V189.136H216.541V158.513Z" fill="#E2E2EC"/>
<path d="M181.661 158.685H147.283V188.96H181.661V158.685Z" fill="white"/>
<path d="M181.489 158.864V188.785H147.451V158.864H181.489ZM181.833 158.513H147.107V189.136H181.833V158.513Z" fill="#E2E2EC"/>
<path d="M146.939 158.685H112.561V188.96H146.939V158.685Z" fill="white"/>
<path d="M146.767 158.864V188.785H112.73V158.864H146.767ZM147.111 158.513H112.386V189.136H147.111V158.513Z" fill="#E2E2EC"/>
<path d="M112.217 158.685H77.8394V188.96H112.217V158.685Z" fill="white"/>
<path d="M112.045 158.864V188.785H78.0078V158.864H112.045ZM112.389 158.513H77.664V189.136H112.389V158.513Z" fill="#E2E2EC"/>
<path d="M251.104 189.311H216.726V219.586H251.104V189.311Z" fill="white"/>
<path d="M250.922 189.487V219.411H216.884V189.487H250.922ZM251.266 189.136H216.541V219.762H251.266V189.136Z" fill="#E2E2EC"/>
<path d="M216.382 189.311H182.005V219.586H216.382V189.311Z" fill="white"/>
<path d="M216.197 189.487V219.411H182.159V189.487H216.197ZM216.541 189.136H181.815V219.762H216.541V189.136Z" fill="#E2E2EC"/>
<path d="M181.661 189.311H147.283V219.586H181.661V189.311Z" fill="white"/>
<path d="M181.489 189.487V219.411H147.451V189.487H181.489ZM181.833 189.136H147.107V219.762H181.833V189.136Z" fill="#E2E2EC"/>
<path d="M146.939 189.311H112.561V219.586H146.939V189.311Z" fill="white"/>
<path d="M146.767 189.487V219.411H112.73V189.487H146.767ZM147.111 189.136H112.386V219.762H147.111V189.136Z" fill="#E2E2EC"/>
<path d="M112.217 189.311H77.8394V219.586H112.217V189.311Z" fill="white"/>
<path d="M112.045 189.487V219.411H78.0078V189.487H112.045ZM112.389 189.136H77.664V219.762H112.389V189.136Z" fill="#E2E2EC"/>
<path d="M150.047 247.342C151.03 246.581 151.955 245.682 152.241 244.588C152.387 244.008 152.309 243.394 152.024 242.871C151.739 242.348 151.267 241.958 150.707 241.78C149.301 241.331 147.798 242.131 146.657 242.963C145.516 243.795 144.213 244.717 142.72 244.546C144.264 243.405 145 241.556 144.574 239.875C144.5 239.513 144.32 239.182 144.058 238.928C143.277 238.226 141.861 238.531 140.926 239.079C137.952 240.833 137.123 244.184 137.106 247.212C136.807 246.121 137.058 244.984 137.051 243.861C137.044 242.738 136.676 241.5 135.542 240.896C134.815 240.575 134.029 240.42 133.238 240.444C131.901 240.401 130.412 240.514 129.501 241.328C128.366 242.338 128.662 244.037 129.649 245.149C130.635 246.261 132.138 246.96 133.516 247.728C134.569 248.314 135.634 248.998 136.267 249.925C136.35 250.047 136.419 250.179 136.473 250.318H144.852C146.698 249.549 148.443 248.55 150.047 247.342Z" fill="#79A45C"/>
<path d="M82.3743 73.4177C83.4566 73.4177 84.334 72.5222 84.334 71.4176C84.334 70.313 83.4566 69.4175 82.3743 69.4175C81.292 69.4175 80.4146 70.313 80.4146 71.4176C80.4146 72.5222 81.292 73.4177 82.3743 73.4177Z" fill="#FC6681"/>
<path d="M87.2702 73.4177C88.3525 73.4177 89.2299 72.5222 89.2299 71.4176C89.2299 70.313 88.3525 69.4175 87.2702 69.4175C86.1878 69.4175 85.3104 70.313 85.3104 71.4176C85.3104 72.5222 86.1878 73.4177 87.2702 73.4177Z" fill="#FFD037"/>
<path d="M151.577 103.068C152.659 103.068 153.537 102.173 153.537 101.068C153.537 99.9636 152.659 99.0681 151.577 99.0681C150.495 99.0681 149.617 99.9636 149.617 101.068C149.617 102.173 150.495 103.068 151.577 103.068Z" fill="#79A45C"/>
<path d="M156.476 103.068C157.559 103.068 158.436 102.173 158.436 101.068C158.436 99.9636 157.559 99.0681 156.476 99.0681C155.394 99.0681 154.517 99.9636 154.517 101.068C154.517 102.173 155.394 103.068 156.476 103.068Z" fill="#79A45C"/>
<path d="M256.361 160.369C257.443 160.369 258.321 159.474 258.321 158.369C258.321 157.265 257.443 156.369 256.361 156.369C255.279 156.369 254.401 157.265 254.401 158.369C254.401 159.474 255.279 160.369 256.361 160.369Z" fill="#79A45C"/>
<path d="M257.341 158.04C258.423 158.04 259.301 157.144 259.301 156.039C259.301 154.935 258.423 154.039 257.341 154.039C256.259 154.039 255.381 154.935 255.381 156.039C255.381 157.144 256.259 158.04 257.341 158.04Z" fill="#79A45C"/>
<path d="M258.321 156.039C259.403 156.039 260.281 155.144 260.281 154.039C260.281 152.935 259.403 152.039 258.321 152.039C257.238 152.039 256.361 152.935 256.361 154.039C256.361 155.144 257.238 156.039 258.321 156.039Z" fill="#79A45C"/>
<path d="M221.76 73.4177C222.842 73.4177 223.719 72.5222 223.719 71.4176C223.719 70.313 222.842 69.4175 221.76 69.4175C220.677 69.4175 219.8 70.313 219.8 71.4176C219.8 72.5222 220.677 73.4177 221.76 73.4177Z" fill="#79A45C"/>
<path d="M226.656 73.4177C227.738 73.4177 228.615 72.5222 228.615 71.4176C228.615 70.313 227.738 69.4175 226.656 69.4175C225.573 69.4175 224.696 70.313 224.696 71.4176C224.696 72.5222 225.573 73.4177 226.656 73.4177Z" fill="#79A45C"/>
<path d="M231.555 73.4177C232.637 73.4177 233.515 72.5222 233.515 71.4176C233.515 70.313 232.637 69.4175 231.555 69.4175C230.473 69.4175 229.595 70.313 229.595 71.4176C229.595 72.5222 230.473 73.4177 231.555 73.4177Z" fill="#79A45C"/>
<path d="M236.451 73.4177C237.533 73.4177 238.411 72.5222 238.411 71.4176C238.411 70.313 237.533 69.4175 236.451 69.4175C235.368 69.4175 234.491 70.313 234.491 71.4176C234.491 72.5222 235.368 73.4177 236.451 73.4177Z" fill="#79A45C"/>
<path d="M221.76 135.382C222.842 135.382 223.719 134.487 223.719 133.382C223.719 132.277 222.842 131.382 221.76 131.382C220.677 131.382 219.8 132.277 219.8 133.382C219.8 134.487 220.677 135.382 221.76 135.382Z" fill="#79A45C"/>
<path d="M226.656 135.382C227.738 135.382 228.615 134.487 228.615 133.382C228.615 132.277 227.738 131.382 226.656 131.382C225.573 131.382 224.696 132.277 224.696 133.382C224.696 134.487 225.573 135.382 226.656 135.382Z" fill="#79A45C"/>
<path d="M231.555 135.382C232.637 135.382 233.515 134.487 233.515 133.382C233.515 132.277 232.637 131.382 231.555 131.382C230.473 131.382 229.595 132.277 229.595 133.382C229.595 134.487 230.473 135.382 231.555 135.382Z" fill="#79A45C"/>
<path d="M236.451 135.382C237.533 135.382 238.411 134.487 238.411 133.382C238.411 132.277 237.533 131.382 236.451 131.382C235.368 131.382 234.491 132.277 234.491 133.382C234.491 134.487 235.368 135.382 236.451 135.382Z" fill="#79A45C"/>
<path d="M116.976 103.068C118.058 103.068 118.935 102.173 118.935 101.068C118.935 99.9636 118.058 99.0681 116.976 99.0681C115.893 99.0681 115.016 99.9636 115.016 101.068C115.016 102.173 115.893 103.068 116.976 103.068Z" fill="#FFD037"/>
<path d="M82.3743 133.386C83.4566 133.386 84.334 132.49 84.334 131.385C84.334 130.281 83.4566 129.385 82.3743 129.385C81.292 129.385 80.4146 130.281 80.4146 131.385C80.4146 132.49 81.292 133.386 82.3743 133.386Z" fill="#FC6681"/>
<path d="M254.669 163.387C256.818 164.682 260.17 165.524 264.417 162.741L264.375 168.903C264.678 173.114 269.797 188.522 269.797 188.522L273.407 201.189C275.994 210.138 277.33 219.415 277.375 228.745C277.375 231.836 277.657 235.022 278.527 237.419C280.449 242.721 277.77 249.553 276.608 252.097C274.652 252.771 272.663 253.343 270.65 253.809C270.469 253.852 270.291 253.907 270.117 253.974L270.093 253.939C270.093 253.939 264.674 256.132 262.268 255.83C260.473 255.606 259.349 257.89 260.755 259.571C259.428 259.922 258.066 260.171 257.148 260.055C254.742 259.753 253.535 263.978 258.053 265.185C262.57 266.392 288.167 265.185 288.167 265.185C288.887 264.818 289.467 264.216 289.816 263.476C290.164 262.735 290.261 261.897 290.093 261.094C292.059 261.017 293.287 260.957 293.287 260.957C293.287 260.957 297.804 258.852 293.287 253.107L293.046 253.293L292.08 250.391V246.472C292.08 246.472 297.801 218.4 295.996 215.081C294.191 211.761 293.287 194.859 293.287 194.859L293.899 176.447C295.532 173.009 296.367 167.619 296.79 163.405C297.404 161.394 297.792 159.319 297.945 157.218C298.017 156.229 298.076 155.19 298.114 154.113C298.129 151.75 297.75 149.402 296.993 147.169C298.712 144.642 301.507 140.737 303.814 138.428C307.428 134.807 306.523 130.578 306.523 130.578L305.018 120.315L301.404 102.809C301.858 97.9523 300.864 95.1557 299.767 93.5766C300.029 92.0081 300.273 90.4396 300.455 88.8641C301.256 82.0128 300.899 75.0719 299.4 68.3438C298.877 65.9963 298.165 63.5892 296.553 61.8101C294.727 59.796 291.763 58.5679 291.083 55.9291C290.914 55.273 290.907 54.5747 290.663 53.9431C290.003 52.2167 287.913 51.5886 286.084 51.364C282.824 50.9605 278.111 50.6622 274.978 51.9605C272.792 52.8729 269.78 55.3853 268.584 58.0801C267.896 59.3188 267.576 60.6206 267.868 61.8452C267.984 62.2965 268.158 62.7297 268.388 63.133C267.921 64.4237 267.683 65.789 267.686 67.1648C267.697 69.5297 268.405 71.8365 269.719 73.7848C271.032 75.7331 272.89 77.2327 275.051 78.0881C275.123 78.3197 275.188 78.5478 275.243 78.7724C275.38 79.3131 275.479 79.863 275.539 80.4181C275.48 81.4708 275.415 82.555 275.367 83.6253C275.333 83.7726 275.296 83.9177 275.257 84.0604C272.667 85.2306 270.142 86.545 267.693 87.9974C269.502 90.7133 267.391 102.184 267.391 102.184C262.873 104.9 258.355 111.844 263.175 119.087C267.996 126.329 265.283 134.175 265.283 134.175L264.53 145.976V145.997L264.379 148.358H264.437L264.379 149.253L264.509 149.278V150.239C262.395 151.032 259.304 152.632 257.461 155.59C256.59 157.045 255.529 158.373 254.308 159.538C254.028 159.785 253.81 160.098 253.672 160.449C253.534 160.801 253.48 161.181 253.516 161.558C253.551 161.934 253.674 162.297 253.875 162.615C254.076 162.934 254.348 163.198 254.669 163.387ZM291.031 132.031C290.85 129.99 291.22 127.936 292.1 126.094C292.809 126.108 293.518 126.116 294.229 126.119C294.301 126.627 294.387 127.112 294.49 127.554C295.102 130.214 292.657 131.487 291.028 132.028L291.031 132.031Z" fill="#808080" fill-opacity="0.24"/>
<path d="M291.626 249.016L292.785 252.563L289.003 256.423L276.543 259.381L267.559 258.494L268.14 255.241C268.312 254.541 268.669 253.904 269.172 253.398C269.676 252.892 270.306 252.538 270.994 252.374C274.686 251.49 281.728 249.469 283.206 246.665L291.626 249.016Z" fill="#DB8B8B"/>
<path opacity="0.1" d="M291.626 249.016L292.785 252.563L289.003 256.423L276.543 259.381L267.559 258.494L268.14 255.241C268.312 254.541 268.669 253.904 269.172 253.398C269.676 252.892 270.306 252.538 270.994 252.374C274.686 251.49 281.728 249.469 283.206 246.665L291.626 249.016Z" fill="black"/>
<path d="M270.471 257.592L272.211 255.227L270.471 252.486C270.471 252.486 265.256 254.634 262.938 254.339C260.621 254.044 259.462 258.199 263.808 259.367C268.154 260.536 292.785 259.367 292.785 259.367C292.785 259.367 297.13 257.297 292.785 251.679L289.003 254.637C289.003 254.637 282.628 258.185 279.441 257.595L270.471 257.592Z" fill="#2E3037"/>
<path d="M262.646 262.613L271.63 263.501L284.09 260.543L287.872 256.683L287.566 255.743L287.132 254.423L286.699 253.139L278.296 250.774C277.867 251.489 277.278 252.09 276.577 252.528C273.847 254.434 268.945 255.809 266.067 256.497C265.95 256.526 265.836 256.563 265.723 256.606C265.114 256.815 264.566 257.177 264.129 257.659C263.693 258.141 263.383 258.727 263.227 259.364L262.646 262.613Z" fill="#DB8B8B"/>
<path opacity="0.1" d="M262.646 262.613L271.63 263.501L284.09 260.543L287.872 256.683L287.566 255.743L284.107 258.458C284.107 258.458 277.733 262.006 274.545 261.417H265.544L267.284 259.051L265.723 256.595C265.114 256.804 264.566 257.166 264.129 257.648C263.693 258.13 263.383 258.717 263.227 259.353L262.646 262.613Z" fill="black"/>
<path d="M265.544 261.732L267.284 259.367L265.544 256.627C265.544 256.627 260.329 258.774 258.011 258.479C255.694 258.185 254.535 262.339 258.881 263.508C263.227 264.676 287.858 263.508 287.858 263.508C287.858 263.508 292.204 261.438 287.858 255.82L284.076 258.778C284.076 258.778 277.702 262.325 274.514 261.736L265.544 261.732Z" fill="#2E3037"/>
<path d="M272.788 90.2045C272.788 90.2045 286.699 91.6818 284.671 85.7692C284.103 84.0925 283.956 82.2977 284.241 80.5479C284.602 78.3785 285.442 76.3216 286.699 74.5336L273.658 76.6038C274.44 77.9374 275.035 79.376 275.426 80.8777C276.98 87.1482 272.788 90.2045 272.788 90.2045Z" fill="#DB8B8B"/>
<path d="M296.549 157.632C296.549 157.632 296.261 170.349 293.362 176.56L292.781 194.599C292.781 194.599 293.651 211.161 295.391 214.414C297.13 217.667 291.609 245.17 291.609 245.17V249.904C291.609 249.904 282.326 253.451 279.727 249.311L282.336 214.116L281.177 165.321L296.549 157.632Z" fill="#474463"/>
<path opacity="0.1" d="M296.549 157.632C296.549 157.632 296.261 170.349 293.362 176.56L292.781 194.599C292.781 194.599 293.651 211.161 295.391 214.414C297.13 217.667 291.609 245.17 291.609 245.17V249.904C291.609 249.904 282.326 253.451 279.727 249.311L282.336 214.116L281.177 165.321L296.549 157.632Z" fill="black"/>
<path d="M302.346 116.82L304.086 121.553L305.533 131.61C305.729 133.011 305.594 134.439 305.14 135.776C304.686 137.114 303.927 138.321 302.924 139.298C299.448 142.846 294.81 150.239 294.81 150.239L289.309 133.396C289.309 133.396 294.81 132.508 293.947 128.663C293.084 124.817 293.362 117.694 293.362 117.694L302.346 116.82Z" fill="#FC6681"/>
<path opacity="0.05" d="M302.346 116.82L304.086 121.553L305.533 131.61C305.729 133.011 305.594 134.439 305.14 135.776C304.686 137.114 303.927 138.321 302.924 139.298C299.448 142.846 294.81 150.239 294.81 150.239L289.309 133.396C289.309 133.396 294.81 132.508 293.947 128.663C293.084 124.817 293.362 117.694 293.362 117.694L302.346 116.82Z" fill="black"/>
<path opacity="0.1" d="M276.591 252.532C280.308 258.497 286.094 255.118 287.119 254.444L286.699 253.139L278.296 250.774C277.871 251.489 277.287 252.091 276.591 252.532Z" fill="black"/>
<path d="M264.967 169.166C265.255 173.307 270.182 188.388 270.182 188.388L273.658 200.8C276.149 209.575 277.435 218.661 277.478 227.797C277.478 230.826 277.75 233.949 278.589 236.296C280.906 242.802 276.271 251.676 276.271 251.676C280.328 259.069 287.273 254.041 287.273 254.041V249.311C287.273 249.311 292.774 223.58 291.33 218.555C289.886 213.53 289.302 199.922 289.302 199.922V175.36C293.944 170.639 296.766 164.372 297.254 157.703C297.323 156.734 297.378 155.717 297.416 154.66C297.65 147.993 293.18 140.165 291.433 137.379C291.014 136.705 290.746 136.326 290.746 136.326L265.159 146.685L265.101 146.709V147.72V149.955L264.967 169.166Z" fill="#474463"/>
<path opacity="0.1" d="M273.658 76.6004C274.44 77.934 275.034 79.3725 275.425 80.8743C276.842 81.4228 278.352 81.6762 279.866 81.6195C281.38 81.5629 282.867 81.1973 284.241 80.5444C284.602 78.3762 285.443 76.3206 286.699 74.5336L273.658 76.6004Z" fill="black"/>
<path d="M279.455 81.0322C285.696 81.0322 290.756 75.8683 290.756 69.4983C290.756 63.1283 285.696 57.9644 279.455 57.9644C273.214 57.9644 268.154 63.1283 268.154 69.4983C268.154 75.8683 273.214 81.0322 279.455 81.0322Z" fill="#DB8B8B"/>
<path opacity="0.1" d="M264.967 149.944L265.09 149.969C277.241 152.52 292.496 139.593 292.496 139.593C292.087 138.889 291.734 138.154 291.44 137.393C291.021 136.719 290.753 136.34 290.753 136.34L265.166 146.699L265.101 147.734L264.967 149.944Z" fill="black"/>
<path d="M268.154 89.9063C268.154 89.9063 284.382 79.8496 289.597 83.9902L296.842 93.4644C296.842 93.4644 301.48 94.9416 300.624 104.405L304.086 121.553L293.654 124.217C293.654 124.217 287.569 130.133 292.496 138.709C292.496 138.709 277.138 151.72 264.967 149.06L265.837 135.161C265.837 135.161 268.446 127.473 263.808 120.374C259.17 113.276 263.519 106.476 267.865 103.812C267.865 103.809 269.89 92.5696 268.154 89.9063Z" fill="#FC6681"/>
<path d="M267.284 150.239C267.284 150.239 261.199 151.422 258.3 156.155C257.464 157.575 256.444 158.873 255.268 160.015C255.003 160.26 254.798 160.564 254.669 160.904C254.54 161.244 254.49 161.61 254.523 161.973C254.556 162.336 254.672 162.686 254.861 162.995C255.05 163.305 255.307 163.565 255.612 163.756C257.912 165.159 261.663 166.033 266.4 162.061C274.528 155.267 267.284 150.239 267.284 150.239Z" fill="#DB8B8B"/>
<path opacity="0.1" d="M276.268 95.5276C276.268 95.5276 282.064 94.9346 283.512 110.314C284.959 125.694 287.294 129.242 287.294 129.242C287.294 129.242 288.741 137.228 285.265 141.958C281.789 146.688 275.123 156.745 275.123 156.745C275.123 156.745 267.879 158.815 266.431 151.422L275.415 134.27C275.415 134.27 276.863 128.354 273.387 124.213C269.911 120.073 267.284 92.5695 276.268 95.5276Z" fill="black"/>
<path d="M275.676 94.6398C275.676 94.6398 281.473 94.0468 282.921 109.426C284.368 124.806 286.703 128.354 286.703 128.354C286.703 128.354 288.15 136.34 284.674 141.07C281.198 145.8 274.532 155.857 274.532 155.857C274.532 155.857 267.287 157.927 265.84 150.534L274.824 133.382C274.824 133.382 276.271 127.466 272.795 123.325C269.319 119.185 266.703 91.6817 275.676 94.6398Z" fill="#FC6681"/>
<path opacity="0.1" d="M270.904 105.728C270.904 105.728 270.327 114.886 272.926 119.925C275.525 124.964 275.536 131.459 272.926 135.014" fill="black"/>
<path opacity="0.1" d="M269.457 94.4924C269.457 94.4924 271.774 92.1274 278.441 91.8291C285.107 91.5309 288.002 89.4641 288.002 89.4641" fill="black"/>
<path opacity="0.1" d="M285.575 54.5957C287.335 54.8167 289.357 55.4343 289.983 57.1221C290.216 57.7432 290.223 58.4275 290.385 59.0696C291.042 61.6522 293.892 62.8557 295.649 64.8313C297.199 66.5858 297.883 68.9332 298.399 71.2316C299.846 77.8224 300.195 84.6148 299.431 91.3238C298.867 96.2364 297.711 101.058 297.388 105.984C297.065 110.911 297.656 116.093 300.293 120.234C301.428 122.013 302.927 123.578 303.732 125.536C302.071 126.912 299.778 127.108 297.636 127.182C295.144 127.268 292.652 127.268 290.158 127.182C288.851 127.136 287.486 127.048 286.359 126.375C285.524 125.83 284.838 125.078 284.365 124.189C282.938 121.732 282.58 118.75 282.646 115.886C282.711 113.023 283.151 110.174 283.203 107.307C283.23 105.746 283.11 104.086 282.23 102.809C281.594 101.886 280.627 101.265 279.802 100.517C276.708 97.7101 275.635 93.2116 275.532 88.9834C275.429 84.7551 276.113 80.5198 275.762 76.3055C275.625 74.6563 275.02 72.6738 273.431 72.3545C272.929 72.2527 272.4 72.3545 271.919 72.158C270.643 71.6562 270.767 69.821 270.402 68.4771C269.993 66.9682 268.731 65.8033 268.377 64.2663C267.542 60.6872 272.005 56.4168 274.93 55.1712C277.904 53.9009 282.439 54.2027 285.575 54.5957Z" fill="black"/>
<path d="M285.864 54.0063C287.624 54.2273 289.646 54.8449 290.271 56.5327C290.505 57.1538 290.512 57.838 290.674 58.4802C291.33 61.0627 294.18 62.2663 295.937 64.2419C297.488 65.9963 298.172 68.3438 298.688 70.6422C300.135 77.233 300.483 84.0254 299.719 90.7344C299.155 95.6469 298 100.468 297.677 105.395C297.354 110.321 297.945 115.504 300.582 119.645C301.717 121.424 303.216 122.989 304.02 124.947C302.36 126.322 300.067 126.519 297.925 126.592C295.433 126.679 292.94 126.679 290.447 126.592C289.14 126.547 287.775 126.459 286.647 125.785C285.812 125.24 285.126 124.488 284.653 123.599C283.227 121.143 282.869 118.16 282.934 115.297C283 112.434 283.44 109.584 283.491 106.718C283.519 105.156 283.398 103.496 282.518 102.219C281.882 101.296 280.916 100.675 280.091 99.9279C276.997 97.1207 275.924 92.6222 275.821 88.3939C275.718 84.1657 276.402 79.9304 276.051 75.7161C275.914 74.0669 275.309 72.0844 273.72 71.765C273.218 71.6633 272.689 71.765 272.207 71.5685C270.932 71.0668 271.056 69.2316 270.691 67.8877C270.282 66.3788 269.02 65.2138 268.666 63.6769C267.831 60.0978 272.293 55.8274 275.219 54.5817C278.193 53.308 282.728 53.6097 285.864 54.0063Z" fill="#472727"/>
</g>
<defs>
<clipPath id="clip0">
<rect width="332" height="281" fill="white"/>
</clipPath>
</defs>
</svg>
