<svg width="218" height="228" viewBox="0 0 218 228" fill="none" xmlns="http://www.w3.org/2000/svg">
<g clip-path="url(#clip0)">
<path d="M109 208.713C158.527 208.713 198.676 168.641 198.676 119.209C198.676 69.7774 158.527 29.7051 109 29.7051C59.4735 29.7051 19.3242 69.7774 19.3242 119.209C19.3242 168.641 59.4735 208.713 109 208.713Z" stroke="#3AD29F" stroke-width="2" stroke-miterlimit="10" stroke-dasharray="12 12"/>
<path d="M109 227.699C169.032 227.699 217.698 179.126 217.698 119.209C217.698 59.2918 169.032 10.7194 109 10.7194C48.9678 10.7194 0.302002 59.2918 0.302002 119.209C0.302002 179.126 48.9678 227.699 109 227.699Z" stroke="#3AD29F" stroke-width="2" stroke-miterlimit="10" stroke-dasharray="12 12"/>
<path d="M181.749 153.772C181.751 147.677 179.473 141.801 175.363 137.293C171.252 132.785 165.604 129.971 159.524 129.4C153.444 128.83 147.37 130.544 142.489 134.208C137.609 137.871 134.274 143.221 133.137 149.209L57.7759 147.169L58.6032 160.092C58.6032 160.092 47.8572 184.839 104.335 191.433V216.446H169.626V174.858C173.313 172.703 176.372 169.624 178.498 165.925C180.625 162.226 181.746 158.037 181.749 153.772Z" fill="#808080" fill-opacity="0.3"/>
<path d="M61.1909 160.634C61.1909 160.634 50.9008 184.333 104.987 190.655V214.62H167.516V151.156L60.3877 148.257L61.1909 160.634Z" fill="#F3CF8D"/>
<path d="M92.4416 61.7366C90.8112 64.3044 88.2288 66.1239 85.2587 66.7976C82.2885 67.4712 79.172 66.9442 76.5898 65.3318L43.0172 43.2512C40.4444 41.6239 38.6215 39.0465 37.9465 36.082C37.2716 33.1176 37.7996 30.007 39.4151 27.4298C41.0454 24.8653 43.6255 23.0481 46.5927 22.3746C49.56 21.7011 52.6737 22.2259 55.2548 23.8345L88.8274 45.9152C91.4022 47.5406 93.2276 50.1171 93.9049 53.0817C94.5821 56.0463 94.056 59.1579 92.4416 61.7366Z" fill="#808080" fill-opacity="0.3"/>
<path d="M90.5818 60.5311C89.0663 62.918 86.666 64.6092 83.9052 65.2355C81.1443 65.8617 78.2474 65.3719 75.8472 63.8732L44.6297 43.3325C42.2383 41.8199 40.5438 39.4242 39.9164 36.6687C39.289 33.9131 39.7796 31.0218 41.2812 28.6261C42.7967 26.2393 45.1971 24.548 47.9579 23.9218C50.7187 23.2956 53.6156 23.7854 56.0158 25.2841L87.2273 45.8127C89.6231 47.3245 91.3212 49.722 91.9499 52.4805C92.5786 55.239 92.0867 58.1338 90.5818 60.5311Z" fill="#F3CF8D"/>
<path d="M155.647 178.016C168.615 178.016 179.128 167.523 179.128 154.58C179.128 141.636 168.615 131.143 155.647 131.143C142.678 131.143 132.165 141.636 132.165 154.58C132.165 167.523 142.678 178.016 155.647 178.016Z" fill="#F3CF8D"/>
<path d="M151.419 0H61.4656C59.4228 0 57.7668 1.65281 57.7668 3.69166V171.688C57.7668 173.727 59.4228 175.38 61.4656 175.38H151.419C153.462 175.38 155.118 173.727 155.118 171.688V3.69166C155.118 1.65281 153.462 0 151.419 0Z" fill="#808080" fill-opacity="0.3"/>
<path d="M149.68 2.3717H63.199C60.9245 2.3717 59.0806 4.21206 59.0806 6.48226V168.903C59.0806 171.173 60.9245 173.014 63.199 173.014H149.68C151.955 173.014 153.799 171.173 153.799 168.903V6.48226C153.799 4.21206 151.955 2.3717 149.68 2.3717Z" fill="white"/>
<path d="M130.235 6.651C129.961 8.46067 129.047 10.1127 127.659 11.3083C126.271 12.5039 124.499 13.1641 122.666 13.1694H89.9536C88.1203 13.1633 86.3498 12.5028 84.9621 11.3073C83.5743 10.1118 82.6609 8.46015 82.387 6.651H65.0557C64.5832 6.65061 64.1152 6.74315 63.6786 6.92335C63.2419 7.10355 62.8451 7.36786 62.5109 7.70119C62.1766 8.03452 61.9115 8.43032 61.7306 8.86598C61.5497 9.30164 61.4565 9.76861 61.4565 10.2402V165.139C61.4561 165.611 61.5489 166.078 61.7294 166.514C61.91 166.95 62.1748 167.346 62.5087 167.679C62.8427 168.013 63.2393 168.277 63.6758 168.458C64.1123 168.639 64.5801 168.731 65.0526 168.731H147.826C148.299 168.732 148.767 168.639 149.203 168.459C149.64 168.279 150.037 168.015 150.371 167.681C150.705 167.348 150.97 166.952 151.151 166.517C151.332 166.081 151.425 165.614 151.425 165.142V10.2432C151.426 9.77162 151.333 9.30457 151.152 8.86876C150.972 8.43295 150.707 8.03693 150.373 7.70332C150.039 7.36971 149.643 7.10507 149.206 6.9245C148.77 6.74394 148.302 6.651 147.829 6.651H130.235Z" fill="#96C18C"/>
<path d="M116.524 8.69116H96.6234C96.2899 8.69116 96.0195 8.96101 96.0195 9.29388V9.40539C96.0195 9.73826 96.2899 10.0081 96.6234 10.0081H116.524C116.858 10.0081 117.128 9.73826 117.128 9.40539V9.29388C117.128 8.96101 116.858 8.69116 116.524 8.69116Z" fill="#DBDBDB"/>
<path d="M121.612 10.0082C122.049 10.0082 122.403 9.65471 122.403 9.21864C122.403 8.78258 122.049 8.42908 121.612 8.42908C121.175 8.42908 120.821 8.78258 120.821 9.21864C120.821 9.65471 121.175 10.0082 121.612 10.0082Z" fill="#DBDBDB"/>
<path d="M170.825 158.714C164.01 160.287 159.333 155.851 157.757 149.053L142.099 91.0198C141.35 87.7412 141.932 84.3002 143.717 81.4483C145.501 78.5963 148.344 76.5651 151.625 75.7981C154.91 75.0511 158.357 75.6317 161.215 77.4131C164.072 79.1945 166.107 82.032 166.876 85.306L179.654 144.837C181.23 151.638 177.637 157.141 170.825 158.714Z" fill="#808080" fill-opacity="0.3"/>
<path d="M165.119 86.7266C163.79 80.9876 158.052 77.4101 152.302 78.7361C146.552 80.0621 142.967 85.7895 144.296 91.5284L158.695 153.727C160.023 159.466 165.762 163.043 171.512 161.717C177.262 160.391 180.846 154.664 179.517 148.925L165.119 86.7266Z" fill="#F3CF8D"/>
<path d="M179.029 206.778H89.6548V227.572H179.029V206.778Z" fill="#808080" fill-opacity="0.3"/>
<path d="M176.613 209.189H92.0703V225.463H176.613V209.189Z" fill="#4D8AF0"/>
<path d="M79.41 123.992C77.7994 126.529 75.2481 128.327 72.3136 128.992C69.379 129.658 66.2997 129.138 63.7485 127.545L41.2329 113.004C38.6907 111.396 36.8893 108.85 36.2223 105.921C35.5553 102.992 36.0768 99.9187 37.673 97.3724C39.2836 94.8351 41.8349 93.0371 44.7695 92.3714C47.7041 91.7057 50.7833 92.2262 53.3346 93.8193L75.8502 108.36C78.3923 109.967 80.1937 112.514 80.8608 115.443C81.5278 118.372 81.0062 121.445 79.41 123.992Z" fill="#808080" fill-opacity="0.3"/>
<path d="M73.7576 154.77C72.1327 157.33 69.5583 159.145 66.5971 159.817C63.6359 160.489 60.5286 159.963 57.9541 158.356L44.0076 148.206C41.4421 146.584 39.6241 144.015 38.9508 141.059C38.2776 138.104 38.8038 135.002 40.4145 132.433C42.0394 129.872 44.6138 128.058 47.575 127.386C50.5362 126.714 53.6435 127.239 56.218 128.847L70.1645 138.999C72.7292 140.621 74.5466 143.19 75.2198 146.145C75.893 149.1 75.3674 152.2 73.7576 154.77Z" fill="#808080" fill-opacity="0.3"/>
<g opacity="0.5">
<path opacity="0.5" d="M106.44 114.797C121.438 114.797 133.596 102.662 133.596 87.6928C133.596 72.7235 121.438 60.5885 106.44 60.5885C91.4415 60.5885 79.2832 72.7235 79.2832 87.6928C79.2832 102.662 91.4415 114.797 106.44 114.797Z" fill="#808080" fill-opacity="0.3"/>
</g>
<path d="M106.44 113.203C120.555 113.203 131.999 101.782 131.999 87.6927C131.999 73.6039 120.555 62.1826 106.44 62.1826C92.3236 62.1826 80.8804 73.6039 80.8804 87.6927C80.8804 101.782 92.3236 113.203 106.44 113.203Z" fill="#69F0AE"/>
<path d="M95.3462 84.2874L104.93 93.057L118.508 73.1281L123.303 77.115L104.93 101.031L91.3516 85.8846L95.3462 84.2874Z" fill="white"/>
<path d="M72.6314 154.013C71.1159 156.4 68.7156 158.091 65.9547 158.717C63.1939 159.344 60.297 158.854 57.8968 157.355L44.8892 147.905C42.4978 146.392 40.8033 143.996 40.1759 141.241C39.5485 138.485 40.0392 135.594 41.5407 133.198C43.0562 130.811 45.4566 129.12 48.2174 128.494C50.9782 127.868 53.8751 128.357 56.2754 129.856L69.2799 139.325C71.6668 140.837 73.3584 143.229 73.9862 145.98C74.6139 148.731 74.127 151.619 72.6314 154.013Z" fill="#F3CF8D"/>
<path d="M78.1719 123.193C76.6564 125.58 74.2561 127.271 71.4953 127.897C68.7344 128.523 65.8375 128.034 63.4373 126.535L42.2533 112.853C39.8618 111.341 38.1673 108.945 37.5399 106.189C36.9125 103.434 37.4032 100.543 38.9047 98.1469C40.4203 95.7601 42.8206 94.0688 45.5814 93.4426C48.3422 92.8164 51.2392 93.3061 53.6394 94.8048L74.8234 108.487C77.2149 109.999 78.9094 112.395 79.5368 115.15C80.1642 117.906 79.6735 120.797 78.1719 123.193Z" fill="#F3CF8D"/>
<path d="M85.2316 93.3584C83.613 95.9068 81.0498 97.7125 78.1018 98.381C75.1538 99.0496 72.0605 98.5266 69.4975 96.9265L40.9643 78.3838C38.4109 76.7683 36.6017 74.21 35.9319 71.2677C35.2621 68.3253 35.786 65.238 37.3893 62.6799C39.0079 60.1314 41.571 58.3257 44.5191 57.6572C47.4671 56.9887 50.5604 57.5116 53.1234 59.1118L81.6566 77.6545C84.21 79.2699 86.0191 81.8282 86.6889 84.7706C87.3587 87.7129 86.8348 90.8003 85.2316 93.3584Z" fill="#808080" fill-opacity="0.3"/>
<path d="M83.7157 92.394C82.2002 94.7808 79.7998 96.4721 77.039 97.0983C74.2782 97.7245 71.3813 97.2347 68.9811 95.736L42.2564 78.3687C39.865 76.8561 38.1705 74.4603 37.5431 71.7048C36.9157 68.9493 37.4063 66.0579 38.9079 63.6623C40.4234 61.2754 42.8238 59.5842 45.5846 58.958C48.3454 58.3318 51.2423 58.8215 53.6426 60.3202L80.3642 77.6876C82.7561 79.1997 84.4512 81.5952 85.0792 84.3508C85.7072 87.1063 85.217 89.998 83.7157 92.394Z" fill="#F3CF8D"/>
</g>
<defs>
<clipPath id="clip0">
<rect width="218" height="228" fill="white"/>
</clipPath>
</defs>
</svg>
