<svg width="49" height="48" viewBox="0 0 49 48" fill="none" xmlns="http://www.w3.org/2000/svg">
<rect width="49" height="48" rx="10" fill="#96C18C" fill-opacity="0.21"/>
<path fill-rule="evenodd" clip-rule="evenodd" d="M17.2083 29.3333C17.2083 28.5312 17.8646 27.875 18.6667 27.875C19.4688 27.875 20.125 28.5312 20.125 29.3333C20.125 30.1354 19.4688 30.7916 18.6667 30.7916C17.8646 30.7916 17.2083 30.1354 17.2083 29.3333ZM24.5 27.875H30.3333C31.1354 27.875 31.7917 28.5312 31.7917 29.3333C31.7917 30.1354 31.1354 30.7916 30.3333 30.7916H24.5C23.6979 30.7916 23.0417 30.1354 23.0417 29.3333C23.0417 28.5312 23.6979 27.875 24.5 27.875ZM33.25 35.1666H15.75C14.9465 35.1666 14.2917 34.5118 14.2917 33.7083V24.9583H34.7083V33.7083C34.7083 34.5118 34.0535 35.1666 33.25 35.1666ZM15.75 14.75H17.2083V16.2083C17.2083 17.0104 17.8646 17.6666 18.6667 17.6666C19.4688 17.6666 20.125 17.0104 20.125 16.2083V14.75H28.875V16.2083C28.875 17.0104 29.5312 17.6666 30.3333 17.6666C31.1354 17.6666 31.7917 17.0104 31.7917 16.2083V14.75H33.25C34.0535 14.75 34.7083 15.4048 34.7083 16.2083V22.0416H14.2917V16.2083C14.2917 15.4048 14.9465 14.75 15.75 14.75ZM33.25 11.8333H31.7917V10.375C31.7917 9.57288 31.1354 8.91663 30.3333 8.91663C29.5312 8.91663 28.875 9.57288 28.875 10.375V11.8333H20.125V10.375C20.125 9.57288 19.4688 8.91663 18.6667 8.91663C17.8646 8.91663 17.2083 9.57288 17.2083 10.375V11.8333H15.75C13.3379 11.8333 11.375 13.7962 11.375 16.2083V33.7083C11.375 36.1204 13.3379 38.0833 15.75 38.0833H33.25C35.6621 38.0833 37.625 36.1204 37.625 33.7083V16.2083C37.625 13.7962 35.6621 11.8333 33.25 11.8333Z" fill="#79A45C"/>
</svg>
