<svg width="50" height="49" viewBox="0 0 50 49" fill="none" xmlns="http://www.w3.org/2000/svg">
<rect x="0.144531" y="0.266724" width="49.5444" height="48.5333" rx="10" fill="#92CEF1" fill-opacity="0.63"/>
<path fill-rule="evenodd" clip-rule="evenodd" d="M16.6791 29.926L18.2699 28.3325C18.7795 27.8229 19.0599 27.1461 19.0599 26.4262V20.1209C19.0599 18.2915 19.8553 16.5429 21.2439 15.3269C22.6433 14.1001 24.4255 13.5608 26.2819 13.8048C29.4191 14.2214 31.7851 17.0579 31.7851 20.404V26.4262C31.7851 27.1461 32.0655 27.8229 32.5737 28.3311L34.1659 29.926H16.6791ZM28.1182 33.082C28.1182 34.294 26.8833 35.3186 25.4219 35.3186C23.9605 35.3186 22.7256 34.294 22.7256 33.082V32.6223H28.1182V33.082ZM36.9094 28.8583L34.4814 26.4262V20.404C34.4814 15.7111 31.1084 11.7247 26.6352 11.1328C24.0441 10.7877 21.4287 11.5791 19.4671 13.2993C17.4934 15.0276 16.3637 17.5136 16.3637 20.1209L16.3623 26.4262L13.9343 28.8583C13.302 29.4919 13.1146 30.4343 13.4571 31.2607C13.8008 32.0884 14.6003 32.6223 15.4955 32.6223H20.0293V33.082C20.0293 35.8026 22.4479 38.0149 25.4219 38.0149C28.3959 38.0149 30.8145 35.8026 30.8145 33.082V32.6223H35.3483C36.2435 32.6223 37.0416 32.0884 37.384 31.262C37.7278 30.4343 37.5417 29.4905 36.9094 28.8583Z" fill="#21ACFD" fill-opacity="0.99"/>
</svg>
