<svg width="49" height="48" viewBox="0 0 49 48" fill="none" xmlns="http://www.w3.org/2000/svg">
<rect width="49" height="48" rx="10" fill="#FC6681" fill-opacity="0.31"/>
<path fill-rule="evenodd" clip-rule="evenodd" d="M29 22.125H24.875V18C24.875 17.2396 24.259 16.625 23.5 16.625C22.741 16.625 22.125 17.2396 22.125 18V23.5C22.125 24.2604 22.741 24.875 23.5 24.875H29C29.7604 24.875 30.375 24.2604 30.375 23.5C30.375 22.7396 29.7604 22.125 29 22.125ZM23.5 34.5C17.4349 34.5 12.5 29.5651 12.5 23.5C12.5 17.4349 17.4349 12.5 23.5 12.5C29.5651 12.5 34.5 17.4349 34.5 23.5C34.5 29.5651 29.5651 34.5 23.5 34.5ZM23.5 9.75C15.9183 9.75 9.75 15.9183 9.75 23.5C9.75 31.0817 15.9183 37.25 23.5 37.25C31.0817 37.25 37.25 31.0817 37.25 23.5C37.25 15.9183 31.0817 9.75 23.5 9.75Z" fill="#FC6681"/>
</svg>
