<svg width="27" height="31" viewBox="0 0 27 31" fill="none" xmlns="http://www.w3.org/2000/svg">
<path d="M23.4039 31.0001H9.50738L7.36945 8.01733H25.5419L23.4039 31.0001Z" fill="#02A437" fill-opacity="0.9"/>
<path d="M25.5416 8.01724H7.3692L9.73729 0.913631C9.82598 0.647589 9.99613 0.416194 10.2236 0.25222C10.4511 0.0882469 10.7245 7.25989e-06 11.0049 3.88702e-10H21.9063C22.1868 -6.76215e-06 22.4601 0.0882263 22.6876 0.252201C22.9151 0.416175 23.0853 0.647578 23.174 0.913631L25.5416 8.01724Z" fill="#02A437" fill-opacity="0.9"/>
<path d="M11.645 3.20679H21.2657C21.4075 3.20679 21.5434 3.2631 21.6436 3.36333C21.7439 3.46357 21.8002 3.59952 21.8002 3.74127V8.01713H11.1105V3.74127C11.1105 3.59952 11.1668 3.46357 11.2671 3.36333C11.3673 3.2631 11.5033 3.20679 11.645 3.20679Z" fill="#027E2A"/>
<path d="M7.36914 8.01733H25.5415C25.8251 8.01733 26.097 8.12996 26.2974 8.33043C26.4979 8.5309 26.6105 8.80279 26.6105 9.0863V10.1553H6.30017V9.0863C6.30017 8.80279 6.41279 8.5309 6.61326 8.33043C6.81373 8.12996 7.08563 8.01733 7.36914 8.01733Z" fill="#2E6941"/>
<path d="M6.23553 12.2932L6.80242 16.8282H9.06996L10.7706 12.2932H6.23553Z" fill="#4D5256" fill-opacity="0.97"/>
<path d="M6.23562 16.828L4.53503 13.9937H7.3694V16.828H6.23562Z" fill="#4D5256" fill-opacity="0.97"/>
<path d="M18.8325 15.5565C18.7698 15.5251 18.7014 15.5063 18.6314 15.5013C18.5614 15.4964 18.4911 15.5052 18.4245 15.5274C18.3579 15.5496 18.2963 15.5847 18.2433 15.6307C18.1902 15.6767 18.1468 15.7326 18.1154 15.7954L18.0051 15.9747L16.9139 14.156C16.8664 14.0769 16.7992 14.0114 16.7189 13.9659C16.6386 13.9204 16.5478 13.8965 16.4555 13.8965C16.3632 13.8965 16.2725 13.9204 16.1922 13.9659C16.1118 14.0114 16.0447 14.0769 15.9972 14.156L12.7903 19.5009C12.7173 19.6224 12.6957 19.768 12.7301 19.9055C12.7645 20.043 12.8521 20.1613 12.9736 20.2342C13.0952 20.3071 13.2408 20.3288 13.3783 20.2944C13.5158 20.26 13.634 20.1724 13.707 20.0508L16.4556 15.4699L17.115 16.569H16.9898C16.8481 16.569 16.7121 16.6253 16.6119 16.7255C16.5117 16.8257 16.4554 16.9617 16.4554 17.1034C16.4554 17.2452 16.5117 17.3811 16.6119 17.4814C16.7121 17.5816 16.8481 17.6379 16.9898 17.6379H18.0588C18.1534 17.6379 18.2463 17.6128 18.328 17.5652C18.4097 17.5175 18.4773 17.4491 18.5239 17.3667C18.5262 17.3627 18.5277 17.3585 18.5299 17.3544C18.5321 17.3503 18.5346 17.3468 18.5366 17.3425L19.0711 16.2735C19.1345 16.1468 19.145 16.0001 19.1003 15.8656C19.0555 15.7311 18.9592 15.6199 18.8325 15.5565Z" fill="#79E19B"/>
<path d="M20.1513 19.5584L19.606 18.4677C19.4274 18.1103 18.9022 18.0406 18.6411 18.4621C18.6017 18.5263 18.5794 18.5995 18.5763 18.6748C18.5731 18.7501 18.5892 18.8249 18.6231 18.8922L18.7976 19.2412H16.677L16.8335 19.0847C16.9338 18.9845 16.9901 18.8485 16.9901 18.7068C16.9901 18.565 16.9338 18.429 16.8335 18.3288C16.7333 18.2286 16.5973 18.1723 16.4556 18.1723C16.3138 18.1723 16.1779 18.2286 16.0776 18.3288L15.0087 19.3978C14.959 19.4474 14.9197 19.5063 14.8928 19.5712C14.8659 19.636 14.8521 19.7055 14.8521 19.7757C14.8521 19.8459 14.8659 19.9154 14.8928 19.9803C14.9197 20.0451 14.959 20.104 15.0087 20.1537L16.0776 21.2226C16.1779 21.3229 16.3138 21.3792 16.4556 21.3792C16.5973 21.3792 16.7333 21.3229 16.8335 21.2226C16.9338 21.1224 16.9901 20.9864 16.9901 20.8447C16.9901 20.7029 16.9338 20.567 16.8335 20.4667L16.677 20.3102H19.6623C19.7339 20.3099 19.8047 20.2954 19.8707 20.2675C19.9366 20.2395 19.9963 20.1988 20.0463 20.1475C20.0964 20.0963 20.1357 20.0356 20.162 19.969C20.1884 19.9024 20.2012 19.8313 20.1998 19.7597C20.1996 19.6897 20.1831 19.6208 20.1513 19.5584Z" fill="#79E19B"/>
<path d="M6.44827 13.9937L6.80257 16.828H6.44827L5.64014 13.9937H6.44827Z" fill="#0A71CD"/>
<path d="M14.1719 31.0001H0.566886L0 29.8663L0.566886 28.7326V22.4969C0.566886 20.8056 1.23878 19.1835 2.43476 17.9875C3.63074 16.7915 5.25283 16.1196 6.9442 16.1196H7.79456C8.63204 16.1196 9.46132 16.2846 10.2351 16.6051C11.0088 16.9256 11.7118 17.3953 12.304 17.9875C12.8962 18.5797 13.3659 19.2827 13.6864 20.0564C14.0069 20.8302 14.1719 21.6595 14.1719 22.4969V28.7326L14.7388 29.8663L14.1719 31.0001Z" fill="#4D5256" fill-opacity="0.97"/>
<path d="M11.645 22.4482C11.5033 22.4482 11.3673 22.3919 11.2671 22.2916C11.1668 22.1914 11.1105 22.0554 11.1105 21.9137V21.3792C11.1105 21.2375 11.1668 21.1015 11.2671 21.0013C11.3673 20.901 11.5033 20.8447 11.645 20.8447C11.7868 20.8447 11.9227 20.901 12.023 21.0013C12.1232 21.1015 12.1795 21.2375 12.1795 21.3792V21.9137C12.1795 22.0554 12.1232 22.1914 12.023 22.2916C11.9227 22.3919 11.7868 22.4482 11.645 22.4482Z" fill="#92CEF1" fill-opacity="0.99"/>
<path d="M11.645 26.1897C11.5033 26.1897 11.3673 26.1334 11.2671 26.0332C11.1668 25.933 11.1105 25.797 11.1105 25.6553V24.0518C11.1105 23.9101 11.1668 23.7741 11.2671 23.6739C11.3673 23.5736 11.5033 23.5173 11.645 23.5173C11.7868 23.5173 11.9227 23.5736 12.023 23.6739C12.1232 23.7741 12.1795 23.9101 12.1795 24.0518V25.6553C12.1795 25.797 12.1232 25.933 12.023 26.0332C11.9227 26.1334 11.7868 26.1897 11.645 26.1897Z" fill="#92CEF1" fill-opacity="0.99"/>
<path d="M11.1108 7.2605H21.8004V8.01719H11.1108V7.2605Z" fill="#5FC57F"/>
</svg>
